<?xml version="1.0" encoding="utf-8" standalone="no"?>
<!DOCTYPE svg PUBLIC "-//W3C//DTD SVG 1.1//EN"
  "http://www.w3.org/Graphics/SVG/1.1/DTD/svg11.dtd">
<svg height="648pt" version="1.1" viewBox="0 0 1152 648" width="1152pt" xmlns="http://www.w3.org/2000/svg" xmlns:xlink="http://www.w3.org/1999/xlink">
 <metadata>
  <rdf:RDF xmlns:cc="http://creativecommons.org/ns#" xmlns:dc="http://purl.org/dc/elements/1.1/" xmlns:rdf="http://www.w3.org/1999/02/22-rdf-syntax-ns#">
   <cc:Work>
    <dc:type rdf:resource="http://purl.org/dc/dcmitype/StillImage"/>
    <dc:date>2021-05-31T14:51:55.905270</dc:date>
    <dc:format>image/svg+xml</dc:format>
    <dc:creator>
     <cc:Agent>
      <dc:title>Matplotlib v3.4.1, https://matplotlib.org/</dc:title>
     </cc:Agent>
    </dc:creator>
   </cc:Work>
  </rdf:RDF>
 </metadata>
 <defs>
  <style type="text/css">*{stroke-linecap:butt;stroke-linejoin:round;}</style>
 </defs>
 <g id="figure_1">
  <g id="patch_1">
   <path d="M 0 648 
L 1152 648 
L 1152 0 
L 0 0 
z
" style="fill:#ffffff;"/>
  </g>
  <g id="axes_1">
   <g id="patch_2">
    <path d="M 47.95 579.145386 
L 1141.2 579.145386 
L 1141.2 27.6 
L 47.95 27.6 
z
" style="fill:#ffffff;"/>
   </g>
   <g id="matplotlib.axis_1">
    <g id="xtick_1">
     <g id="line2d_1">
      <defs>
       <path d="M 0 0 
L 0 3.5 
" id="m7d8ad02e9f" style="stroke:#000000;stroke-width:0.8;"/>
      </defs>
      <g>
       <use style="stroke:#000000;stroke-width:0.8;" x="47.950035" xlink:href="#m7d8ad02e9f" y="579.145386"/>
      </g>
     </g>
     <g id="text_1">
      <!-- 2020-03 -->
      <g transform="translate(16.680447 621.354885)rotate(-45)scale(0.1 -0.1)">
       <defs>
        <path d="M 1166 531 
L 3309 531 
L 3309 0 
L 475 0 
L 475 531 
Q 1059 1147 1496 1619 
Q 1934 2091 2100 2284 
Q 2413 2666 2522 2902 
Q 2631 3138 2631 3384 
Q 2631 3775 2401 3997 
Q 2172 4219 1772 4219 
Q 1488 4219 1175 4116 
Q 863 4013 513 3803 
L 513 4441 
Q 834 4594 1145 4672 
Q 1456 4750 1759 4750 
Q 2444 4750 2861 4386 
Q 3278 4022 3278 3431 
Q 3278 3131 3139 2831 
Q 3000 2531 2688 2169 
Q 2513 1966 2180 1606 
Q 1847 1247 1166 531 
z
" id="DejaVuSansMono-32" transform="scale(0.015625)"/>
        <path d="M 1509 2344 
Q 1509 2516 1629 2641 
Q 1750 2766 1919 2766 
Q 2094 2766 2219 2641 
Q 2344 2516 2344 2344 
Q 2344 2169 2220 2047 
Q 2097 1925 1919 1925 
Q 1744 1925 1626 2044 
Q 1509 2163 1509 2344 
z
M 1925 4250 
Q 1484 4250 1267 3775 
Q 1050 3300 1050 2328 
Q 1050 1359 1267 884 
Q 1484 409 1925 409 
Q 2369 409 2586 884 
Q 2803 1359 2803 2328 
Q 2803 3300 2586 3775 
Q 2369 4250 1925 4250 
z
M 1925 4750 
Q 2672 4750 3055 4137 
Q 3438 3525 3438 2328 
Q 3438 1134 3055 521 
Q 2672 -91 1925 -91 
Q 1178 -91 797 521 
Q 416 1134 416 2328 
Q 416 3525 797 4137 
Q 1178 4750 1925 4750 
z
" id="DejaVuSansMono-30" transform="scale(0.015625)"/>
        <path d="M 1113 2009 
L 2741 2009 
L 2741 1497 
L 1113 1497 
L 1113 2009 
z
" id="DejaVuSansMono-2d" transform="scale(0.015625)"/>
        <path d="M 2425 2497 
Q 2884 2375 3128 2064 
Q 3372 1753 3372 1288 
Q 3372 644 2939 276 
Q 2506 -91 1741 -91 
Q 1419 -91 1084 -31 
Q 750 28 428 141 
L 428 769 
Q 747 603 1056 522 
Q 1366 441 1672 441 
Q 2191 441 2469 675 
Q 2747 909 2747 1350 
Q 2747 1756 2469 1995 
Q 2191 2234 1716 2234 
L 1234 2234 
L 1234 2753 
L 1716 2753 
Q 2150 2753 2394 2943 
Q 2638 3134 2638 3475 
Q 2638 3834 2411 4026 
Q 2184 4219 1766 4219 
Q 1488 4219 1191 4156 
Q 894 4094 569 3969 
L 569 4550 
Q 947 4650 1242 4700 
Q 1538 4750 1766 4750 
Q 2447 4750 2855 4408 
Q 3263 4066 3263 3500 
Q 3263 3116 3048 2859 
Q 2834 2603 2425 2497 
z
" id="DejaVuSansMono-33" transform="scale(0.015625)"/>
       </defs>
       <use xlink:href="#DejaVuSansMono-32"/>
       <use x="60.205078" xlink:href="#DejaVuSansMono-30"/>
       <use x="120.410156" xlink:href="#DejaVuSansMono-32"/>
       <use x="180.615234" xlink:href="#DejaVuSansMono-30"/>
       <use x="240.820312" xlink:href="#DejaVuSansMono-2d"/>
       <use x="301.025391" xlink:href="#DejaVuSansMono-30"/>
       <use x="361.230469" xlink:href="#DejaVuSansMono-33"/>
      </g>
     </g>
    </g>
    <g id="xtick_2">
     <g id="line2d_2">
      <g>
       <use style="stroke:#000000;stroke-width:0.8;" x="141.056491" xlink:href="#m7d8ad02e9f" y="579.145386"/>
      </g>
     </g>
     <g id="text_2">
      <!-- 2020-04 -->
      <g transform="translate(109.786903 621.354885)rotate(-45)scale(0.1 -0.1)">
       <defs>
        <path d="M 2297 4091 
L 825 1625 
L 2297 1625 
L 2297 4091 
z
M 2194 4666 
L 2925 4666 
L 2925 1625 
L 3547 1625 
L 3547 1113 
L 2925 1113 
L 2925 0 
L 2297 0 
L 2297 1113 
L 319 1113 
L 319 1709 
L 2194 4666 
z
" id="DejaVuSansMono-34" transform="scale(0.015625)"/>
       </defs>
       <use xlink:href="#DejaVuSansMono-32"/>
       <use x="60.205078" xlink:href="#DejaVuSansMono-30"/>
       <use x="120.410156" xlink:href="#DejaVuSansMono-32"/>
       <use x="180.615234" xlink:href="#DejaVuSansMono-30"/>
       <use x="240.820312" xlink:href="#DejaVuSansMono-2d"/>
       <use x="301.025391" xlink:href="#DejaVuSansMono-30"/>
       <use x="361.230469" xlink:href="#DejaVuSansMono-34"/>
      </g>
     </g>
    </g>
    <g id="xtick_3">
     <g id="line2d_3">
      <g>
       <use style="stroke:#000000;stroke-width:0.8;" x="231.159513" xlink:href="#m7d8ad02e9f" y="579.145386"/>
      </g>
     </g>
     <g id="text_3">
      <!-- 2020-05 -->
      <g transform="translate(199.889925 621.354885)rotate(-45)scale(0.1 -0.1)">
       <defs>
        <path d="M 647 4666 
L 3009 4666 
L 3009 4134 
L 1222 4134 
L 1222 2988 
Q 1356 3038 1492 3061 
Q 1628 3084 1766 3084 
Q 2491 3084 2916 2656 
Q 3341 2228 3341 1497 
Q 3341 759 2895 334 
Q 2450 -91 1678 -91 
Q 1306 -91 998 -41 
Q 691 9 447 109 
L 447 750 
Q 734 594 1025 517 
Q 1316 441 1619 441 
Q 2141 441 2423 716 
Q 2706 991 2706 1497 
Q 2706 1997 2414 2275 
Q 2122 2553 1600 2553 
Q 1347 2553 1106 2495 
Q 866 2438 647 2322 
L 647 4666 
z
" id="DejaVuSansMono-35" transform="scale(0.015625)"/>
       </defs>
       <use xlink:href="#DejaVuSansMono-32"/>
       <use x="60.205078" xlink:href="#DejaVuSansMono-30"/>
       <use x="120.410156" xlink:href="#DejaVuSansMono-32"/>
       <use x="180.615234" xlink:href="#DejaVuSansMono-30"/>
       <use x="240.820312" xlink:href="#DejaVuSansMono-2d"/>
       <use x="301.025391" xlink:href="#DejaVuSansMono-30"/>
       <use x="361.230469" xlink:href="#DejaVuSansMono-35"/>
      </g>
     </g>
    </g>
    <g id="xtick_4">
     <g id="line2d_4">
      <g>
       <use style="stroke:#000000;stroke-width:0.8;" x="324.265969" xlink:href="#m7d8ad02e9f" y="579.145386"/>
      </g>
     </g>
     <g id="text_4">
      <!-- 2020-06 -->
      <g transform="translate(292.996381 621.354885)rotate(-45)scale(0.1 -0.1)">
       <defs>
        <path d="M 3097 4563 
L 3097 3981 
Q 2900 4097 2678 4158 
Q 2456 4219 2216 4219 
Q 1616 4219 1306 3767 
Q 997 3316 997 2438 
Q 1147 2750 1412 2917 
Q 1678 3084 2022 3084 
Q 2697 3084 3067 2670 
Q 3438 2256 3438 1497 
Q 3438 741 3056 325 
Q 2675 -91 1984 -91 
Q 1172 -91 794 492 
Q 416 1075 416 2328 
Q 416 3509 870 4129 
Q 1325 4750 2188 4750 
Q 2419 4750 2650 4701 
Q 2881 4653 3097 4563 
z
M 1972 2591 
Q 1569 2591 1337 2300 
Q 1106 2009 1106 1497 
Q 1106 984 1337 693 
Q 1569 403 1972 403 
Q 2391 403 2603 679 
Q 2816 956 2816 1497 
Q 2816 2041 2603 2316 
Q 2391 2591 1972 2591 
z
" id="DejaVuSansMono-36" transform="scale(0.015625)"/>
       </defs>
       <use xlink:href="#DejaVuSansMono-32"/>
       <use x="60.205078" xlink:href="#DejaVuSansMono-30"/>
       <use x="120.410156" xlink:href="#DejaVuSansMono-32"/>
       <use x="180.615234" xlink:href="#DejaVuSansMono-30"/>
       <use x="240.820312" xlink:href="#DejaVuSansMono-2d"/>
       <use x="301.025391" xlink:href="#DejaVuSansMono-30"/>
       <use x="361.230469" xlink:href="#DejaVuSansMono-36"/>
      </g>
     </g>
    </g>
    <g id="xtick_5">
     <g id="line2d_5">
      <g>
       <use style="stroke:#000000;stroke-width:0.8;" x="414.368991" xlink:href="#m7d8ad02e9f" y="579.145386"/>
      </g>
     </g>
     <g id="text_5">
      <!-- 2020-07 -->
      <g transform="translate(383.099403 621.354885)rotate(-45)scale(0.1 -0.1)">
       <defs>
        <path d="M 434 4666 
L 3372 4666 
L 3372 4397 
L 1703 0 
L 1044 0 
L 2669 4134 
L 434 4134 
L 434 4666 
z
" id="DejaVuSansMono-37" transform="scale(0.015625)"/>
       </defs>
       <use xlink:href="#DejaVuSansMono-32"/>
       <use x="60.205078" xlink:href="#DejaVuSansMono-30"/>
       <use x="120.410156" xlink:href="#DejaVuSansMono-32"/>
       <use x="180.615234" xlink:href="#DejaVuSansMono-30"/>
       <use x="240.820312" xlink:href="#DejaVuSansMono-2d"/>
       <use x="301.025391" xlink:href="#DejaVuSansMono-30"/>
       <use x="361.230469" xlink:href="#DejaVuSansMono-37"/>
      </g>
     </g>
    </g>
    <g id="xtick_6">
     <g id="line2d_6">
      <g>
       <use style="stroke:#000000;stroke-width:0.8;" x="507.475447" xlink:href="#m7d8ad02e9f" y="579.145386"/>
      </g>
     </g>
     <g id="text_6">
      <!-- 2020-08 -->
      <g transform="translate(476.205859 621.354885)rotate(-45)scale(0.1 -0.1)">
       <defs>
        <path d="M 1925 2216 
Q 1503 2216 1273 1980 
Q 1044 1744 1044 1313 
Q 1044 881 1276 642 
Q 1509 403 1925 403 
Q 2350 403 2579 639 
Q 2809 875 2809 1313 
Q 2809 1741 2576 1978 
Q 2344 2216 1925 2216 
z
M 1375 2478 
Q 972 2581 745 2862 
Q 519 3144 519 3541 
Q 519 4097 897 4423 
Q 1275 4750 1925 4750 
Q 2578 4750 2956 4423 
Q 3334 4097 3334 3541 
Q 3334 3144 3107 2862 
Q 2881 2581 2478 2478 
Q 2947 2375 3195 2062 
Q 3444 1750 3444 1253 
Q 3444 622 3041 265 
Q 2638 -91 1925 -91 
Q 1213 -91 811 264 
Q 409 619 409 1247 
Q 409 1747 657 2061 
Q 906 2375 1375 2478 
z
M 1147 3481 
Q 1147 3106 1347 2909 
Q 1547 2713 1925 2713 
Q 2306 2713 2506 2909 
Q 2706 3106 2706 3481 
Q 2706 3863 2507 4063 
Q 2309 4263 1925 4263 
Q 1547 4263 1347 4061 
Q 1147 3859 1147 3481 
z
" id="DejaVuSansMono-38" transform="scale(0.015625)"/>
       </defs>
       <use xlink:href="#DejaVuSansMono-32"/>
       <use x="60.205078" xlink:href="#DejaVuSansMono-30"/>
       <use x="120.410156" xlink:href="#DejaVuSansMono-32"/>
       <use x="180.615234" xlink:href="#DejaVuSansMono-30"/>
       <use x="240.820312" xlink:href="#DejaVuSansMono-2d"/>
       <use x="301.025391" xlink:href="#DejaVuSansMono-30"/>
       <use x="361.230469" xlink:href="#DejaVuSansMono-38"/>
      </g>
     </g>
    </g>
    <g id="xtick_7">
     <g id="line2d_7">
      <g>
       <use style="stroke:#000000;stroke-width:0.8;" x="600.581903" xlink:href="#m7d8ad02e9f" y="579.145386"/>
      </g>
     </g>
     <g id="text_7">
      <!-- 2020-09 -->
      <g transform="translate(569.312315 621.354885)rotate(-45)scale(0.1 -0.1)">
       <defs>
        <path d="M 1863 2069 
Q 2266 2069 2495 2359 
Q 2725 2650 2725 3163 
Q 2725 3675 2495 3965 
Q 2266 4256 1863 4256 
Q 1444 4256 1231 3979 
Q 1019 3703 1019 3163 
Q 1019 2619 1230 2344 
Q 1441 2069 1863 2069 
z
M 738 97 
L 738 678 
Q 934 563 1156 502 
Q 1378 441 1619 441 
Q 2219 441 2526 892 
Q 2834 1344 2834 2222 
Q 2688 1909 2422 1742 
Q 2156 1575 1813 1575 
Q 1138 1575 767 1990 
Q 397 2406 397 3169 
Q 397 3922 776 4336 
Q 1156 4750 1850 4750 
Q 2663 4750 3041 4165 
Q 3419 3581 3419 2328 
Q 3419 1150 2964 529 
Q 2509 -91 1644 -91 
Q 1416 -91 1184 -42 
Q 953 6 738 97 
z
" id="DejaVuSansMono-39" transform="scale(0.015625)"/>
       </defs>
       <use xlink:href="#DejaVuSansMono-32"/>
       <use x="60.205078" xlink:href="#DejaVuSansMono-30"/>
       <use x="120.410156" xlink:href="#DejaVuSansMono-32"/>
       <use x="180.615234" xlink:href="#DejaVuSansMono-30"/>
       <use x="240.820312" xlink:href="#DejaVuSansMono-2d"/>
       <use x="301.025391" xlink:href="#DejaVuSansMono-30"/>
       <use x="361.230469" xlink:href="#DejaVuSansMono-39"/>
      </g>
     </g>
    </g>
    <g id="xtick_8">
     <g id="line2d_8">
      <g>
       <use style="stroke:#000000;stroke-width:0.8;" x="690.684925" xlink:href="#m7d8ad02e9f" y="579.145386"/>
      </g>
     </g>
     <g id="text_8">
      <!-- 2020-10 -->
      <g transform="translate(659.415337 621.354885)rotate(-45)scale(0.1 -0.1)">
       <defs>
        <path d="M 844 531 
L 1825 531 
L 1825 4097 
L 769 3859 
L 769 4434 
L 1819 4666 
L 2450 4666 
L 2450 531 
L 3419 531 
L 3419 0 
L 844 0 
L 844 531 
z
" id="DejaVuSansMono-31" transform="scale(0.015625)"/>
       </defs>
       <use xlink:href="#DejaVuSansMono-32"/>
       <use x="60.205078" xlink:href="#DejaVuSansMono-30"/>
       <use x="120.410156" xlink:href="#DejaVuSansMono-32"/>
       <use x="180.615234" xlink:href="#DejaVuSansMono-30"/>
       <use x="240.820312" xlink:href="#DejaVuSansMono-2d"/>
       <use x="301.025391" xlink:href="#DejaVuSansMono-31"/>
       <use x="361.230469" xlink:href="#DejaVuSansMono-30"/>
      </g>
     </g>
    </g>
    <g id="xtick_9">
     <g id="line2d_9">
      <g>
       <use style="stroke:#000000;stroke-width:0.8;" x="783.791381" xlink:href="#m7d8ad02e9f" y="579.145386"/>
      </g>
     </g>
     <g id="text_9">
      <!-- 2020-11 -->
      <g transform="translate(752.521793 621.354885)rotate(-45)scale(0.1 -0.1)">
       <use xlink:href="#DejaVuSansMono-32"/>
       <use x="60.205078" xlink:href="#DejaVuSansMono-30"/>
       <use x="120.410156" xlink:href="#DejaVuSansMono-32"/>
       <use x="180.615234" xlink:href="#DejaVuSansMono-30"/>
       <use x="240.820312" xlink:href="#DejaVuSansMono-2d"/>
       <use x="301.025391" xlink:href="#DejaVuSansMono-31"/>
       <use x="361.230469" xlink:href="#DejaVuSansMono-31"/>
      </g>
     </g>
    </g>
    <g id="xtick_10">
     <g id="line2d_10">
      <g>
       <use style="stroke:#000000;stroke-width:0.8;" x="873.894403" xlink:href="#m7d8ad02e9f" y="579.145386"/>
      </g>
     </g>
     <g id="text_10">
      <!-- 2020-12 -->
      <g transform="translate(842.624815 621.354885)rotate(-45)scale(0.1 -0.1)">
       <use xlink:href="#DejaVuSansMono-32"/>
       <use x="60.205078" xlink:href="#DejaVuSansMono-30"/>
       <use x="120.410156" xlink:href="#DejaVuSansMono-32"/>
       <use x="180.615234" xlink:href="#DejaVuSansMono-30"/>
       <use x="240.820312" xlink:href="#DejaVuSansMono-2d"/>
       <use x="301.025391" xlink:href="#DejaVuSansMono-31"/>
       <use x="361.230469" xlink:href="#DejaVuSansMono-32"/>
      </g>
     </g>
    </g>
    <g id="xtick_11">
     <g id="line2d_11">
      <g>
       <use style="stroke:#000000;stroke-width:0.8;" x="967.000859" xlink:href="#m7d8ad02e9f" y="579.145386"/>
      </g>
     </g>
     <g id="text_11">
      <!-- 2021-01 -->
      <g transform="translate(935.731271 621.354885)rotate(-45)scale(0.1 -0.1)">
       <use xlink:href="#DejaVuSansMono-32"/>
       <use x="60.205078" xlink:href="#DejaVuSansMono-30"/>
       <use x="120.410156" xlink:href="#DejaVuSansMono-32"/>
       <use x="180.615234" xlink:href="#DejaVuSansMono-31"/>
       <use x="240.820312" xlink:href="#DejaVuSansMono-2d"/>
       <use x="301.025391" xlink:href="#DejaVuSansMono-30"/>
       <use x="361.230469" xlink:href="#DejaVuSansMono-31"/>
      </g>
     </g>
    </g>
    <g id="xtick_12">
     <g id="line2d_12">
      <g>
       <use style="stroke:#000000;stroke-width:0.8;" x="1060.107315" xlink:href="#m7d8ad02e9f" y="579.145386"/>
      </g>
     </g>
     <g id="text_12">
      <!-- 2021-02 -->
      <g transform="translate(1028.837727 621.354885)rotate(-45)scale(0.1 -0.1)">
       <use xlink:href="#DejaVuSansMono-32"/>
       <use x="60.205078" xlink:href="#DejaVuSansMono-30"/>
       <use x="120.410156" xlink:href="#DejaVuSansMono-32"/>
       <use x="180.615234" xlink:href="#DejaVuSansMono-31"/>
       <use x="240.820312" xlink:href="#DejaVuSansMono-2d"/>
       <use x="301.025391" xlink:href="#DejaVuSansMono-30"/>
       <use x="361.230469" xlink:href="#DejaVuSansMono-32"/>
      </g>
     </g>
    </g>
    <g id="text_13">
     <!-- Date -->
     <g transform="translate(582.534375 634.477008)scale(0.1 -0.1)">
      <defs>
       <path d="M 1363 519 
Q 2159 519 2475 911 
Q 2791 1303 2791 2328 
Q 2791 3363 2477 3755 
Q 2163 4147 1363 4147 
L 1063 4147 
L 1063 519 
L 1363 519 
z
M 1375 4666 
Q 2444 4666 2950 4097 
Q 3456 3528 3456 2328 
Q 3456 1134 2950 567 
Q 2444 0 1375 0 
L 428 0 
L 428 4666 
L 1375 4666 
z
" id="DejaVuSansMono-44" transform="scale(0.015625)"/>
       <path d="M 2194 1759 
L 2003 1759 
Q 1500 1759 1245 1582 
Q 991 1406 991 1056 
Q 991 741 1181 566 
Q 1372 391 1709 391 
Q 2184 391 2456 720 
Q 2728 1050 2731 1631 
L 2731 1759 
L 2194 1759 
z
M 3309 1997 
L 3309 0 
L 2731 0 
L 2731 519 
Q 2547 206 2267 57 
Q 1988 -91 1588 -91 
Q 1053 -91 734 211 
Q 416 513 416 1019 
Q 416 1603 808 1906 
Q 1200 2209 1959 2209 
L 2731 2209 
L 2731 2300 
Q 2728 2719 2518 2908 
Q 2309 3097 1850 3097 
Q 1556 3097 1256 3012 
Q 956 2928 672 2766 
L 672 3341 
Q 991 3463 1283 3523 
Q 1575 3584 1850 3584 
Q 2284 3584 2592 3456 
Q 2900 3328 3091 3072 
Q 3209 2916 3259 2686 
Q 3309 2456 3309 1997 
z
" id="DejaVuSansMono-61" transform="scale(0.015625)"/>
       <path d="M 1919 4494 
L 1919 3500 
L 3225 3500 
L 3225 3053 
L 1919 3053 
L 1919 1153 
Q 1919 766 2066 612 
Q 2213 459 2578 459 
L 3225 459 
L 3225 0 
L 2522 0 
Q 1875 0 1609 259 
Q 1344 519 1344 1153 
L 1344 3053 
L 409 3053 
L 409 3500 
L 1344 3500 
L 1344 4494 
L 1919 4494 
z
" id="DejaVuSansMono-74" transform="scale(0.015625)"/>
       <path d="M 3475 1894 
L 3475 1613 
L 984 1613 
L 984 1594 
Q 984 1022 1282 709 
Q 1581 397 2125 397 
Q 2400 397 2700 484 
Q 3000 572 3341 750 
L 3341 178 
Q 3013 44 2708 -23 
Q 2403 -91 2119 -91 
Q 1303 -91 843 398 
Q 384 888 384 1747 
Q 384 2584 834 3084 
Q 1284 3584 2034 3584 
Q 2703 3584 3089 3131 
Q 3475 2678 3475 1894 
z
M 2900 2063 
Q 2888 2569 2661 2833 
Q 2434 3097 2009 3097 
Q 1594 3097 1325 2822 
Q 1056 2547 1006 2059 
L 2900 2063 
z
" id="DejaVuSansMono-65" transform="scale(0.015625)"/>
      </defs>
      <use xlink:href="#DejaVuSansMono-44"/>
      <use x="60.205078" xlink:href="#DejaVuSansMono-61"/>
      <use x="120.410156" xlink:href="#DejaVuSansMono-74"/>
      <use x="180.615234" xlink:href="#DejaVuSansMono-65"/>
     </g>
    </g>
   </g>
   <g id="matplotlib.axis_2">
    <g id="ytick_1">
     <g id="line2d_13">
      <defs>
       <path d="M 0 0 
L -3.5 0 
" id="maf59686158" style="stroke:#000000;stroke-width:0.8;"/>
      </defs>
      <g>
       <use style="stroke:#000000;stroke-width:0.8;" x="47.95" xlink:href="#maf59686158" y="506.106489"/>
      </g>
     </g>
     <g id="text_14">
      <!-- 10000 -->
      <g transform="translate(10.848438 509.93227)scale(0.1 -0.1)">
       <use xlink:href="#DejaVuSansMono-31"/>
       <use x="60.205078" xlink:href="#DejaVuSansMono-30"/>
       <use x="120.410156" xlink:href="#DejaVuSansMono-30"/>
       <use x="180.615234" xlink:href="#DejaVuSansMono-30"/>
       <use x="240.820312" xlink:href="#DejaVuSansMono-30"/>
      </g>
     </g>
    </g>
    <g id="ytick_2">
     <g id="line2d_14">
      <g>
       <use style="stroke:#000000;stroke-width:0.8;" x="47.95" xlink:href="#maf59686158" y="410.726434"/>
      </g>
     </g>
     <g id="text_15">
      <!-- 20000 -->
      <g transform="translate(10.848438 414.552215)scale(0.1 -0.1)">
       <use xlink:href="#DejaVuSansMono-32"/>
       <use x="60.205078" xlink:href="#DejaVuSansMono-30"/>
       <use x="120.410156" xlink:href="#DejaVuSansMono-30"/>
       <use x="180.615234" xlink:href="#DejaVuSansMono-30"/>
       <use x="240.820312" xlink:href="#DejaVuSansMono-30"/>
      </g>
     </g>
    </g>
    <g id="ytick_3">
     <g id="line2d_15">
      <g>
       <use style="stroke:#000000;stroke-width:0.8;" x="47.95" xlink:href="#maf59686158" y="315.346379"/>
      </g>
     </g>
     <g id="text_16">
      <!-- 30000 -->
      <g transform="translate(10.848438 319.17216)scale(0.1 -0.1)">
       <use xlink:href="#DejaVuSansMono-33"/>
       <use x="60.205078" xlink:href="#DejaVuSansMono-30"/>
       <use x="120.410156" xlink:href="#DejaVuSansMono-30"/>
       <use x="180.615234" xlink:href="#DejaVuSansMono-30"/>
       <use x="240.820312" xlink:href="#DejaVuSansMono-30"/>
      </g>
     </g>
    </g>
    <g id="ytick_4">
     <g id="line2d_16">
      <g>
       <use style="stroke:#000000;stroke-width:0.8;" x="47.95" xlink:href="#maf59686158" y="219.966324"/>
      </g>
     </g>
     <g id="text_17">
      <!-- 40000 -->
      <g transform="translate(10.848438 223.792105)scale(0.1 -0.1)">
       <use xlink:href="#DejaVuSansMono-34"/>
       <use x="60.205078" xlink:href="#DejaVuSansMono-30"/>
       <use x="120.410156" xlink:href="#DejaVuSansMono-30"/>
       <use x="180.615234" xlink:href="#DejaVuSansMono-30"/>
       <use x="240.820312" xlink:href="#DejaVuSansMono-30"/>
      </g>
     </g>
    </g>
    <g id="ytick_5">
     <g id="line2d_17">
      <g>
       <use style="stroke:#000000;stroke-width:0.8;" x="47.95" xlink:href="#maf59686158" y="124.586269"/>
      </g>
     </g>
     <g id="text_18">
      <!-- 50000 -->
      <g transform="translate(10.848438 128.41205)scale(0.1 -0.1)">
       <use xlink:href="#DejaVuSansMono-35"/>
       <use x="60.205078" xlink:href="#DejaVuSansMono-30"/>
       <use x="120.410156" xlink:href="#DejaVuSansMono-30"/>
       <use x="180.615234" xlink:href="#DejaVuSansMono-30"/>
       <use x="240.820312" xlink:href="#DejaVuSansMono-30"/>
      </g>
     </g>
    </g>
    <g id="ytick_6">
     <g id="line2d_18">
      <g>
       <use style="stroke:#000000;stroke-width:0.8;" x="47.95" xlink:href="#maf59686158" y="29.206214"/>
      </g>
     </g>
     <g id="text_19">
      <!-- 60000 -->
      <g transform="translate(10.848438 33.031995)scale(0.1 -0.1)">
       <use xlink:href="#DejaVuSansMono-36"/>
       <use x="60.205078" xlink:href="#DejaVuSansMono-30"/>
       <use x="120.410156" xlink:href="#DejaVuSansMono-30"/>
       <use x="180.615234" xlink:href="#DejaVuSansMono-30"/>
       <use x="240.820312" xlink:href="#DejaVuSansMono-30"/>
      </g>
     </g>
    </g>
   </g>
   <g id="line2d_19">
    <path clip-path="url(#p5c2001e787)" d="M 47.95 519.464383 
L 50.953434 519.81781 
L 53.956868 516.88758 
L 56.960302 517.668588 
L 59.963736 517.97896 
L 62.96717 514.893254 
L 65.970604 514.475654 
L 68.974038 516.503357 
L 71.977473 524.151286 
L 74.980907 525.910777 
L 77.984341 526.043501 
L 80.987775 526.02728 
L 83.991209 554.075142 
L 86.994643 548.419877 
L 89.998077 551.885422 
L 93.001511 550.054615 
L 96.004945 553.658406 
L 99.008379 551.644464 
L 102.011813 551.522288 
L 105.015247 542.434911 
L 108.018681 542.362563 
L 111.022115 542.493345 
L 114.025549 545.877542 
L 117.028984 540.287698 
L 120.032418 537.249948 
L 123.035852 537.762527 
L 126.039286 537.425097 
L 129.04272 539.777574 
L 132.046154 541.948464 
L 135.049588 545.002064 
L 138.053022 540.158676 
L 141.056456 540.074715 
L 144.05989 538.471076 
L 147.063324 536.688915 
L 150.066758 537.263458 
L 153.070192 535.984031 
L 156.073626 536.712714 
L 159.07706 532.128255 
L 162.080495 533.037863 
L 165.083929 531.533873 
L 168.087363 531.839174 
L 171.090797 536.00343 
L 174.094231 536.064573 
L 177.097665 534.996234 
L 180.101099 536.198537 
L 183.104533 536.223429 
L 186.107967 538.134063 
L 189.111401 533.606426 
L 192.114835 533.803096 
L 195.118269 532.262897 
L 198.121703 532.91377 
L 201.125137 535.846384 
L 204.128571 535.861981 
L 207.132005 533.60258 
L 210.13544 530.621789 
L 213.138874 529.466008 
L 216.142308 529.284452 
L 222.149176 527.13206 
L 225.15261 527.022777 
L 228.156044 517.542197 
L 231.159478 518.901207 
L 234.162912 516.934349 
L 237.166346 515.753264 
L 240.16978 516.62244 
L 243.173214 516.477595 
L 246.176648 515.615211 
L 249.180082 513.08104 
L 252.183516 506.568903 
L 255.186951 507.607138 
L 258.190385 509.979904 
L 261.193819 517.967656 
L 264.197253 519.442564 
L 267.200687 517.509386 
L 273.207555 508.646255 
L 276.210989 512.514147 
L 279.214423 512.048533 
L 282.217857 509.246979 
L 285.221291 508.71442 
L 288.224725 508.690927 
L 291.228159 510.656297 
L 294.231593 514.864648 
L 297.235027 513.903069 
L 300.238462 513.64831 
L 303.241896 517.643966 
L 306.24533 516.532151 
L 309.248764 517.217759 
L 315.255632 510.629878 
L 318.259066 511.456124 
L 321.2625 508.963941 
L 324.265934 511.246912 
L 327.269368 504.511085 
L 330.272802 510.59122 
L 333.276236 509.380717 
L 336.27967 508.008018 
L 339.283104 509.296639 
L 342.286538 509.409698 
L 345.289973 508.406556 
L 351.296841 508.055102 
L 354.300275 507.345529 
L 357.303709 512.575343 
L 360.307143 511.058204 
L 363.310577 511.111297 
L 366.314011 511.955309 
L 369.317445 511.345696 
L 372.320879 510.512815 
L 378.327747 511.716358 
L 381.331181 512.89737 
L 384.334615 512.474626 
L 387.338049 512.748473 
L 390.341484 509.457022 
L 393.344918 509.638809 
L 396.348352 512.653277 
L 399.351786 513.118706 
L 402.35522 514.090585 
L 405.358654 515.211555 
L 408.362088 514.275007 
L 411.365522 513.824123 
L 414.368956 514.328313 
L 417.37239 513.466724 
L 420.375824 514.467408 
L 423.379258 514.811789 
L 426.382692 514.380824 
L 429.386126 514.939227 
L 432.38956 512.063214 
L 435.392995 513.23827 
L 438.396429 511.559051 
L 441.399863 512.993235 
L 444.403297 512.985223 
L 447.406731 513.35207 
L 450.410165 513.007237 
L 453.413599 513.320904 
L 456.417033 513.324724 
L 462.423901 514.383304 
L 471.434203 513.872172 
L 474.437637 514.078055 
L 477.441071 512.068815 
L 480.444505 510.633575 
L 483.44794 510.102226 
L 486.451374 510.523609 
L 489.454808 509.186182 
L 492.458242 507.011004 
L 495.461676 496.655533 
L 498.46511 497.399978 
L 501.468544 495.610218 
L 504.471978 495.507721 
L 507.475412 493.483259 
L 510.478846 489.323483 
L 513.48228 496.057114 
L 516.485714 494.218807 
L 519.489148 494.604676 
L 522.492582 489.443376 
L 525.496016 489.131002 
L 528.499451 490.831633 
L 531.502885 489.37639 
L 534.506319 490.123278 
L 537.509753 488.193053 
L 540.513187 492.652887 
L 543.516621 490.989374 
L 546.520055 489.089377 
L 549.523489 489.234991 
L 552.526923 488.311446 
L 555.530357 488.052913 
L 558.533791 484.603991 
L 561.537225 487.114095 
L 564.540659 489.33597 
L 567.544093 488.19057 
L 570.547527 490.91732 
L 573.550962 490.065227 
L 576.554396 490.22716 
L 579.55783 489.180384 
L 582.561264 493.076285 
L 585.564698 491.91047 
L 588.568132 493.483921 
L 591.571566 491.394118 
L 594.575 491.733999 
L 597.578434 489.782134 
L 600.581868 490.074814 
L 603.585302 487.312052 
L 606.588736 492.619427 
L 609.59217 503.766848 
L 612.595604 501.224805 
L 615.599038 504.489156 
L 618.602473 503.432493 
L 621.605907 502.581588 
L 624.609341 504.852082 
L 630.616209 502.642867 
L 636.623077 501.889063 
L 639.626511 503.018504 
L 642.629945 499.612658 
L 645.633379 498.505166 
L 648.636813 496.807841 
L 651.640247 497.055018 
L 654.643681 497.097024 
L 657.647115 495.668608 
L 660.650549 497.157252 
L 663.653984 501.697454 
L 666.657418 500.970651 
L 669.660852 503.758361 
L 672.664286 498.856973 
L 675.66772 499.499348 
L 678.671154 498.946083 
L 681.674588 498.711965 
L 684.678022 499.337823 
L 687.681456 498.050299 
L 690.68489 498.624004 
L 693.688324 500.198153 
L 696.691758 500.612836 
L 699.695192 500.866987 
L 705.70206 498.539613 
L 708.705495 500.341662 
L 711.708929 499.725859 
L 714.712363 497.372673 
L 717.715797 495.953687 
L 720.719231 493.741786 
L 723.722665 492.904154 
L 726.726099 491.271429 
L 729.729533 492.506253 
L 732.732967 492.471844 
L 735.736401 491.843836 
L 738.739835 493.496075 
L 741.743269 493.152909 
L 744.746703 491.958196 
L 747.750137 489.490929 
L 750.753571 487.828474 
L 753.757005 479.174126 
L 756.76044 477.817801 
L 759.763874 478.145454 
L 762.767308 476.461771 
L 765.770742 477.195132 
L 768.774176 476.774759 
L 771.77761 471.252533 
L 774.781044 474.904951 
L 777.784478 473.31594 
L 780.787912 472.27974 
L 783.791346 470.043341 
L 786.79478 470.461915 
L 789.798214 472.241902 
L 792.801648 468.428498 
L 795.805082 466.679167 
L 798.808516 452.885864 
L 801.811951 453.019089 
L 804.815385 460.002116 
L 807.818819 453.842348 
L 810.822253 455.246833 
L 813.825687 455.64183 
L 816.829121 451.727079 
L 819.832555 446.242686 
L 822.835989 445.8472 
L 825.839423 448.228549 
L 828.842857 449.302063 
L 831.846291 442.048182 
L 834.849725 433.184567 
L 837.853159 431.67184 
L 840.856593 431.547039 
L 843.860027 423.876345 
L 846.863462 423.676825 
L 849.866896 426.273359 
L 852.87033 426.329451 
L 855.873764 419.239443 
L 858.877198 422.819473 
L 861.880632 437.903802 
L 864.884066 438.306514 
L 867.8875 432.497742 
L 870.890934 428.109607 
L 873.894368 414.295221 
L 876.897802 422.143443 
L 879.901236 418.346431 
L 882.90467 416.016226 
L 885.908104 423.128077 
L 888.911538 418.793382 
L 891.914973 416.972674 
L 894.918407 418.436659 
L 897.921841 426.739363 
L 900.925275 424.519197 
L 903.928709 427.274949 
L 906.932143 429.240624 
L 909.935577 422.137161 
L 912.939011 418.906394 
L 915.942445 417.911944 
L 918.945879 416.286366 
L 921.949313 398.225942 
L 924.952747 383.970788 
L 927.956181 380.796549 
L 930.959615 373.815955 
L 933.963049 377.559973 
L 936.966484 383.990628 
L 939.969918 374.643887 
L 942.973352 379.810469 
L 945.976786 375.092925 
L 948.98022 366.233639 
L 951.983654 349.329935 
L 954.987088 350.901254 
L 957.990522 343.151497 
L 960.993956 340.503474 
L 963.99739 326.401372 
L 967.000824 324.867981 
L 970.004258 321.315722 
L 973.007692 295.056486 
L 976.011126 288.811414 
L 979.01456 296.538257 
L 982.017995 277.266566 
L 985.021429 250.255554 
L 988.024863 225.965325 
L 991.028297 212.358709 
L 994.031731 217.538458 
L 997.035165 235.642613 
L 1000.038599 262.251584 
L 1003.042033 277.929159 
L 1006.045467 245.562903 
L 1009.048901 227.717593 
L 1012.052335 250.246002 
L 1015.055769 256.419256 
L 1018.059203 260.109138 
L 1021.062637 252.108681 
L 1024.066071 257.452532 
L 1027.069505 262.431901 
L 1030.07294 307.470862 
L 1033.076374 286.67739 
L 1036.079808 295.62519 
L 1039.083242 293.510278 
L 1042.086676 292.775709 
L 1045.09011 290.83514 
L 1048.093544 311.220743 
L 1051.096978 282.286733 
L 1054.100412 274.17665 
L 1057.103846 274.623659 
L 1060.10728 285.641618 
L 1063.110714 281.608767 
L 1069.117582 244.077542 
L 1072.121016 249.285538 
L 1075.124451 237.665935 
L 1078.127885 226.967118 
L 1081.131319 230.425305 
L 1084.134753 160.864419 
L 1087.138187 158.149516 
L 1090.141621 173.056653 
L 1093.145055 144.52708 
L 1099.151923 152.193859 
L 1102.155357 136.820762 
L 1105.158791 144.186328 
L 1108.162225 132.217901 
L 1111.165659 104.089023 
L 1114.169093 108.564359 
L 1117.172527 68.425218 
L 1120.175962 66.409009 
L 1123.179396 52.670245 
L 1126.18283 84.456837 
L 1129.186264 135.798892 
L 1132.189698 127.396801 
L 1135.193132 152.305115 
L 1138.196566 159.497657 
L 1141.2 160.940842 
L 1141.2 160.940842 
" style="fill:none;stroke:#1f77b4;stroke-linecap:square;stroke-width:1.5;"/>
   </g>
   <g id="line2d_20">
    <path clip-path="url(#p5c2001e787)" d="M 47.95 519.464383 
L 50.953434 519.641097 
L 53.956868 518.723258 
L 56.960302 518.45959 
L 59.963736 518.363464 
L 65.970604 517.312319 
L 68.974038 517.211198 
L 77.984341 519.435923 
L 80.987775 519.985203 
L 83.991209 522.607506 
L 89.998077 526.280192 
L 96.004945 529.28917 
L 99.008379 530.531131 
L 102.011813 531.635929 
L 108.018681 532.660958 
L 117.028984 533.939113 
L 129.04272 534.526923 
L 138.053022 535.285905 
L 144.05989 535.527541 
L 156.073626 535.650215 
L 168.087363 535.307247 
L 192.114835 535.359733 
L 201.125137 535.262499 
L 207.132005 535.242862 
L 219.145742 534.840047 
L 225.15261 534.581292 
L 264.197253 531.059877 
L 270.204121 530.63933 
L 276.210989 530.118314 
L 300.238462 528.363333 
L 315.255632 527.631389 
L 363.310577 524.8729 
L 399.351786 523.526354 
L 447.406731 522.358928 
L 495.461676 521.17598 
L 519.489148 519.826596 
L 543.516621 518.393634 
L 579.55783 516.391386 
L 612.595604 515.04786 
L 645.633379 514.355733 
L 669.660852 513.756533 
L 750.753571 511.733543 
L 780.787912 510.264102 
L 798.808516 509.224883 
L 837.853159 506.217614 
L 855.873764 504.416268 
L 861.880632 503.871749 
L 870.890934 503.098289 
L 885.908104 501.592711 
L 903.928709 499.925508 
L 915.942445 498.851349 
L 921.949313 498.223985 
L 948.98022 494.609031 
L 963.99739 492.116359 
L 973.007692 490.384615 
L 985.021429 487.67322 
L 997.035165 484.331934 
L 1027.069505 477.325541 
L 1036.079808 475.682501 
L 1066.114148 470.072629 
L 1081.131319 466.704682 
L 1108.162225 458.654002 
L 1117.172527 455.587102 
L 1126.18283 452.355921 
L 1135.193132 449.762072 
L 1141.2 448.175536 
L 1141.2 448.175536 
" style="fill:none;stroke:#ff7f0e;stroke-linecap:square;stroke-width:1.5;"/>
   </g>
   <g id="line2d_21">
    <path clip-path="url(#p5c2001e787)" d="M 47.95 519.464383 
L 50.953434 519.641097 
L 53.956868 518.723258 
L 56.960302 518.45959 
L 59.963736 518.363464 
L 65.970604 517.312319 
L 68.974038 517.211198 
L 77.984341 519.435923 
L 80.987775 519.985203 
L 83.991209 522.607506 
L 89.998077 526.280192 
L 93.001511 528.31954 
L 102.011813 535.149619 
L 105.015247 536.780016 
L 111.022115 540.479149 
L 114.025549 542.437428 
L 117.028984 543.513189 
L 126.039286 545.810256 
L 129.04272 544.857085 
L 135.049588 543.966767 
L 138.053022 543.307038 
L 147.063324 540.534341 
L 153.070192 539.764342 
L 156.073626 539.378967 
L 159.07706 538.462348 
L 165.083929 537.597953 
L 168.087363 537.203063 
L 171.090797 537.108285 
L 174.094231 536.860752 
L 177.097665 536.39727 
L 180.101099 535.810368 
L 183.104533 535.548018 
L 186.107967 535.418642 
L 189.111401 535.094332 
L 192.114835 534.901944 
L 195.118269 534.568573 
L 198.121703 534.363889 
L 201.125137 534.306134 
L 204.128571 534.555049 
L 210.13544 534.531891 
L 213.138874 534.37368 
L 219.145742 533.403838 
L 225.15261 532.267843 
L 234.162912 528.628765 
L 237.166346 527.425443 
L 243.173214 525.287001 
L 246.176648 523.938256 
L 249.180082 522.419527 
L 252.183516 520.617282 
L 255.186951 519.082971 
L 258.190385 517.783898 
L 261.193819 517.029445 
L 267.200687 515.801709 
L 270.204121 514.87148 
L 273.207555 514.278418 
L 291.228159 511.716233 
L 294.231593 511.83514 
L 303.241896 513.237767 
L 309.248764 512.993746 
L 315.255632 512.591685 
L 318.259066 512.77901 
L 321.2625 512.54233 
L 324.265934 512.488888 
L 327.269368 512.173162 
L 333.276236 512.344268 
L 336.27967 512.167716 
L 345.289973 511.147507 
L 354.300275 509.300359 
L 357.303709 509.210852 
L 363.310577 509.216419 
L 366.314011 509.415843 
L 369.317445 509.422429 
L 372.320879 509.822544 
L 375.324313 509.854051 
L 378.327747 510.00976 
L 381.331181 510.335717 
L 387.338049 510.770168 
L 393.344918 510.930385 
L 399.351786 511.621808 
L 402.35522 511.722824 
L 408.362088 512.210628 
L 414.368956 512.534057 
L 429.386126 513.427456 
L 432.38956 513.381772 
L 435.392995 513.633855 
L 441.399863 513.784535 
L 447.406731 513.726402 
L 453.413599 513.515841 
L 483.44794 513.083656 
L 489.454808 512.665745 
L 492.458242 512.243007 
L 501.468544 508.910531 
L 504.471978 507.690698 
L 507.475412 506.297362 
L 510.478846 504.638893 
L 516.485714 502.123972 
L 519.489148 500.825747 
L 525.496016 497.883879 
L 528.499451 496.599173 
L 531.502885 495.189358 
L 537.509753 492.663968 
L 540.513187 492.397125 
L 552.526923 490.772059 
L 555.530357 490.687354 
L 558.533791 489.923813 
L 561.537225 489.450165 
L 564.540659 489.098918 
L 567.544093 489.015398 
L 570.547527 489.134486 
L 579.55783 489.077251 
L 582.561264 489.402799 
L 585.564698 489.353305 
L 597.578434 489.937904 
L 603.585302 490.253235 
L 606.588736 490.620257 
L 612.595604 492.451264 
L 624.609341 496.115613 
L 630.616209 497.545685 
L 636.623077 498.831924 
L 642.629945 500.239593 
L 648.636813 501.434669 
L 651.640247 501.730375 
L 660.650549 500.426513 
L 669.660852 500.130534 
L 672.664286 499.801334 
L 687.681456 498.807991 
L 690.68489 498.815914 
L 705.70206 499.892704 
L 711.708929 499.719332 
L 714.712363 499.293619 
L 717.715797 499.100067 
L 723.722665 498.313434 
L 729.729533 497.36196 
L 735.736401 496.538052 
L 741.743269 495.593918 
L 747.750137 494.31806 
L 750.753571 493.603984 
L 759.763874 489.450464 
L 762.767308 488.151002 
L 768.774176 485.972599 
L 771.77761 484.638006 
L 777.784478 482.187526 
L 780.787912 480.883253 
L 786.79478 477.807004 
L 792.801648 475.088422 
L 795.805082 473.678469 
L 801.811951 470.27267 
L 804.815385 469.063114 
L 810.822253 466.091933 
L 816.829121 463.381374 
L 822.835989 459.639307 
L 825.839423 458.035894 
L 828.842857 456.653143 
L 831.846291 454.758894 
L 834.849725 452.155071 
L 840.856593 447.362486 
L 846.863462 443.472367 
L 849.866896 441.223783 
L 852.87033 439.38959 
L 855.873764 436.989097 
L 858.877198 434.80094 
L 861.880632 433.879388 
L 864.884066 433.35031 
L 867.8875 432.460346 
L 870.890934 431.119084 
L 873.894368 428.785294 
L 876.897802 427.458311 
L 882.90467 425.425395 
L 885.908104 424.864131 
L 891.914973 424.078323 
L 894.918407 423.555876 
L 897.921841 423.583204 
L 903.928709 424.232219 
L 906.932143 423.654674 
L 909.935577 422.576717 
L 912.939011 421.670627 
L 915.942445 420.990783 
L 918.945879 421.123526 
L 921.949313 419.529026 
L 927.956181 414.889338 
L 930.959615 411.601863 
L 933.963049 408.852969 
L 936.966484 406.654166 
L 939.969918 403.734648 
L 942.973352 400.606055 
L 945.976786 397.31097 
L 948.98022 393.24155 
L 951.983654 387.91417 
L 954.987088 383.16511 
L 960.993956 372.954219 
L 963.99739 366.961886 
L 967.000824 362.071355 
L 970.004258 357.894351 
L 976.011126 346.511377 
L 979.01456 341.109929 
L 982.017995 333.994992 
L 985.021429 325.702436 
L 988.024863 315.446093 
L 991.028297 304.597146 
L 994.031731 294.684133 
L 997.035165 287.104979 
L 1000.038599 281.195001 
L 1003.042033 276.846845 
L 1009.048901 263.938555 
L 1012.052335 258.963756 
L 1015.055769 254.637325 
L 1021.062637 249.860653 
L 1024.066071 247.254938 
L 1027.069505 246.265961 
L 1030.07294 250.080314 
L 1033.076374 254.127785 
L 1036.079808 259.678884 
L 1039.083242 264.743672 
L 1042.086676 268.552545 
L 1045.09011 270.458116 
L 1048.093544 272.677554 
L 1051.096978 275.12581 
L 1054.100412 278.22308 
L 1057.103846 279.848257 
L 1060.10728 281.796415 
L 1063.110714 283.229723 
L 1066.114148 283.941759 
L 1072.121016 282.173669 
L 1075.124451 277.520007 
L 1078.127885 273.539322 
L 1081.131319 269.192663 
L 1087.138187 251.374526 
L 1090.141621 243.522627 
L 1093.145055 232.409716 
L 1096.148489 223.482935 
L 1099.151923 215.350749 
L 1105.158791 196.733536 
L 1108.162225 186.774145 
L 1111.165659 176.194133 
L 1114.169093 167.159921 
L 1117.172527 155.102566 
L 1123.179396 132.065646 
L 1126.18283 122.334415 
L 1129.186264 120.66338 
L 1132.189698 118.613199 
L 1135.193132 117.229763 
L 1138.196566 118.227801 
L 1141.2 119.064856 
L 1141.2 119.064856 
" style="fill:none;stroke:#2ca02c;stroke-linecap:square;stroke-width:1.5;"/>
   </g>
   <g id="line2d_22">
    <path clip-path="url(#p5c2001e787)" d="M 89.998077 531.895496 
L 93.001511 534.867299 
L 96.004945 538.034657 
L 99.008379 540.668268 
L 102.011813 542.996966 
L 105.015247 543.907627 
L 108.018681 544.605446 
L 111.022115 545.090701 
L 114.025549 545.7655 
L 117.028984 545.496784 
L 123.035852 543.900553 
L 126.039286 542.94739 
L 129.04272 542.193304 
L 132.046154 541.829727 
L 135.049588 541.901778 
L 156.073626 538.610131 
L 159.07706 537.703792 
L 162.080495 537.025732 
L 168.087363 535.50024 
L 180.101099 534.961915 
L 183.104533 535.013548 
L 186.107967 535.336804 
L 198.121703 534.412141 
L 204.128571 534.791934 
L 207.132005 534.672875 
L 210.13544 534.176512 
L 219.145742 532.195896 
L 225.15261 530.679826 
L 228.156044 528.83912 
L 234.162912 525.723231 
L 237.166346 524.113794 
L 243.173214 521.525274 
L 246.176648 520.316301 
L 249.180082 518.959149 
L 252.183516 516.977821 
L 255.186951 515.351553 
L 258.190385 514.213669 
L 261.193819 514.236639 
L 264.197253 514.538279 
L 267.200687 514.67155 
L 270.204121 514.330005 
L 273.207555 513.551852 
L 279.214423 513.105808 
L 288.224725 511.539102 
L 291.228159 511.365286 
L 294.231593 511.758838 
L 300.238462 512.182857 
L 303.241896 512.797499 
L 309.248764 513.718758 
L 312.252198 513.834283 
L 315.255632 513.568728 
L 318.259066 513.426783 
L 321.2625 512.949899 
L 324.265934 512.787972 
L 327.269368 511.790747 
L 330.272802 511.593004 
L 333.276236 511.228308 
L 336.27967 510.686277 
L 351.296841 508.976487 
L 354.300275 508.649864 
L 357.303709 509.059237 
L 363.310577 509.524143 
L 369.317445 510.107735 
L 375.324313 510.399193 
L 378.327747 510.631981 
L 384.334615 511.260296 
L 387.338049 511.535407 
L 393.344918 511.22109 
L 399.351786 511.671674 
L 402.35522 511.980271 
L 405.358654 512.416363 
L 411.365522 512.902461 
L 414.368956 513.151598 
L 420.375824 513.485234 
L 429.386126 514.078553 
L 432.38956 513.908022 
L 435.392995 513.890085 
L 438.396429 513.630734 
L 453.413599 513.259581 
L 459.420467 513.276024 
L 468.430769 513.559018 
L 474.437637 513.695692 
L 477.441071 513.535038 
L 486.451374 512.490107 
L 489.454808 512.023503 
L 492.458242 511.31666 
L 495.461676 509.368226 
L 507.475412 502.38767 
L 510.478846 500.265936 
L 519.489148 497.101378 
L 522.492582 495.678581 
L 525.496016 494.405283 
L 531.502885 492.620905 
L 537.509753 491.271964 
L 540.513187 491.270579 
L 543.516621 491.09461 
L 555.530357 489.75649 
L 558.533791 488.99607 
L 561.537225 488.644855 
L 567.544093 488.517037 
L 570.547527 488.754777 
L 579.55783 489.019125 
L 582.561264 489.519005 
L 585.564698 489.832463 
L 588.568132 490.34879 
L 594.575 490.840697 
L 600.581868 490.850595 
L 603.585302 490.505514 
L 606.588736 490.801288 
L 609.59217 492.444612 
L 612.595604 493.649924 
L 615.599038 495.15466 
L 618.602473 496.414215 
L 621.605907 497.456013 
L 624.609341 498.678669 
L 627.612775 499.638589 
L 630.616209 500.365174 
L 633.619643 500.957283 
L 639.626511 501.950206 
L 642.629945 501.95376 
L 645.633379 501.736957 
L 651.640247 500.690278 
L 654.643681 500.11111 
L 657.647115 499.408971 
L 660.650549 498.939214 
L 666.657418 499.180557 
L 669.660852 499.624921 
L 672.664286 499.465726 
L 690.68489 499.156904 
L 702.698626 499.748224 
L 705.70206 499.590607 
L 711.708929 499.63717 
L 714.712363 499.343838 
L 717.715797 498.926346 
L 723.722665 497.530052 
L 726.726099 496.649801 
L 735.736401 494.731365 
L 744.746703 493.52936 
L 747.750137 492.840726 
L 750.753571 492.029528 
L 756.76044 488.428919 
L 762.767308 485.231979 
L 768.774176 482.578354 
L 771.77761 480.738346 
L 780.787912 477.01466 
L 783.791346 475.659671 
L 786.79478 474.552443 
L 789.798214 473.856805 
L 795.805082 471.797638 
L 798.808516 469.198562 
L 801.811951 466.835208 
L 804.815385 465.551389 
L 807.818819 463.648793 
L 810.822253 462.110253 
L 813.825687 460.803991 
L 816.829121 459.184492 
L 819.832555 457.042155 
L 822.835989 455.089236 
L 825.839423 453.662891 
L 828.842857 452.571162 
L 831.846291 450.745542 
L 837.853159 445.488347 
L 840.856593 443.218649 
L 843.860027 440.282881 
L 846.863462 437.56392 
L 849.866896 435.414044 
L 852.87033 433.552252 
L 855.873764 431.033484 
L 858.877198 429.262281 
L 861.880632 429.650138 
L 864.884066 430.203529 
L 867.8875 430.096958 
L 870.890934 429.553116 
L 873.894368 427.450133 
L 876.897802 426.619902 
L 879.901236 425.480917 
L 882.90467 424.174307 
L 885.908104 423.887142 
L 888.911538 423.128299 
L 891.914973 422.184225 
L 894.918407 421.479017 
L 897.921841 421.876952 
L 900.925275 421.993952 
L 903.928709 422.411422 
L 906.932143 423.037472 
L 909.935577 422.847783 
L 915.942445 421.919158 
L 918.945879 421.331105 
L 921.949313 418.468907 
L 927.956181 409.469032 
L 930.959615 404.334859 
L 933.963049 400.079623 
L 936.966484 396.97183 
L 939.969918 392.970545 
L 942.973352 389.980023 
L 945.976786 386.790882 
L 948.98022 382.906215 
L 951.983654 377.417263 
L 954.987088 372.790649 
L 957.990522 367.788947 
L 960.993956 363.087533 
L 963.99739 357.268427 
L 970.004258 346.912235 
L 976.011126 331.136636 
L 979.01456 324.889996 
L 982.017995 316.909575 
L 985.021429 306.442145 
L 991.028297 281.089083 
L 994.031731 270.206747 
L 997.035165 262.826557 
L 1000.038599 259.719883 
L 1003.042033 259.311653 
L 1006.045467 255.40116 
L 1009.048901 250.051175 
L 1012.052335 248.339606 
L 1015.055769 248.021543 
L 1018.059203 248.70552 
L 1021.062637 248.680667 
L 1024.066071 249.629652 
L 1027.069505 251.526773 
L 1030.07294 259.177385 
L 1033.076374 263.75202 
L 1036.079808 268.939195 
L 1039.083242 273.168119 
L 1042.086676 276.672124 
L 1045.09011 279.457448 
L 1048.093544 284.552777 
L 1051.096978 285.753924 
L 1054.100412 285.635279 
L 1057.103846 285.185351 
L 1060.10728 285.909521 
L 1063.110714 285.886066 
L 1066.114148 283.331002 
L 1069.117582 278.347975 
L 1072.121016 274.127405 
L 1075.124451 268.563939 
L 1078.127885 262.244827 
L 1081.131319 256.855575 
L 1084.134753 243.314545 
L 1087.138187 230.539534 
L 1090.141621 220.749799 
L 1093.145055 208.375356 
L 1096.148489 197.872268 
L 1099.151923 188.961133 
L 1102.155357 179.144885 
L 1105.158791 171.39769 
L 1108.162225 163.333236 
L 1111.165659 152.997595 
L 1114.169093 144.543874 
L 1117.172527 132.202036 
L 1123.179396 109.738442 
L 1126.18283 103.787341 
L 1129.186264 105.4704 
L 1132.189698 106.312078 
L 1135.193132 110.523568 
L 1141.2 121.146185 
L 1141.2 121.146185 
" style="fill:none;stroke:#d62728;stroke-linecap:square;stroke-width:1.5;"/>
   </g>
   <g id="line2d_23">
    <path clip-path="url(#p5c2001e787)" d="M 47.95 519.464383 
L 50.953434 519.652878 
L 53.956868 518.605664 
L 56.960302 518.322607 
L 59.963736 518.234418 
L 62.96717 517.476722 
L 65.970604 516.859019 
L 68.974038 516.791289 
L 74.980907 519.43055 
L 77.984341 520.504347 
L 80.987775 521.368837 
L 83.991209 526.331798 
L 89.998077 532.816951 
L 96.004945 537.824863 
L 99.008379 539.723985 
L 102.011813 541.325441 
L 111.022115 541.711501 
L 114.025549 542.257574 
L 117.028984 542.000928 
L 120.032418 541.385198 
L 126.039286 540.469057 
L 129.04272 540.380516 
L 132.046154 540.580675 
L 135.049588 541.143597 
L 141.056456 540.89885 
L 144.05989 540.591631 
L 147.063324 540.098528 
L 150.066758 539.740804 
L 153.070192 539.267338 
L 156.073626 538.945711 
L 159.07706 538.088164 
L 168.087363 536.098496 
L 174.094231 536.083811 
L 177.097665 535.947481 
L 183.104533 536.009567 
L 186.107967 536.27563 
L 198.121703 534.954899 
L 204.128571 535.165969 
L 207.132005 534.970401 
L 216.142308 533.240583 
L 225.15261 531.315638 
L 228.156044 529.593459 
L 234.162912 526.840994 
L 237.166346 525.454758 
L 240.16978 524.350531 
L 246.176648 522.397259 
L 249.180082 521.232599 
L 252.183516 519.399454 
L 255.186951 517.925286 
L 258.190385 516.932038 
L 261.193819 517.061499 
L 264.197253 517.359149 
L 267.200687 517.37793 
L 270.204121 516.839333 
L 273.207555 515.815158 
L 279.214423 514.983257 
L 285.221291 513.572215 
L 288.224725 512.962041 
L 291.228159 512.673818 
L 294.231593 512.947676 
L 300.238462 513.139754 
L 303.241896 513.702786 
L 309.248764 514.451625 
L 312.252198 514.384915 
L 315.255632 513.915532 
L 318.259066 513.608105 
L 321.2625 513.027581 
L 324.265934 512.804997 
L 327.269368 511.768254 
L 330.272802 511.621124 
L 333.276236 511.341073 
L 336.27967 510.92444 
L 348.293407 510.037965 
L 354.300275 509.484534 
L 357.303709 509.870886 
L 372.320879 510.502791 
L 378.327747 510.715849 
L 384.334615 511.1743 
L 387.338049 511.371072 
L 393.344918 510.94519 
L 399.351786 511.403701 
L 408.362088 512.436242 
L 429.386126 513.633914 
L 432.38956 513.437577 
L 435.392995 513.412663 
L 438.396429 513.180962 
L 453.413599 513.165683 
L 459.420467 513.263019 
L 468.430769 513.580841 
L 474.437637 513.674857 
L 477.441071 513.474102 
L 489.454808 512.054836 
L 492.458242 511.424357 
L 495.461676 509.578254 
L 504.471978 505.126185 
L 507.475412 503.670819 
L 510.478846 501.877402 
L 513.48228 501.149866 
L 516.485714 500.283484 
L 519.489148 499.573633 
L 525.496016 497.160307 
L 537.509753 493.994815 
L 540.513187 493.827074 
L 543.516621 493.472362 
L 549.523489 492.463301 
L 555.530357 491.457894 
L 558.533791 490.601156 
L 561.537225 490.165273 
L 564.540659 490.06161 
L 567.544093 489.82773 
L 570.547527 489.963929 
L 579.55783 489.904471 
L 582.561264 490.300948 
L 585.564698 490.502138 
L 588.568132 490.874861 
L 594.575 491.039047 
L 600.581868 490.781043 
L 603.585302 490.347419 
L 606.588736 490.63142 
L 609.59217 492.273349 
L 612.595604 493.392281 
L 615.599038 494.77939 
L 618.602473 495.861028 
L 621.605907 496.701098 
L 624.609341 497.719971 
L 627.612775 498.479346 
L 633.619643 499.410133 
L 639.626511 500.132313 
L 642.629945 500.067356 
L 645.633379 499.872082 
L 651.640247 499.184798 
L 654.643681 498.923826 
L 657.647115 498.516924 
L 660.650549 498.346965 
L 663.653984 498.765776 
L 666.657418 499.041385 
L 669.660852 499.631007 
L 675.66772 499.52989 
L 690.68489 499.125172 
L 702.698626 499.622263 
L 705.70206 499.486932 
L 711.708929 499.610284 
L 714.712363 499.330583 
L 717.715797 498.908471 
L 723.722665 497.592825 
L 726.726099 496.802651 
L 735.736401 495.297938 
L 741.743269 494.832731 
L 744.746703 494.473414 
L 747.750137 493.850603 
L 750.753571 493.097837 
L 756.76044 489.664927 
L 762.767308 486.75459 
L 768.774176 484.461545 
L 771.77761 482.810419 
L 777.784478 480.758948 
L 780.787912 479.699047 
L 783.791346 478.492084 
L 786.79478 477.488313 
L 789.798214 476.832511 
L 795.805082 474.644154 
L 798.808516 471.924368 
L 801.811951 469.561208 
L 804.815385 468.366322 
L 807.818819 466.550825 
L 810.822253 465.137826 
L 813.825687 463.950827 
L 816.829121 462.422858 
L 819.832555 460.400337 
L 822.835989 458.581194 
L 825.839423 457.287114 
L 828.842857 456.288982 
L 831.846291 454.508882 
L 837.853159 449.321905 
L 840.856593 447.100047 
L 843.860027 444.197084 
L 846.863462 441.632052 
L 849.866896 439.712215 
L 852.87033 438.03937 
L 855.873764 435.689379 
L 858.877198 434.080641 
L 864.884066 435.027033 
L 867.8875 434.710872 
L 870.890934 433.885714 
L 873.894368 431.436902 
L 876.897802 430.27522 
L 882.90467 427.188134 
L 885.908104 426.680627 
L 894.918407 423.83349 
L 897.921841 424.196724 
L 900.925275 424.237033 
L 903.928709 424.616772 
L 906.932143 425.194754 
L 909.935577 424.812555 
L 915.942445 423.303992 
L 918.945879 422.426789 
L 921.949313 419.401683 
L 930.959615 406.090183 
L 933.963049 402.523907 
L 936.966484 400.207247 
L 939.969918 397.011827 
L 942.973352 394.861657 
L 945.976786 392.390566 
L 948.98022 389.12095 
L 951.983654 384.147073 
L 954.987088 379.991346 
L 957.990522 375.386365 
L 960.993956 371.026003 
L 963.99739 365.447924 
L 970.004258 355.492968 
L 976.011126 340.547533 
L 979.01456 335.046374 
L 982.017995 327.823898 
L 985.021429 318.127855 
L 991.028297 294.826435 
L 994.031731 285.165438 
L 997.035165 278.975085 
L 1000.038599 276.884647 
L 1003.042033 277.015211 
L 1006.045467 273.083673 
L 1009.048901 267.412913 
L 1012.052335 265.267049 
L 1015.055769 264.161075 
L 1018.059203 263.654583 
L 1021.062637 262.211345 
L 1024.066071 261.616493 
L 1027.069505 261.718419 
L 1030.07294 267.437475 
L 1033.076374 269.842464 
L 1036.079808 273.065305 
L 1039.083242 275.620926 
L 1042.086676 277.765274 
L 1045.09011 279.399007 
L 1048.093544 283.376724 
L 1051.096978 283.240475 
L 1054.100412 282.107497 
L 1057.103846 281.172017 
L 1060.10728 281.730717 
L 1063.110714 281.715474 
L 1066.114148 279.349691 
L 1069.117582 274.940672 
L 1072.121016 271.733781 
L 1075.124451 267.4753 
L 1078.127885 262.411777 
L 1081.131319 258.413468 
L 1084.134753 246.219837 
L 1087.138187 235.211047 
L 1090.141621 227.441748 
L 1093.145055 217.077414 
L 1096.148489 208.490864 
L 1099.151923 201.453738 
L 1102.155357 193.374616 
L 1105.158791 187.22608 
L 1108.162225 180.350058 
L 1111.165659 170.817428 
L 1114.169093 163.035795 
L 1117.172527 151.209473 
L 1123.179396 129.617018 
L 1126.18283 123.971996 
L 1129.186264 125.450358 
L 1132.189698 125.693663 
L 1135.193132 129.020095 
L 1138.196566 132.82979 
L 1141.2 136.343671 
L 1141.2 136.343671 
" style="fill:none;stroke:#9467bd;stroke-linecap:square;stroke-width:1.5;"/>
   </g>
   <g id="patch_3">
    <path d="M 47.95 579.145386 
L 47.95 27.6 
" style="fill:none;stroke:#000000;stroke-linecap:square;stroke-linejoin:miter;stroke-width:0.8;"/>
   </g>
   <g id="patch_4">
    <path d="M 1141.2 579.145386 
L 1141.2 27.6 
" style="fill:none;stroke:#000000;stroke-linecap:square;stroke-linejoin:miter;stroke-width:0.8;"/>
   </g>
   <g id="patch_5">
    <path d="M 47.95 579.145386 
L 1141.2 579.145386 
" style="fill:none;stroke:#000000;stroke-linecap:square;stroke-linejoin:miter;stroke-width:0.8;"/>
   </g>
   <g id="patch_6">
    <path d="M 47.95 27.6 
L 1141.2 27.6 
" style="fill:none;stroke:#000000;stroke-linecap:square;stroke-linejoin:miter;stroke-width:0.8;"/>
   </g>
   <g id="text_20">
    <!-- Moving Average(N=15) -->
    <g transform="translate(510.290625 21.6)scale(0.14 -0.14)">
     <defs>
      <path d="M 269 4666 
L 1113 4666 
L 1919 2291 
L 2731 4666 
L 3578 4666 
L 3578 0 
L 2994 0 
L 2994 4122 
L 2163 1663 
L 1684 1663 
L 850 4122 
L 850 0 
L 269 0 
L 269 4666 
z
" id="DejaVuSansMono-4d" transform="scale(0.015625)"/>
      <path d="M 1925 3097 
Q 1488 3097 1263 2756 
Q 1038 2416 1038 1747 
Q 1038 1081 1263 739 
Q 1488 397 1925 397 
Q 2366 397 2591 739 
Q 2816 1081 2816 1747 
Q 2816 2416 2591 2756 
Q 2366 3097 1925 3097 
z
M 1925 3584 
Q 2653 3584 3039 3112 
Q 3425 2641 3425 1747 
Q 3425 850 3040 379 
Q 2656 -91 1925 -91 
Q 1197 -91 812 379 
Q 428 850 428 1747 
Q 428 2641 812 3112 
Q 1197 3584 1925 3584 
z
" id="DejaVuSansMono-6f" transform="scale(0.015625)"/>
      <path d="M 313 3500 
L 909 3500 
L 1925 563 
L 2944 3500 
L 3541 3500 
L 2297 0 
L 1556 0 
L 313 3500 
z
" id="DejaVuSansMono-76" transform="scale(0.015625)"/>
      <path d="M 800 3500 
L 2272 3500 
L 2272 447 
L 3413 447 
L 3413 0 
L 556 0 
L 556 447 
L 1697 447 
L 1697 3053 
L 800 3053 
L 800 3500 
z
M 1697 4863 
L 2272 4863 
L 2272 4134 
L 1697 4134 
L 1697 4863 
z
" id="DejaVuSansMono-69" transform="scale(0.015625)"/>
      <path d="M 3284 2169 
L 3284 0 
L 2706 0 
L 2706 2169 
Q 2706 2641 2540 2862 
Q 2375 3084 2022 3084 
Q 1619 3084 1401 2798 
Q 1184 2513 1184 1978 
L 1184 0 
L 609 0 
L 609 3500 
L 1184 3500 
L 1184 2975 
Q 1338 3275 1600 3429 
Q 1863 3584 2222 3584 
Q 2756 3584 3020 3232 
Q 3284 2881 3284 2169 
z
" id="DejaVuSansMono-6e" transform="scale(0.015625)"/>
      <path d="M 2681 1778 
Q 2681 2425 2470 2761 
Q 2259 3097 1856 3097 
Q 1434 3097 1212 2761 
Q 991 2425 991 1778 
Q 991 1131 1214 792 
Q 1438 453 1863 453 
Q 2259 453 2470 793 
Q 2681 1134 2681 1778 
z
M 3256 225 
Q 3256 -563 2884 -969 
Q 2513 -1375 1791 -1375 
Q 1553 -1375 1293 -1331 
Q 1034 -1288 775 -1203 
L 775 -634 
Q 1081 -778 1331 -847 
Q 1581 -916 1791 -916 
Q 2256 -916 2468 -662 
Q 2681 -409 2681 141 
L 2681 166 
L 2681 556 
Q 2544 263 2306 119 
Q 2069 -25 1728 -25 
Q 1116 -25 750 465 
Q 384 956 384 1778 
Q 384 2603 750 3093 
Q 1116 3584 1728 3584 
Q 2066 3584 2300 3450 
Q 2534 3316 2681 3034 
L 2681 3488 
L 3256 3488 
L 3256 225 
z
" id="DejaVuSansMono-67" transform="scale(0.015625)"/>
      <path id="DejaVuSansMono-20" transform="scale(0.015625)"/>
      <path d="M 1925 4109 
L 1259 1722 
L 2591 1722 
L 1925 4109 
z
M 1544 4666 
L 2309 4666 
L 3738 0 
L 3084 0 
L 2741 1216 
L 1106 1216 
L 769 0 
L 116 0 
L 1544 4666 
z
" id="DejaVuSansMono-41" transform="scale(0.015625)"/>
      <path d="M 3609 2778 
Q 3425 2922 3234 2987 
Q 3044 3053 2816 3053 
Q 2278 3053 1993 2715 
Q 1709 2378 1709 1741 
L 1709 0 
L 1131 0 
L 1131 3500 
L 1709 3500 
L 1709 2816 
Q 1853 3188 2151 3386 
Q 2450 3584 2859 3584 
Q 3072 3584 3256 3531 
Q 3441 3478 3609 3366 
L 3609 2778 
z
" id="DejaVuSansMono-72" transform="scale(0.015625)"/>
      <path d="M 2766 4856 
Q 2350 4144 2145 3436 
Q 1941 2728 1941 2009 
Q 1941 1294 2145 584 
Q 2350 -125 2766 -844 
L 2266 -844 
Q 1794 -100 1562 604 
Q 1331 1309 1331 2009 
Q 1331 2706 1562 3412 
Q 1794 4119 2266 4856 
L 2766 4856 
z
" id="DejaVuSansMono-28" transform="scale(0.015625)"/>
      <path d="M 434 4666 
L 1234 4666 
L 2809 825 
L 2809 4666 
L 3419 4666 
L 3419 0 
L 2619 0 
L 1044 3841 
L 1044 0 
L 434 0 
L 434 4666 
z
" id="DejaVuSansMono-4e" transform="scale(0.015625)"/>
      <path d="M 275 1638 
L 3578 1638 
L 3578 1100 
L 275 1100 
L 275 1638 
z
M 275 2906 
L 3578 2906 
L 3578 2375 
L 275 2375 
L 275 2906 
z
" id="DejaVuSansMono-3d" transform="scale(0.015625)"/>
      <path d="M 1088 4856 
L 1588 4856 
Q 2059 4119 2290 3412 
Q 2522 2706 2522 2009 
Q 2522 1306 2290 600 
Q 2059 -106 1588 -844 
L 1088 -844 
Q 1503 -119 1708 590 
Q 1913 1300 1913 2009 
Q 1913 2722 1708 3431 
Q 1503 4141 1088 4856 
z
" id="DejaVuSansMono-29" transform="scale(0.015625)"/>
     </defs>
     <use xlink:href="#DejaVuSansMono-4d"/>
     <use x="60.205078" xlink:href="#DejaVuSansMono-6f"/>
     <use x="120.410156" xlink:href="#DejaVuSansMono-76"/>
     <use x="180.615234" xlink:href="#DejaVuSansMono-69"/>
     <use x="240.820312" xlink:href="#DejaVuSansMono-6e"/>
     <use x="301.025391" xlink:href="#DejaVuSansMono-67"/>
     <use x="361.230469" xlink:href="#DejaVuSansMono-20"/>
     <use x="421.435547" xlink:href="#DejaVuSansMono-41"/>
     <use x="481.640625" xlink:href="#DejaVuSansMono-76"/>
     <use x="541.845703" xlink:href="#DejaVuSansMono-65"/>
     <use x="602.050781" xlink:href="#DejaVuSansMono-72"/>
     <use x="662.255859" xlink:href="#DejaVuSansMono-61"/>
     <use x="722.460938" xlink:href="#DejaVuSansMono-67"/>
     <use x="782.666016" xlink:href="#DejaVuSansMono-65"/>
     <use x="842.871094" xlink:href="#DejaVuSansMono-28"/>
     <use x="903.076172" xlink:href="#DejaVuSansMono-4e"/>
     <use x="963.28125" xlink:href="#DejaVuSansMono-3d"/>
     <use x="1023.486328" xlink:href="#DejaVuSansMono-31"/>
     <use x="1083.691406" xlink:href="#DejaVuSansMono-35"/>
     <use x="1143.896484" xlink:href="#DejaVuSansMono-29"/>
    </g>
   </g>
   <g id="legend_1">
    <g id="patch_7">
     <path d="M 56.35 126 
L 282.58375 126 
Q 284.98375 126 284.98375 123.6 
L 284.98375 36 
Q 284.98375 33.6 282.58375 33.6 
L 56.35 33.6 
Q 53.95 33.6 53.95 36 
L 53.95 123.6 
Q 53.95 126 56.35 126 
z
" style="fill:#ffffff;opacity:0.8;stroke:#cccccc;stroke-linejoin:miter;"/>
    </g>
    <g id="line2d_24">
     <path d="M 58.75 43.381875 
L 82.75 43.381875 
" style="fill:none;stroke:#1f77b4;stroke-linecap:square;stroke-width:1.5;"/>
    </g>
    <g id="line2d_25"/>
    <g id="text_21">
     <!-- Closing Price -->
     <g transform="translate(92.35 47.581875)scale(0.12 -0.12)">
      <defs>
       <path d="M 3353 166 
Q 3113 38 2859 -26 
Q 2606 -91 2322 -91 
Q 1425 -91 929 543 
Q 434 1178 434 2328 
Q 434 3472 932 4111 
Q 1431 4750 2322 4750 
Q 2606 4750 2859 4686 
Q 3113 4622 3353 4494 
L 3353 3847 
Q 3122 4038 2856 4138 
Q 2591 4238 2322 4238 
Q 1706 4238 1400 3763 
Q 1094 3288 1094 2328 
Q 1094 1372 1400 897 
Q 1706 422 2322 422 
Q 2597 422 2861 522 
Q 3125 622 3353 813 
L 3353 166 
z
" id="DejaVuSansMono-43" transform="scale(0.015625)"/>
       <path d="M 1997 1269 
Q 1997 881 2139 684 
Q 2281 488 2559 488 
L 3231 488 
L 3231 0 
L 2503 0 
Q 1988 0 1705 331 
Q 1422 663 1422 1269 
L 1422 4447 
L 500 4447 
L 500 4897 
L 1997 4897 
L 1997 1269 
z
" id="DejaVuSansMono-6c" transform="scale(0.015625)"/>
       <path d="M 3041 3378 
L 3041 2816 
Q 2794 2959 2544 3031 
Q 2294 3103 2034 3103 
Q 1644 3103 1451 2976 
Q 1259 2850 1259 2591 
Q 1259 2356 1403 2240 
Q 1547 2125 2119 2016 
L 2350 1972 
Q 2778 1891 2998 1647 
Q 3219 1403 3219 1013 
Q 3219 494 2850 201 
Q 2481 -91 1825 -91 
Q 1566 -91 1281 -36 
Q 997 19 666 128 
L 666 722 
Q 988 556 1281 473 
Q 1575 391 1838 391 
Q 2219 391 2428 545 
Q 2638 700 2638 978 
Q 2638 1378 1872 1531 
L 1847 1538 
L 1631 1581 
Q 1134 1678 906 1908 
Q 678 2138 678 2534 
Q 678 3038 1018 3311 
Q 1359 3584 1991 3584 
Q 2272 3584 2531 3532 
Q 2791 3481 3041 3378 
z
" id="DejaVuSansMono-73" transform="scale(0.015625)"/>
       <path d="M 1247 4147 
L 1247 2394 
L 1978 2394 
Q 2416 2394 2661 2625 
Q 2906 2856 2906 3272 
Q 2906 3688 2662 3917 
Q 2419 4147 1978 4147 
L 1247 4147 
z
M 616 4666 
L 1978 4666 
Q 2759 4666 3162 4311 
Q 3566 3956 3566 3272 
Q 3566 2581 3164 2228 
Q 2763 1875 1978 1875 
L 1247 1875 
L 1247 0 
L 616 0 
L 616 4666 
z
" id="DejaVuSansMono-50" transform="scale(0.015625)"/>
       <path d="M 3316 178 
Q 3084 44 2839 -23 
Q 2594 -91 2338 -91 
Q 1525 -91 1067 396 
Q 609 884 609 1747 
Q 609 2609 1067 3096 
Q 1525 3584 2338 3584 
Q 2591 3584 2831 3518 
Q 3072 3453 3316 3316 
L 3316 2713 
Q 3088 2916 2858 3006 
Q 2628 3097 2338 3097 
Q 1797 3097 1506 2747 
Q 1216 2397 1216 1747 
Q 1216 1100 1508 748 
Q 1800 397 2338 397 
Q 2638 397 2875 489 
Q 3113 581 3316 775 
L 3316 178 
z
" id="DejaVuSansMono-63" transform="scale(0.015625)"/>
      </defs>
      <use xlink:href="#DejaVuSansMono-43"/>
      <use x="60.205078" xlink:href="#DejaVuSansMono-6c"/>
      <use x="120.410156" xlink:href="#DejaVuSansMono-6f"/>
      <use x="180.615234" xlink:href="#DejaVuSansMono-73"/>
      <use x="240.820312" xlink:href="#DejaVuSansMono-69"/>
      <use x="301.025391" xlink:href="#DejaVuSansMono-6e"/>
      <use x="361.230469" xlink:href="#DejaVuSansMono-67"/>
      <use x="421.435547" xlink:href="#DejaVuSansMono-20"/>
      <use x="481.640625" xlink:href="#DejaVuSansMono-50"/>
      <use x="541.845703" xlink:href="#DejaVuSansMono-72"/>
      <use x="602.050781" xlink:href="#DejaVuSansMono-69"/>
      <use x="662.255859" xlink:href="#DejaVuSansMono-63"/>
      <use x="722.460938" xlink:href="#DejaVuSansMono-65"/>
     </g>
    </g>
    <g id="line2d_26">
     <path d="M 58.75 61.141875 
L 82.75 61.141875 
" style="fill:none;stroke:#ff7f0e;stroke-linecap:square;stroke-width:1.5;"/>
    </g>
    <g id="line2d_27"/>
    <g id="text_22">
     <!-- Cumulative Moving Average -->
     <g transform="translate(92.35 65.341875)scale(0.12 -0.12)">
      <defs>
       <path d="M 609 1325 
L 609 3494 
L 1184 3494 
L 1184 1325 
Q 1184 853 1351 631 
Q 1519 409 1869 409 
Q 2275 409 2490 695 
Q 2706 981 2706 1516 
L 2706 3494 
L 3284 3494 
L 3284 0 
L 2706 0 
L 2706 525 
Q 2553 222 2289 65 
Q 2025 -91 1672 -91 
Q 1134 -91 871 261 
Q 609 613 609 1325 
z
" id="DejaVuSansMono-75" transform="scale(0.015625)"/>
       <path d="M 2113 3144 
Q 2219 3369 2383 3476 
Q 2547 3584 2778 3584 
Q 3200 3584 3373 3257 
Q 3547 2931 3547 2028 
L 3547 0 
L 3022 0 
L 3022 2003 
Q 3022 2744 2939 2923 
Q 2856 3103 2638 3103 
Q 2388 3103 2295 2911 
Q 2203 2719 2203 2003 
L 2203 0 
L 1678 0 
L 1678 2003 
Q 1678 2753 1589 2928 
Q 1500 3103 1269 3103 
Q 1041 3103 952 2911 
Q 863 2719 863 2003 
L 863 0 
L 341 0 
L 341 3500 
L 863 3500 
L 863 3200 
Q 966 3388 1120 3486 
Q 1275 3584 1472 3584 
Q 1709 3584 1867 3475 
Q 2025 3366 2113 3144 
z
" id="DejaVuSansMono-6d" transform="scale(0.015625)"/>
      </defs>
      <use xlink:href="#DejaVuSansMono-43"/>
      <use x="60.205078" xlink:href="#DejaVuSansMono-75"/>
      <use x="120.410156" xlink:href="#DejaVuSansMono-6d"/>
      <use x="180.615234" xlink:href="#DejaVuSansMono-75"/>
      <use x="240.820312" xlink:href="#DejaVuSansMono-6c"/>
      <use x="301.025391" xlink:href="#DejaVuSansMono-61"/>
      <use x="361.230469" xlink:href="#DejaVuSansMono-74"/>
      <use x="421.435547" xlink:href="#DejaVuSansMono-69"/>
      <use x="481.640625" xlink:href="#DejaVuSansMono-76"/>
      <use x="541.845703" xlink:href="#DejaVuSansMono-65"/>
      <use x="602.050781" xlink:href="#DejaVuSansMono-20"/>
      <use x="662.255859" xlink:href="#DejaVuSansMono-4d"/>
      <use x="722.460938" xlink:href="#DejaVuSansMono-6f"/>
      <use x="782.666016" xlink:href="#DejaVuSansMono-76"/>
      <use x="842.871094" xlink:href="#DejaVuSansMono-69"/>
      <use x="903.076172" xlink:href="#DejaVuSansMono-6e"/>
      <use x="963.28125" xlink:href="#DejaVuSansMono-67"/>
      <use x="1023.486328" xlink:href="#DejaVuSansMono-20"/>
      <use x="1083.691406" xlink:href="#DejaVuSansMono-41"/>
      <use x="1143.896484" xlink:href="#DejaVuSansMono-76"/>
      <use x="1204.101562" xlink:href="#DejaVuSansMono-65"/>
      <use x="1264.306641" xlink:href="#DejaVuSansMono-72"/>
      <use x="1324.511719" xlink:href="#DejaVuSansMono-61"/>
      <use x="1384.716797" xlink:href="#DejaVuSansMono-67"/>
      <use x="1444.921875" xlink:href="#DejaVuSansMono-65"/>
     </g>
    </g>
    <g id="line2d_28">
     <path d="M 58.75 78.901875 
L 82.75 78.901875 
" style="fill:none;stroke:#2ca02c;stroke-linecap:square;stroke-width:1.5;"/>
    </g>
    <g id="line2d_29"/>
    <g id="text_23">
     <!-- Simple Moving Average -->
     <g transform="translate(92.35 83.101875)scale(0.12 -0.12)">
      <defs>
       <path d="M 3163 4506 
L 3163 3866 
Q 2875 4050 2586 4144 
Q 2297 4238 2003 4238 
Q 1556 4238 1297 4030 
Q 1038 3822 1038 3469 
Q 1038 3159 1208 2996 
Q 1378 2834 1844 2725 
L 2175 2650 
Q 2831 2497 3131 2169 
Q 3431 1841 3431 1275 
Q 3431 609 3018 259 
Q 2606 -91 1819 -91 
Q 1491 -91 1159 -20 
Q 828 50 494 191 
L 494 863 
Q 853 634 1173 528 
Q 1494 422 1819 422 
Q 2297 422 2562 636 
Q 2828 850 2828 1234 
Q 2828 1584 2645 1768 
Q 2463 1953 2009 2053 
L 1672 2131 
Q 1022 2278 728 2575 
Q 434 2872 434 3372 
Q 434 3997 854 4373 
Q 1275 4750 1972 4750 
Q 2241 4750 2537 4689 
Q 2834 4628 3163 4506 
z
" id="DejaVuSansMono-53" transform="scale(0.015625)"/>
       <path d="M 1172 441 
L 1172 -1331 
L 594 -1331 
L 594 3500 
L 1172 3500 
L 1172 3053 
Q 1316 3313 1555 3448 
Q 1794 3584 2106 3584 
Q 2741 3584 3102 3093 
Q 3463 2603 3463 1734 
Q 3463 881 3100 395 
Q 2738 -91 2106 -91 
Q 1788 -91 1548 45 
Q 1309 181 1172 441 
z
M 2859 1747 
Q 2859 2416 2648 2756 
Q 2438 3097 2022 3097 
Q 1603 3097 1387 2755 
Q 1172 2413 1172 1747 
Q 1172 1084 1387 740 
Q 1603 397 2022 397 
Q 2438 397 2648 737 
Q 2859 1078 2859 1747 
z
" id="DejaVuSansMono-70" transform="scale(0.015625)"/>
      </defs>
      <use xlink:href="#DejaVuSansMono-53"/>
      <use x="60.205078" xlink:href="#DejaVuSansMono-69"/>
      <use x="120.410156" xlink:href="#DejaVuSansMono-6d"/>
      <use x="180.615234" xlink:href="#DejaVuSansMono-70"/>
      <use x="240.820312" xlink:href="#DejaVuSansMono-6c"/>
      <use x="301.025391" xlink:href="#DejaVuSansMono-65"/>
      <use x="361.230469" xlink:href="#DejaVuSansMono-20"/>
      <use x="421.435547" xlink:href="#DejaVuSansMono-4d"/>
      <use x="481.640625" xlink:href="#DejaVuSansMono-6f"/>
      <use x="541.845703" xlink:href="#DejaVuSansMono-76"/>
      <use x="602.050781" xlink:href="#DejaVuSansMono-69"/>
      <use x="662.255859" xlink:href="#DejaVuSansMono-6e"/>
      <use x="722.460938" xlink:href="#DejaVuSansMono-67"/>
      <use x="782.666016" xlink:href="#DejaVuSansMono-20"/>
      <use x="842.871094" xlink:href="#DejaVuSansMono-41"/>
      <use x="903.076172" xlink:href="#DejaVuSansMono-76"/>
      <use x="963.28125" xlink:href="#DejaVuSansMono-65"/>
      <use x="1023.486328" xlink:href="#DejaVuSansMono-72"/>
      <use x="1083.691406" xlink:href="#DejaVuSansMono-61"/>
      <use x="1143.896484" xlink:href="#DejaVuSansMono-67"/>
      <use x="1204.101562" xlink:href="#DejaVuSansMono-65"/>
     </g>
    </g>
    <g id="line2d_30">
     <path d="M 58.75 96.661875 
L 82.75 96.661875 
" style="fill:none;stroke:#d62728;stroke-linecap:square;stroke-width:1.5;"/>
    </g>
    <g id="line2d_31"/>
    <g id="text_24">
     <!-- Weighted Moving Average -->
     <g transform="translate(92.35 100.861875)scale(0.12 -0.12)">
      <defs>
       <path d="M 0 4666 
L 616 4666 
L 1063 878 
L 1594 3384 
L 2253 3384 
L 2791 872 
L 3238 4666 
L 3853 4666 
L 3156 0 
L 2559 0 
L 1925 2772 
L 1294 0 
L 697 0 
L 0 4666 
z
" id="DejaVuSansMono-57" transform="scale(0.015625)"/>
       <path d="M 3284 2169 
L 3284 0 
L 2706 0 
L 2706 2169 
Q 2706 2641 2540 2862 
Q 2375 3084 2022 3084 
Q 1619 3084 1401 2798 
Q 1184 2513 1184 1978 
L 1184 0 
L 609 0 
L 609 4863 
L 1184 4863 
L 1184 2975 
Q 1338 3275 1600 3429 
Q 1863 3584 2222 3584 
Q 2756 3584 3020 3232 
Q 3284 2881 3284 2169 
z
" id="DejaVuSansMono-68" transform="scale(0.015625)"/>
       <path d="M 2681 3053 
L 2681 4863 
L 3256 4863 
L 3256 0 
L 2681 0 
L 2681 441 
Q 2538 181 2298 45 
Q 2059 -91 1747 -91 
Q 1113 -91 748 401 
Q 384 894 384 1759 
Q 384 2613 750 3098 
Q 1116 3584 1747 3584 
Q 2063 3584 2303 3448 
Q 2544 3313 2681 3053 
z
M 991 1747 
Q 991 1078 1203 737 
Q 1416 397 1831 397 
Q 2247 397 2464 740 
Q 2681 1084 2681 1747 
Q 2681 2413 2464 2755 
Q 2247 3097 1831 3097 
Q 1416 3097 1203 2756 
Q 991 2416 991 1747 
z
" id="DejaVuSansMono-64" transform="scale(0.015625)"/>
      </defs>
      <use xlink:href="#DejaVuSansMono-57"/>
      <use x="60.205078" xlink:href="#DejaVuSansMono-65"/>
      <use x="120.410156" xlink:href="#DejaVuSansMono-69"/>
      <use x="180.615234" xlink:href="#DejaVuSansMono-67"/>
      <use x="240.820312" xlink:href="#DejaVuSansMono-68"/>
      <use x="301.025391" xlink:href="#DejaVuSansMono-74"/>
      <use x="361.230469" xlink:href="#DejaVuSansMono-65"/>
      <use x="421.435547" xlink:href="#DejaVuSansMono-64"/>
      <use x="481.640625" xlink:href="#DejaVuSansMono-20"/>
      <use x="541.845703" xlink:href="#DejaVuSansMono-4d"/>
      <use x="602.050781" xlink:href="#DejaVuSansMono-6f"/>
      <use x="662.255859" xlink:href="#DejaVuSansMono-76"/>
      <use x="722.460938" xlink:href="#DejaVuSansMono-69"/>
      <use x="782.666016" xlink:href="#DejaVuSansMono-6e"/>
      <use x="842.871094" xlink:href="#DejaVuSansMono-67"/>
      <use x="903.076172" xlink:href="#DejaVuSansMono-20"/>
      <use x="963.28125" xlink:href="#DejaVuSansMono-41"/>
      <use x="1023.486328" xlink:href="#DejaVuSansMono-76"/>
      <use x="1083.691406" xlink:href="#DejaVuSansMono-65"/>
      <use x="1143.896484" xlink:href="#DejaVuSansMono-72"/>
      <use x="1204.101562" xlink:href="#DejaVuSansMono-61"/>
      <use x="1264.306641" xlink:href="#DejaVuSansMono-67"/>
      <use x="1324.511719" xlink:href="#DejaVuSansMono-65"/>
     </g>
    </g>
    <g id="line2d_32">
     <path d="M 58.75 114.421875 
L 82.75 114.421875 
" style="fill:none;stroke:#9467bd;stroke-linecap:square;stroke-width:1.5;"/>
    </g>
    <g id="line2d_33"/>
    <g id="text_25">
     <!-- Exponential Moving Average -->
     <g transform="translate(92.35 118.621875)scale(0.12 -0.12)">
      <defs>
       <path d="M 616 4666 
L 3384 4666 
L 3384 4134 
L 1247 4134 
L 1247 2753 
L 3291 2753 
L 3291 2222 
L 1247 2222 
L 1247 531 
L 3444 531 
L 3444 0 
L 616 0 
L 616 4666 
z
" id="DejaVuSansMono-45" transform="scale(0.015625)"/>
       <path d="M 3494 3500 
L 2241 1825 
L 3616 0 
L 2950 0 
L 1925 1403 
L 903 0 
L 238 0 
L 1613 1825 
L 359 3500 
L 997 3500 
L 1925 2234 
L 2847 3500 
L 3494 3500 
z
" id="DejaVuSansMono-78" transform="scale(0.015625)"/>
      </defs>
      <use xlink:href="#DejaVuSansMono-45"/>
      <use x="60.205078" xlink:href="#DejaVuSansMono-78"/>
      <use x="120.410156" xlink:href="#DejaVuSansMono-70"/>
      <use x="180.615234" xlink:href="#DejaVuSansMono-6f"/>
      <use x="240.820312" xlink:href="#DejaVuSansMono-6e"/>
      <use x="301.025391" xlink:href="#DejaVuSansMono-65"/>
      <use x="361.230469" xlink:href="#DejaVuSansMono-6e"/>
      <use x="421.435547" xlink:href="#DejaVuSansMono-74"/>
      <use x="481.640625" xlink:href="#DejaVuSansMono-69"/>
      <use x="541.845703" xlink:href="#DejaVuSansMono-61"/>
      <use x="602.050781" xlink:href="#DejaVuSansMono-6c"/>
      <use x="662.255859" xlink:href="#DejaVuSansMono-20"/>
      <use x="722.460938" xlink:href="#DejaVuSansMono-4d"/>
      <use x="782.666016" xlink:href="#DejaVuSansMono-6f"/>
      <use x="842.871094" xlink:href="#DejaVuSansMono-76"/>
      <use x="903.076172" xlink:href="#DejaVuSansMono-69"/>
      <use x="963.28125" xlink:href="#DejaVuSansMono-6e"/>
      <use x="1023.486328" xlink:href="#DejaVuSansMono-67"/>
      <use x="1083.691406" xlink:href="#DejaVuSansMono-20"/>
      <use x="1143.896484" xlink:href="#DejaVuSansMono-41"/>
      <use x="1204.101562" xlink:href="#DejaVuSansMono-76"/>
      <use x="1264.306641" xlink:href="#DejaVuSansMono-65"/>
      <use x="1324.511719" xlink:href="#DejaVuSansMono-72"/>
      <use x="1384.716797" xlink:href="#DejaVuSansMono-61"/>
      <use x="1444.921875" xlink:href="#DejaVuSansMono-67"/>
      <use x="1505.126953" xlink:href="#DejaVuSansMono-65"/>
     </g>
    </g>
   </g>
  </g>
 </g>
 <defs>
  <clipPath id="p5c2001e787">
   <rect height="551.545386" width="1093.25" x="47.95" y="27.6"/>
  </clipPath>
 </defs>
</svg>
