<?xml version="1.0" encoding="utf-8" standalone="no"?>
<!DOCTYPE svg PUBLIC "-//W3C//DTD SVG 1.1//EN"
  "http://www.w3.org/Graphics/SVG/1.1/DTD/svg11.dtd">
<svg height="648pt" version="1.1" viewBox="0 0 1152 648" width="1152pt" xmlns="http://www.w3.org/2000/svg" xmlns:xlink="http://www.w3.org/1999/xlink">
 <metadata>
  <rdf:RDF xmlns:cc="http://creativecommons.org/ns#" xmlns:dc="http://purl.org/dc/elements/1.1/" xmlns:rdf="http://www.w3.org/1999/02/22-rdf-syntax-ns#">
   <cc:Work>
    <dc:type rdf:resource="http://purl.org/dc/dcmitype/StillImage"/>
    <dc:date>2021-06-01T07:49:05.680720</dc:date>
    <dc:format>image/svg+xml</dc:format>
    <dc:creator>
     <cc:Agent>
      <dc:title>Matplotlib v3.4.1, https://matplotlib.org/</dc:title>
     </cc:Agent>
    </dc:creator>
   </cc:Work>
  </rdf:RDF>
 </metadata>
 <defs>
  <style type="text/css">*{stroke-linecap:butt;stroke-linejoin:round;}</style>
 </defs>
 <g id="figure_1">
  <g id="patch_1">
   <path d="M 0 648 
L 1152 648 
L 1152 0 
L 0 0 
z
" style="fill:#ffffff;"/>
  </g>
  <g id="axes_1">
   <g id="patch_2">
    <path d="M 58.88 603.16 
L 1141.2 603.16 
L 1141.2 27.6 
L 58.88 27.6 
z
" style="fill:#ffffff;"/>
   </g>
   <g id="patch_3">
    <path clip-path="url(#p095c2c888a)" d="M 63.389667 603.16 
L 66.396111 603.16 
L 66.396111 310.812063 
L 63.389667 310.812063 
z
" style="fill:#1f77b4;"/>
   </g>
   <g id="patch_4">
    <path clip-path="url(#p095c2c888a)" d="M 81.428333 603.16 
L 84.434778 603.16 
L 84.434778 310.812063 
L 81.428333 310.812063 
z
" style="fill:#1f77b4;"/>
   </g>
   <g id="patch_5">
    <path clip-path="url(#p095c2c888a)" d="M 99.467 603.16 
L 102.473444 603.16 
L 102.473444 310.812063 
L 99.467 310.812063 
z
" style="fill:#1f77b4;"/>
   </g>
   <g id="patch_6">
    <path clip-path="url(#p095c2c888a)" d="M 117.505667 603.16 
L 120.512111 603.16 
L 120.512111 310.812063 
L 117.505667 310.812063 
z
" style="fill:#1f77b4;"/>
   </g>
   <g id="patch_7">
    <path clip-path="url(#p095c2c888a)" d="M 135.544333 603.16 
L 138.550778 603.16 
L 138.550778 310.812063 
L 135.544333 310.812063 
z
" style="fill:#1f77b4;"/>
   </g>
   <g id="patch_8">
    <path clip-path="url(#p095c2c888a)" d="M 153.583 603.16 
L 156.589444 603.16 
L 156.589444 310.812063 
L 153.583 310.812063 
z
" style="fill:#1f77b4;"/>
   </g>
   <g id="patch_9">
    <path clip-path="url(#p095c2c888a)" d="M 171.621667 603.16 
L 174.628111 603.16 
L 174.628111 310.812063 
L 171.621667 310.812063 
z
" style="fill:#1f77b4;"/>
   </g>
   <g id="patch_10">
    <path clip-path="url(#p095c2c888a)" d="M 189.660333 603.16 
L 192.666778 603.16 
L 192.666778 310.812063 
L 189.660333 310.812063 
z
" style="fill:#1f77b4;"/>
   </g>
   <g id="patch_11">
    <path clip-path="url(#p095c2c888a)" d="M 207.699 603.16 
L 210.705444 603.16 
L 210.705444 310.812063 
L 207.699 310.812063 
z
" style="fill:#1f77b4;"/>
   </g>
   <g id="patch_12">
    <path clip-path="url(#p095c2c888a)" d="M 225.737667 603.16 
L 228.744111 603.16 
L 228.744111 310.812063 
L 225.737667 310.812063 
z
" style="fill:#1f77b4;"/>
   </g>
   <g id="patch_13">
    <path clip-path="url(#p095c2c888a)" d="M 243.776333 603.16 
L 246.782778 603.16 
L 246.782778 310.812063 
L 243.776333 310.812063 
z
" style="fill:#1f77b4;"/>
   </g>
   <g id="patch_14">
    <path clip-path="url(#p095c2c888a)" d="M 261.815 603.16 
L 264.821444 603.16 
L 264.821444 310.812063 
L 261.815 310.812063 
z
" style="fill:#1f77b4;"/>
   </g>
   <g id="patch_15">
    <path clip-path="url(#p095c2c888a)" d="M 279.853667 603.16 
L 282.860111 603.16 
L 282.860111 310.812063 
L 279.853667 310.812063 
z
" style="fill:#1f77b4;"/>
   </g>
   <g id="patch_16">
    <path clip-path="url(#p095c2c888a)" d="M 297.892333 603.16 
L 300.898778 603.16 
L 300.898778 310.812063 
L 297.892333 310.812063 
z
" style="fill:#1f77b4;"/>
   </g>
   <g id="patch_17">
    <path clip-path="url(#p095c2c888a)" d="M 315.931 603.16 
L 318.937444 603.16 
L 318.937444 310.812063 
L 315.931 310.812063 
z
" style="fill:#1f77b4;"/>
   </g>
   <g id="patch_18">
    <path clip-path="url(#p095c2c888a)" d="M 333.969667 603.16 
L 336.976111 603.16 
L 336.976111 310.812063 
L 333.969667 310.812063 
z
" style="fill:#1f77b4;"/>
   </g>
   <g id="patch_19">
    <path clip-path="url(#p095c2c888a)" d="M 352.008333 603.16 
L 355.014778 603.16 
L 355.014778 603.16 
L 352.008333 603.16 
z
" style="fill:#1f77b4;"/>
   </g>
   <g id="patch_20">
    <path clip-path="url(#p095c2c888a)" d="M 370.047 603.16 
L 373.053444 603.16 
L 373.053444 603.16 
L 370.047 603.16 
z
" style="fill:#1f77b4;"/>
   </g>
   <g id="patch_21">
    <path clip-path="url(#p095c2c888a)" d="M 388.085667 603.16 
L 391.092111 603.16 
L 391.092111 603.16 
L 388.085667 603.16 
z
" style="fill:#1f77b4;"/>
   </g>
   <g id="patch_22">
    <path clip-path="url(#p095c2c888a)" d="M 406.124333 603.16 
L 409.130778 603.16 
L 409.130778 603.16 
L 406.124333 603.16 
z
" style="fill:#1f77b4;"/>
   </g>
   <g id="patch_23">
    <path clip-path="url(#p095c2c888a)" d="M 424.163 603.16 
L 427.169444 603.16 
L 427.169444 603.16 
L 424.163 603.16 
z
" style="fill:#1f77b4;"/>
   </g>
   <g id="patch_24">
    <path clip-path="url(#p095c2c888a)" d="M 442.201667 603.16 
L 445.208111 603.16 
L 445.208111 603.16 
L 442.201667 603.16 
z
" style="fill:#1f77b4;"/>
   </g>
   <g id="patch_25">
    <path clip-path="url(#p095c2c888a)" d="M 460.240333 603.16 
L 463.246778 603.16 
L 463.246778 603.16 
L 460.240333 603.16 
z
" style="fill:#1f77b4;"/>
   </g>
   <g id="patch_26">
    <path clip-path="url(#p095c2c888a)" d="M 478.279 603.16 
L 481.285444 603.16 
L 481.285444 603.16 
L 478.279 603.16 
z
" style="fill:#1f77b4;"/>
   </g>
   <g id="patch_27">
    <path clip-path="url(#p095c2c888a)" d="M 496.317667 603.16 
L 499.324111 603.16 
L 499.324111 603.16 
L 496.317667 603.16 
z
" style="fill:#1f77b4;"/>
   </g>
   <g id="patch_28">
    <path clip-path="url(#p095c2c888a)" d="M 514.356333 603.16 
L 517.362778 603.16 
L 517.362778 603.16 
L 514.356333 603.16 
z
" style="fill:#1f77b4;"/>
   </g>
   <g id="patch_29">
    <path clip-path="url(#p095c2c888a)" d="M 532.395 603.16 
L 535.401444 603.16 
L 535.401444 603.16 
L 532.395 603.16 
z
" style="fill:#1f77b4;"/>
   </g>
   <g id="patch_30">
    <path clip-path="url(#p095c2c888a)" d="M 550.433667 603.16 
L 553.440111 603.16 
L 553.440111 603.16 
L 550.433667 603.16 
z
" style="fill:#1f77b4;"/>
   </g>
   <g id="patch_31">
    <path clip-path="url(#p095c2c888a)" d="M 568.472333 603.16 
L 571.478778 603.16 
L 571.478778 603.16 
L 568.472333 603.16 
z
" style="fill:#1f77b4;"/>
   </g>
   <g id="patch_32">
    <path clip-path="url(#p095c2c888a)" d="M 586.511 603.16 
L 589.517444 603.16 
L 589.517444 603.16 
L 586.511 603.16 
z
" style="fill:#1f77b4;"/>
   </g>
   <g id="patch_33">
    <path clip-path="url(#p095c2c888a)" d="M 604.549667 603.16 
L 607.556111 603.16 
L 607.556111 603.16 
L 604.549667 603.16 
z
" style="fill:#1f77b4;"/>
   </g>
   <g id="patch_34">
    <path clip-path="url(#p095c2c888a)" d="M 622.588333 603.16 
L 625.594778 603.16 
L 625.594778 603.16 
L 622.588333 603.16 
z
" style="fill:#1f77b4;"/>
   </g>
   <g id="patch_35">
    <path clip-path="url(#p095c2c888a)" d="M 640.627 603.16 
L 643.633444 603.16 
L 643.633444 603.16 
L 640.627 603.16 
z
" style="fill:#1f77b4;"/>
   </g>
   <g id="patch_36">
    <path clip-path="url(#p095c2c888a)" d="M 658.665667 603.16 
L 661.672111 603.16 
L 661.672111 603.16 
L 658.665667 603.16 
z
" style="fill:#1f77b4;"/>
   </g>
   <g id="patch_37">
    <path clip-path="url(#p095c2c888a)" d="M 676.704333 603.16 
L 679.710778 603.16 
L 679.710778 603.16 
L 676.704333 603.16 
z
" style="fill:#1f77b4;"/>
   </g>
   <g id="patch_38">
    <path clip-path="url(#p095c2c888a)" d="M 694.743 603.16 
L 697.749444 603.16 
L 697.749444 603.16 
L 694.743 603.16 
z
" style="fill:#1f77b4;"/>
   </g>
   <g id="patch_39">
    <path clip-path="url(#p095c2c888a)" d="M 712.781667 603.16 
L 715.788111 603.16 
L 715.788111 603.16 
L 712.781667 603.16 
z
" style="fill:#1f77b4;"/>
   </g>
   <g id="patch_40">
    <path clip-path="url(#p095c2c888a)" d="M 730.820333 603.16 
L 733.826778 603.16 
L 733.826778 603.16 
L 730.820333 603.16 
z
" style="fill:#1f77b4;"/>
   </g>
   <g id="patch_41">
    <path clip-path="url(#p095c2c888a)" d="M 748.859 603.16 
L 751.865444 603.16 
L 751.865444 603.16 
L 748.859 603.16 
z
" style="fill:#1f77b4;"/>
   </g>
   <g id="patch_42">
    <path clip-path="url(#p095c2c888a)" d="M 766.897667 603.16 
L 769.904111 603.16 
L 769.904111 603.16 
L 766.897667 603.16 
z
" style="fill:#1f77b4;"/>
   </g>
   <g id="patch_43">
    <path clip-path="url(#p095c2c888a)" d="M 784.936333 603.16 
L 787.942778 603.16 
L 787.942778 603.16 
L 784.936333 603.16 
z
" style="fill:#1f77b4;"/>
   </g>
   <g id="patch_44">
    <path clip-path="url(#p095c2c888a)" d="M 802.975 603.16 
L 805.981444 603.16 
L 805.981444 603.16 
L 802.975 603.16 
z
" style="fill:#1f77b4;"/>
   </g>
   <g id="patch_45">
    <path clip-path="url(#p095c2c888a)" d="M 821.013667 603.16 
L 824.020111 603.16 
L 824.020111 603.16 
L 821.013667 603.16 
z
" style="fill:#1f77b4;"/>
   </g>
   <g id="patch_46">
    <path clip-path="url(#p095c2c888a)" d="M 839.052333 603.16 
L 842.058778 603.16 
L 842.058778 603.16 
L 839.052333 603.16 
z
" style="fill:#1f77b4;"/>
   </g>
   <g id="patch_47">
    <path clip-path="url(#p095c2c888a)" d="M 857.091 603.16 
L 860.097444 603.16 
L 860.097444 603.16 
L 857.091 603.16 
z
" style="fill:#1f77b4;"/>
   </g>
   <g id="patch_48">
    <path clip-path="url(#p095c2c888a)" d="M 875.129667 603.16 
L 878.136111 603.16 
L 878.136111 603.16 
L 875.129667 603.16 
z
" style="fill:#1f77b4;"/>
   </g>
   <g id="patch_49">
    <path clip-path="url(#p095c2c888a)" d="M 893.168333 603.16 
L 896.174778 603.16 
L 896.174778 603.16 
L 893.168333 603.16 
z
" style="fill:#1f77b4;"/>
   </g>
   <g id="patch_50">
    <path clip-path="url(#p095c2c888a)" d="M 911.207 603.16 
L 914.213444 603.16 
L 914.213444 603.16 
L 911.207 603.16 
z
" style="fill:#1f77b4;"/>
   </g>
   <g id="patch_51">
    <path clip-path="url(#p095c2c888a)" d="M 929.245667 603.16 
L 932.252111 603.16 
L 932.252111 603.16 
L 929.245667 603.16 
z
" style="fill:#1f77b4;"/>
   </g>
   <g id="patch_52">
    <path clip-path="url(#p095c2c888a)" d="M 947.284333 603.16 
L 950.290778 603.16 
L 950.290778 603.16 
L 947.284333 603.16 
z
" style="fill:#1f77b4;"/>
   </g>
   <g id="patch_53">
    <path clip-path="url(#p095c2c888a)" d="M 965.323 603.16 
L 968.329444 603.16 
L 968.329444 603.16 
L 965.323 603.16 
z
" style="fill:#1f77b4;"/>
   </g>
   <g id="patch_54">
    <path clip-path="url(#p095c2c888a)" d="M 983.361667 603.16 
L 986.368111 603.16 
L 986.368111 603.16 
L 983.361667 603.16 
z
" style="fill:#1f77b4;"/>
   </g>
   <g id="patch_55">
    <path clip-path="url(#p095c2c888a)" d="M 1001.400333 603.16 
L 1004.406778 603.16 
L 1004.406778 603.16 
L 1001.400333 603.16 
z
" style="fill:#1f77b4;"/>
   </g>
   <g id="patch_56">
    <path clip-path="url(#p095c2c888a)" d="M 1019.439 603.16 
L 1022.445444 603.16 
L 1022.445444 603.16 
L 1019.439 603.16 
z
" style="fill:#1f77b4;"/>
   </g>
   <g id="patch_57">
    <path clip-path="url(#p095c2c888a)" d="M 1037.477667 603.16 
L 1040.484111 603.16 
L 1040.484111 603.16 
L 1037.477667 603.16 
z
" style="fill:#1f77b4;"/>
   </g>
   <g id="patch_58">
    <path clip-path="url(#p095c2c888a)" d="M 1055.516333 603.16 
L 1058.522778 603.16 
L 1058.522778 603.16 
L 1055.516333 603.16 
z
" style="fill:#1f77b4;"/>
   </g>
   <g id="patch_59">
    <path clip-path="url(#p095c2c888a)" d="M 1073.555 603.16 
L 1076.561444 603.16 
L 1076.561444 603.16 
L 1073.555 603.16 
z
" style="fill:#1f77b4;"/>
   </g>
   <g id="patch_60">
    <path clip-path="url(#p095c2c888a)" d="M 1091.593667 603.16 
L 1094.600111 603.16 
L 1094.600111 603.16 
L 1091.593667 603.16 
z
" style="fill:#1f77b4;"/>
   </g>
   <g id="patch_61">
    <path clip-path="url(#p095c2c888a)" d="M 1109.632333 603.16 
L 1112.638778 603.16 
L 1112.638778 603.16 
L 1109.632333 603.16 
z
" style="fill:#1f77b4;"/>
   </g>
   <g id="patch_62">
    <path clip-path="url(#p095c2c888a)" d="M 1127.671 603.16 
L 1130.677444 603.16 
L 1130.677444 603.16 
L 1127.671 603.16 
z
" style="fill:#1f77b4;"/>
   </g>
   <g id="patch_63">
    <path clip-path="url(#p095c2c888a)" d="M 66.396111 603.16 
L 69.402556 603.16 
L 69.402556 55.007619 
L 66.396111 55.007619 
z
" style="fill:#ff7f0e;"/>
   </g>
   <g id="patch_64">
    <path clip-path="url(#p095c2c888a)" d="M 84.434778 603.16 
L 87.441222 603.16 
L 87.441222 91.551111 
L 84.434778 91.551111 
z
" style="fill:#ff7f0e;"/>
   </g>
   <g id="patch_65">
    <path clip-path="url(#p095c2c888a)" d="M 102.473444 603.16 
L 105.479889 603.16 
L 105.479889 128.094603 
L 102.473444 128.094603 
z
" style="fill:#ff7f0e;"/>
   </g>
   <g id="patch_66">
    <path clip-path="url(#p095c2c888a)" d="M 120.512111 603.16 
L 123.518556 603.16 
L 123.518556 164.638095 
L 120.512111 164.638095 
z
" style="fill:#ff7f0e;"/>
   </g>
   <g id="patch_67">
    <path clip-path="url(#p095c2c888a)" d="M 138.550778 603.16 
L 141.557222 603.16 
L 141.557222 201.181587 
L 138.550778 201.181587 
z
" style="fill:#ff7f0e;"/>
   </g>
   <g id="patch_68">
    <path clip-path="url(#p095c2c888a)" d="M 156.589444 603.16 
L 159.595889 603.16 
L 159.595889 237.725079 
L 156.589444 237.725079 
z
" style="fill:#ff7f0e;"/>
   </g>
   <g id="patch_69">
    <path clip-path="url(#p095c2c888a)" d="M 174.628111 603.16 
L 177.634556 603.16 
L 177.634556 274.268571 
L 174.628111 274.268571 
z
" style="fill:#ff7f0e;"/>
   </g>
   <g id="patch_70">
    <path clip-path="url(#p095c2c888a)" d="M 192.666778 603.16 
L 195.673222 603.16 
L 195.673222 310.812063 
L 192.666778 310.812063 
z
" style="fill:#ff7f0e;"/>
   </g>
   <g id="patch_71">
    <path clip-path="url(#p095c2c888a)" d="M 210.705444 603.16 
L 213.711889 603.16 
L 213.711889 347.355556 
L 210.705444 347.355556 
z
" style="fill:#ff7f0e;"/>
   </g>
   <g id="patch_72">
    <path clip-path="url(#p095c2c888a)" d="M 228.744111 603.16 
L 231.750556 603.16 
L 231.750556 383.899048 
L 228.744111 383.899048 
z
" style="fill:#ff7f0e;"/>
   </g>
   <g id="patch_73">
    <path clip-path="url(#p095c2c888a)" d="M 246.782778 603.16 
L 249.789222 603.16 
L 249.789222 420.44254 
L 246.782778 420.44254 
z
" style="fill:#ff7f0e;"/>
   </g>
   <g id="patch_74">
    <path clip-path="url(#p095c2c888a)" d="M 264.821444 603.16 
L 267.827889 603.16 
L 267.827889 456.986032 
L 264.821444 456.986032 
z
" style="fill:#ff7f0e;"/>
   </g>
   <g id="patch_75">
    <path clip-path="url(#p095c2c888a)" d="M 282.860111 603.16 
L 285.866556 603.16 
L 285.866556 493.529524 
L 282.860111 493.529524 
z
" style="fill:#ff7f0e;"/>
   </g>
   <g id="patch_76">
    <path clip-path="url(#p095c2c888a)" d="M 300.898778 603.16 
L 303.905222 603.16 
L 303.905222 530.073016 
L 300.898778 530.073016 
z
" style="fill:#ff7f0e;"/>
   </g>
   <g id="patch_77">
    <path clip-path="url(#p095c2c888a)" d="M 318.937444 603.16 
L 321.943889 603.16 
L 321.943889 566.616508 
L 318.937444 566.616508 
z
" style="fill:#ff7f0e;"/>
   </g>
   <g id="patch_78">
    <path clip-path="url(#p095c2c888a)" d="M 336.976111 603.16 
L 339.982556 603.16 
L 339.982556 603.16 
L 336.976111 603.16 
z
" style="fill:#ff7f0e;"/>
   </g>
   <g id="patch_79">
    <path clip-path="url(#p095c2c888a)" d="M 355.014778 603.16 
L 358.021222 603.16 
L 358.021222 603.16 
L 355.014778 603.16 
z
" style="fill:#ff7f0e;"/>
   </g>
   <g id="patch_80">
    <path clip-path="url(#p095c2c888a)" d="M 373.053444 603.16 
L 376.059889 603.16 
L 376.059889 603.16 
L 373.053444 603.16 
z
" style="fill:#ff7f0e;"/>
   </g>
   <g id="patch_81">
    <path clip-path="url(#p095c2c888a)" d="M 391.092111 603.16 
L 394.098556 603.16 
L 394.098556 603.16 
L 391.092111 603.16 
z
" style="fill:#ff7f0e;"/>
   </g>
   <g id="patch_82">
    <path clip-path="url(#p095c2c888a)" d="M 409.130778 603.16 
L 412.137222 603.16 
L 412.137222 603.16 
L 409.130778 603.16 
z
" style="fill:#ff7f0e;"/>
   </g>
   <g id="patch_83">
    <path clip-path="url(#p095c2c888a)" d="M 427.169444 603.16 
L 430.175889 603.16 
L 430.175889 603.16 
L 427.169444 603.16 
z
" style="fill:#ff7f0e;"/>
   </g>
   <g id="patch_84">
    <path clip-path="url(#p095c2c888a)" d="M 445.208111 603.16 
L 448.214556 603.16 
L 448.214556 603.16 
L 445.208111 603.16 
z
" style="fill:#ff7f0e;"/>
   </g>
   <g id="patch_85">
    <path clip-path="url(#p095c2c888a)" d="M 463.246778 603.16 
L 466.253222 603.16 
L 466.253222 603.16 
L 463.246778 603.16 
z
" style="fill:#ff7f0e;"/>
   </g>
   <g id="patch_86">
    <path clip-path="url(#p095c2c888a)" d="M 481.285444 603.16 
L 484.291889 603.16 
L 484.291889 603.16 
L 481.285444 603.16 
z
" style="fill:#ff7f0e;"/>
   </g>
   <g id="patch_87">
    <path clip-path="url(#p095c2c888a)" d="M 499.324111 603.16 
L 502.330556 603.16 
L 502.330556 603.16 
L 499.324111 603.16 
z
" style="fill:#ff7f0e;"/>
   </g>
   <g id="patch_88">
    <path clip-path="url(#p095c2c888a)" d="M 517.362778 603.16 
L 520.369222 603.16 
L 520.369222 603.16 
L 517.362778 603.16 
z
" style="fill:#ff7f0e;"/>
   </g>
   <g id="patch_89">
    <path clip-path="url(#p095c2c888a)" d="M 535.401444 603.16 
L 538.407889 603.16 
L 538.407889 603.16 
L 535.401444 603.16 
z
" style="fill:#ff7f0e;"/>
   </g>
   <g id="patch_90">
    <path clip-path="url(#p095c2c888a)" d="M 553.440111 603.16 
L 556.446556 603.16 
L 556.446556 603.16 
L 553.440111 603.16 
z
" style="fill:#ff7f0e;"/>
   </g>
   <g id="patch_91">
    <path clip-path="url(#p095c2c888a)" d="M 571.478778 603.16 
L 574.485222 603.16 
L 574.485222 603.16 
L 571.478778 603.16 
z
" style="fill:#ff7f0e;"/>
   </g>
   <g id="patch_92">
    <path clip-path="url(#p095c2c888a)" d="M 589.517444 603.16 
L 592.523889 603.16 
L 592.523889 603.16 
L 589.517444 603.16 
z
" style="fill:#ff7f0e;"/>
   </g>
   <g id="patch_93">
    <path clip-path="url(#p095c2c888a)" d="M 607.556111 603.16 
L 610.562556 603.16 
L 610.562556 603.16 
L 607.556111 603.16 
z
" style="fill:#ff7f0e;"/>
   </g>
   <g id="patch_94">
    <path clip-path="url(#p095c2c888a)" d="M 625.594778 603.16 
L 628.601222 603.16 
L 628.601222 603.16 
L 625.594778 603.16 
z
" style="fill:#ff7f0e;"/>
   </g>
   <g id="patch_95">
    <path clip-path="url(#p095c2c888a)" d="M 643.633444 603.16 
L 646.639889 603.16 
L 646.639889 603.16 
L 643.633444 603.16 
z
" style="fill:#ff7f0e;"/>
   </g>
   <g id="patch_96">
    <path clip-path="url(#p095c2c888a)" d="M 661.672111 603.16 
L 664.678556 603.16 
L 664.678556 603.16 
L 661.672111 603.16 
z
" style="fill:#ff7f0e;"/>
   </g>
   <g id="patch_97">
    <path clip-path="url(#p095c2c888a)" d="M 679.710778 603.16 
L 682.717222 603.16 
L 682.717222 603.16 
L 679.710778 603.16 
z
" style="fill:#ff7f0e;"/>
   </g>
   <g id="patch_98">
    <path clip-path="url(#p095c2c888a)" d="M 697.749444 603.16 
L 700.755889 603.16 
L 700.755889 603.16 
L 697.749444 603.16 
z
" style="fill:#ff7f0e;"/>
   </g>
   <g id="patch_99">
    <path clip-path="url(#p095c2c888a)" d="M 715.788111 603.16 
L 718.794556 603.16 
L 718.794556 603.16 
L 715.788111 603.16 
z
" style="fill:#ff7f0e;"/>
   </g>
   <g id="patch_100">
    <path clip-path="url(#p095c2c888a)" d="M 733.826778 603.16 
L 736.833222 603.16 
L 736.833222 603.16 
L 733.826778 603.16 
z
" style="fill:#ff7f0e;"/>
   </g>
   <g id="patch_101">
    <path clip-path="url(#p095c2c888a)" d="M 751.865444 603.16 
L 754.871889 603.16 
L 754.871889 603.16 
L 751.865444 603.16 
z
" style="fill:#ff7f0e;"/>
   </g>
   <g id="patch_102">
    <path clip-path="url(#p095c2c888a)" d="M 769.904111 603.16 
L 772.910556 603.16 
L 772.910556 603.16 
L 769.904111 603.16 
z
" style="fill:#ff7f0e;"/>
   </g>
   <g id="patch_103">
    <path clip-path="url(#p095c2c888a)" d="M 787.942778 603.16 
L 790.949222 603.16 
L 790.949222 603.16 
L 787.942778 603.16 
z
" style="fill:#ff7f0e;"/>
   </g>
   <g id="patch_104">
    <path clip-path="url(#p095c2c888a)" d="M 805.981444 603.16 
L 808.987889 603.16 
L 808.987889 603.16 
L 805.981444 603.16 
z
" style="fill:#ff7f0e;"/>
   </g>
   <g id="patch_105">
    <path clip-path="url(#p095c2c888a)" d="M 824.020111 603.16 
L 827.026556 603.16 
L 827.026556 603.16 
L 824.020111 603.16 
z
" style="fill:#ff7f0e;"/>
   </g>
   <g id="patch_106">
    <path clip-path="url(#p095c2c888a)" d="M 842.058778 603.16 
L 845.065222 603.16 
L 845.065222 603.16 
L 842.058778 603.16 
z
" style="fill:#ff7f0e;"/>
   </g>
   <g id="patch_107">
    <path clip-path="url(#p095c2c888a)" d="M 860.097444 603.16 
L 863.103889 603.16 
L 863.103889 603.16 
L 860.097444 603.16 
z
" style="fill:#ff7f0e;"/>
   </g>
   <g id="patch_108">
    <path clip-path="url(#p095c2c888a)" d="M 878.136111 603.16 
L 881.142556 603.16 
L 881.142556 603.16 
L 878.136111 603.16 
z
" style="fill:#ff7f0e;"/>
   </g>
   <g id="patch_109">
    <path clip-path="url(#p095c2c888a)" d="M 896.174778 603.16 
L 899.181222 603.16 
L 899.181222 603.16 
L 896.174778 603.16 
z
" style="fill:#ff7f0e;"/>
   </g>
   <g id="patch_110">
    <path clip-path="url(#p095c2c888a)" d="M 914.213444 603.16 
L 917.219889 603.16 
L 917.219889 603.16 
L 914.213444 603.16 
z
" style="fill:#ff7f0e;"/>
   </g>
   <g id="patch_111">
    <path clip-path="url(#p095c2c888a)" d="M 932.252111 603.16 
L 935.258556 603.16 
L 935.258556 603.16 
L 932.252111 603.16 
z
" style="fill:#ff7f0e;"/>
   </g>
   <g id="patch_112">
    <path clip-path="url(#p095c2c888a)" d="M 950.290778 603.16 
L 953.297222 603.16 
L 953.297222 603.16 
L 950.290778 603.16 
z
" style="fill:#ff7f0e;"/>
   </g>
   <g id="patch_113">
    <path clip-path="url(#p095c2c888a)" d="M 968.329444 603.16 
L 971.335889 603.16 
L 971.335889 603.16 
L 968.329444 603.16 
z
" style="fill:#ff7f0e;"/>
   </g>
   <g id="patch_114">
    <path clip-path="url(#p095c2c888a)" d="M 986.368111 603.16 
L 989.374556 603.16 
L 989.374556 603.16 
L 986.368111 603.16 
z
" style="fill:#ff7f0e;"/>
   </g>
   <g id="patch_115">
    <path clip-path="url(#p095c2c888a)" d="M 1004.406778 603.16 
L 1007.413222 603.16 
L 1007.413222 603.16 
L 1004.406778 603.16 
z
" style="fill:#ff7f0e;"/>
   </g>
   <g id="patch_116">
    <path clip-path="url(#p095c2c888a)" d="M 1022.445444 603.16 
L 1025.451889 603.16 
L 1025.451889 603.16 
L 1022.445444 603.16 
z
" style="fill:#ff7f0e;"/>
   </g>
   <g id="patch_117">
    <path clip-path="url(#p095c2c888a)" d="M 1040.484111 603.16 
L 1043.490556 603.16 
L 1043.490556 603.16 
L 1040.484111 603.16 
z
" style="fill:#ff7f0e;"/>
   </g>
   <g id="patch_118">
    <path clip-path="url(#p095c2c888a)" d="M 1058.522778 603.16 
L 1061.529222 603.16 
L 1061.529222 603.16 
L 1058.522778 603.16 
z
" style="fill:#ff7f0e;"/>
   </g>
   <g id="patch_119">
    <path clip-path="url(#p095c2c888a)" d="M 1076.561444 603.16 
L 1079.567889 603.16 
L 1079.567889 603.16 
L 1076.561444 603.16 
z
" style="fill:#ff7f0e;"/>
   </g>
   <g id="patch_120">
    <path clip-path="url(#p095c2c888a)" d="M 1094.600111 603.16 
L 1097.606556 603.16 
L 1097.606556 603.16 
L 1094.600111 603.16 
z
" style="fill:#ff7f0e;"/>
   </g>
   <g id="patch_121">
    <path clip-path="url(#p095c2c888a)" d="M 1112.638778 603.16 
L 1115.645222 603.16 
L 1115.645222 603.16 
L 1112.638778 603.16 
z
" style="fill:#ff7f0e;"/>
   </g>
   <g id="patch_122">
    <path clip-path="url(#p095c2c888a)" d="M 1130.677444 603.16 
L 1133.683889 603.16 
L 1133.683889 603.16 
L 1130.677444 603.16 
z
" style="fill:#ff7f0e;"/>
   </g>
   <g id="patch_123">
    <path clip-path="url(#p095c2c888a)" d="M 69.402556 603.16 
L 72.409 603.16 
L 72.409 55.007619 
L 69.402556 55.007619 
z
" style="fill:#2ca02c;"/>
   </g>
   <g id="patch_124">
    <path clip-path="url(#p095c2c888a)" d="M 87.441222 603.16 
L 90.447667 603.16 
L 90.447667 123.526667 
L 87.441222 123.526667 
z
" style="fill:#2ca02c;"/>
   </g>
   <g id="patch_125">
    <path clip-path="url(#p095c2c888a)" d="M 105.479889 603.16 
L 108.486333 603.16 
L 108.486333 183.480833 
L 105.479889 183.480833 
z
" style="fill:#2ca02c;"/>
   </g>
   <g id="patch_126">
    <path clip-path="url(#p095c2c888a)" d="M 123.518556 603.16 
L 126.525 603.16 
L 126.525 235.940729 
L 123.518556 235.940729 
z
" style="fill:#2ca02c;"/>
   </g>
   <g id="patch_127">
    <path clip-path="url(#p095c2c888a)" d="M 141.557222 603.16 
L 144.563667 603.16 
L 144.563667 281.843138 
L 141.557222 281.843138 
z
" style="fill:#2ca02c;"/>
   </g>
   <g id="patch_128">
    <path clip-path="url(#p095c2c888a)" d="M 159.595889 603.16 
L 162.602333 603.16 
L 162.602333 322.007746 
L 159.595889 322.007746 
z
" style="fill:#2ca02c;"/>
   </g>
   <g id="patch_129">
    <path clip-path="url(#p095c2c888a)" d="M 177.634556 603.16 
L 180.641 603.16 
L 180.641 357.151778 
L 177.634556 357.151778 
z
" style="fill:#2ca02c;"/>
   </g>
   <g id="patch_130">
    <path clip-path="url(#p095c2c888a)" d="M 195.673222 603.16 
L 198.679667 603.16 
L 198.679667 387.902805 
L 195.673222 387.902805 
z
" style="fill:#2ca02c;"/>
   </g>
   <g id="patch_131">
    <path clip-path="url(#p095c2c888a)" d="M 213.711889 603.16 
L 216.718333 603.16 
L 216.718333 414.809955 
L 213.711889 414.809955 
z
" style="fill:#2ca02c;"/>
   </g>
   <g id="patch_132">
    <path clip-path="url(#p095c2c888a)" d="M 231.750556 603.16 
L 234.757 603.16 
L 234.757 438.35371 
L 231.750556 438.35371 
z
" style="fill:#2ca02c;"/>
   </g>
   <g id="patch_133">
    <path clip-path="url(#p095c2c888a)" d="M 249.789222 603.16 
L 252.795667 603.16 
L 252.795667 458.954497 
L 249.789222 458.954497 
z
" style="fill:#2ca02c;"/>
   </g>
   <g id="patch_134">
    <path clip-path="url(#p095c2c888a)" d="M 267.827889 603.16 
L 270.834333 603.16 
L 270.834333 476.980184 
L 267.827889 476.980184 
z
" style="fill:#2ca02c;"/>
   </g>
   <g id="patch_135">
    <path clip-path="url(#p095c2c888a)" d="M 285.866556 603.16 
L 288.873 603.16 
L 288.873 492.752661 
L 285.866556 492.752661 
z
" style="fill:#2ca02c;"/>
   </g>
   <g id="patch_136">
    <path clip-path="url(#p095c2c888a)" d="M 303.905222 603.16 
L 306.911667 603.16 
L 306.911667 506.553579 
L 303.905222 506.553579 
z
" style="fill:#2ca02c;"/>
   </g>
   <g id="patch_137">
    <path clip-path="url(#p095c2c888a)" d="M 321.943889 603.16 
L 324.950333 603.16 
L 324.950333 518.629381 
L 321.943889 518.629381 
z
" style="fill:#2ca02c;"/>
   </g>
   <g id="patch_138">
    <path clip-path="url(#p095c2c888a)" d="M 339.982556 603.16 
L 342.989 603.16 
L 342.989 529.195709 
L 339.982556 529.195709 
z
" style="fill:#2ca02c;"/>
   </g>
   <g id="patch_139">
    <path clip-path="url(#p095c2c888a)" d="M 358.021222 603.16 
L 361.027667 603.16 
L 361.027667 538.441245 
L 358.021222 538.441245 
z
" style="fill:#2ca02c;"/>
   </g>
   <g id="patch_140">
    <path clip-path="url(#p095c2c888a)" d="M 376.059889 603.16 
L 379.066333 603.16 
L 379.066333 546.531089 
L 376.059889 546.531089 
z
" style="fill:#2ca02c;"/>
   </g>
   <g id="patch_141">
    <path clip-path="url(#p095c2c888a)" d="M 394.098556 603.16 
L 397.105 603.16 
L 397.105 553.609703 
L 394.098556 553.609703 
z
" style="fill:#2ca02c;"/>
   </g>
   <g id="patch_142">
    <path clip-path="url(#p095c2c888a)" d="M 412.137222 603.16 
L 415.143667 603.16 
L 415.143667 559.80349 
L 412.137222 559.80349 
z
" style="fill:#2ca02c;"/>
   </g>
   <g id="patch_143">
    <path clip-path="url(#p095c2c888a)" d="M 430.175889 603.16 
L 433.182333 603.16 
L 433.182333 565.223054 
L 430.175889 565.223054 
z
" style="fill:#2ca02c;"/>
   </g>
   <g id="patch_144">
    <path clip-path="url(#p095c2c888a)" d="M 448.214556 603.16 
L 451.221 603.16 
L 451.221 569.965172 
L 448.214556 569.965172 
z
" style="fill:#2ca02c;"/>
   </g>
   <g id="patch_145">
    <path clip-path="url(#p095c2c888a)" d="M 466.253222 603.16 
L 469.259667 603.16 
L 469.259667 574.114526 
L 466.253222 574.114526 
z
" style="fill:#2ca02c;"/>
   </g>
   <g id="patch_146">
    <path clip-path="url(#p095c2c888a)" d="M 484.291889 603.16 
L 487.298333 603.16 
L 487.298333 577.74521 
L 484.291889 577.74521 
z
" style="fill:#2ca02c;"/>
   </g>
   <g id="patch_147">
    <path clip-path="url(#p095c2c888a)" d="M 502.330556 603.16 
L 505.337 603.16 
L 505.337 580.922059 
L 502.330556 580.922059 
z
" style="fill:#2ca02c;"/>
   </g>
   <g id="patch_148">
    <path clip-path="url(#p095c2c888a)" d="M 520.369222 603.16 
L 523.375667 603.16 
L 523.375667 583.701801 
L 520.369222 583.701801 
z
" style="fill:#2ca02c;"/>
   </g>
   <g id="patch_149">
    <path clip-path="url(#p095c2c888a)" d="M 538.407889 603.16 
L 541.414333 603.16 
L 541.414333 586.134076 
L 538.407889 586.134076 
z
" style="fill:#2ca02c;"/>
   </g>
   <g id="patch_150">
    <path clip-path="url(#p095c2c888a)" d="M 556.446556 603.16 
L 559.453 603.16 
L 559.453 588.262317 
L 556.446556 588.262317 
z
" style="fill:#2ca02c;"/>
   </g>
   <g id="patch_151">
    <path clip-path="url(#p095c2c888a)" d="M 574.485222 603.16 
L 577.491667 603.16 
L 577.491667 590.124527 
L 574.485222 590.124527 
z
" style="fill:#2ca02c;"/>
   </g>
   <g id="patch_152">
    <path clip-path="url(#p095c2c888a)" d="M 592.523889 603.16 
L 595.530333 603.16 
L 595.530333 591.753961 
L 592.523889 591.753961 
z
" style="fill:#2ca02c;"/>
   </g>
   <g id="patch_153">
    <path clip-path="url(#p095c2c888a)" d="M 610.562556 603.16 
L 613.569 603.16 
L 613.569 593.179716 
L 610.562556 593.179716 
z
" style="fill:#2ca02c;"/>
   </g>
   <g id="patch_154">
    <path clip-path="url(#p095c2c888a)" d="M 628.601222 603.16 
L 631.607667 603.16 
L 631.607667 594.427252 
L 628.601222 594.427252 
z
" style="fill:#2ca02c;"/>
   </g>
   <g id="patch_155">
    <path clip-path="url(#p095c2c888a)" d="M 646.639889 603.16 
L 649.646333 603.16 
L 649.646333 595.518845 
L 646.639889 595.518845 
z
" style="fill:#2ca02c;"/>
   </g>
   <g id="patch_156">
    <path clip-path="url(#p095c2c888a)" d="M 664.678556 603.16 
L 667.685 603.16 
L 667.685 596.473989 
L 664.678556 596.473989 
z
" style="fill:#2ca02c;"/>
   </g>
   <g id="patch_157">
    <path clip-path="url(#p095c2c888a)" d="M 682.717222 603.16 
L 685.723667 603.16 
L 685.723667 597.309741 
L 682.717222 597.309741 
z
" style="fill:#2ca02c;"/>
   </g>
   <g id="patch_158">
    <path clip-path="url(#p095c2c888a)" d="M 700.755889 603.16 
L 703.762333 603.16 
L 703.762333 598.041023 
L 700.755889 598.041023 
z
" style="fill:#2ca02c;"/>
   </g>
   <g id="patch_159">
    <path clip-path="url(#p095c2c888a)" d="M 718.794556 603.16 
L 721.801 603.16 
L 721.801 598.680895 
L 718.794556 598.680895 
z
" style="fill:#2ca02c;"/>
   </g>
   <g id="patch_160">
    <path clip-path="url(#p095c2c888a)" d="M 736.833222 603.16 
L 739.839667 603.16 
L 739.839667 599.240783 
L 736.833222 599.240783 
z
" style="fill:#2ca02c;"/>
   </g>
   <g id="patch_161">
    <path clip-path="url(#p095c2c888a)" d="M 754.871889 603.16 
L 757.878333 603.16 
L 757.878333 599.730685 
L 754.871889 599.730685 
z
" style="fill:#2ca02c;"/>
   </g>
   <g id="patch_162">
    <path clip-path="url(#p095c2c888a)" d="M 772.910556 603.16 
L 775.917 603.16 
L 775.917 600.15935 
L 772.910556 600.15935 
z
" style="fill:#2ca02c;"/>
   </g>
   <g id="patch_163">
    <path clip-path="url(#p095c2c888a)" d="M 790.949222 603.16 
L 793.955667 603.16 
L 793.955667 600.534431 
L 790.949222 600.534431 
z
" style="fill:#2ca02c;"/>
   </g>
   <g id="patch_164">
    <path clip-path="url(#p095c2c888a)" d="M 808.987889 603.16 
L 811.994333 603.16 
L 811.994333 600.862627 
L 808.987889 600.862627 
z
" style="fill:#2ca02c;"/>
   </g>
   <g id="patch_165">
    <path clip-path="url(#p095c2c888a)" d="M 827.026556 603.16 
L 830.033 603.16 
L 830.033 601.149799 
L 827.026556 601.149799 
z
" style="fill:#2ca02c;"/>
   </g>
   <g id="patch_166">
    <path clip-path="url(#p095c2c888a)" d="M 845.065222 603.16 
L 848.071667 603.16 
L 848.071667 601.401074 
L 845.065222 601.401074 
z
" style="fill:#2ca02c;"/>
   </g>
   <g id="patch_167">
    <path clip-path="url(#p095c2c888a)" d="M 863.103889 603.16 
L 866.110333 603.16 
L 866.110333 601.62094 
L 863.103889 601.62094 
z
" style="fill:#2ca02c;"/>
   </g>
   <g id="patch_168">
    <path clip-path="url(#p095c2c888a)" d="M 881.142556 603.16 
L 884.149 603.16 
L 884.149 601.813322 
L 881.142556 601.813322 
z
" style="fill:#2ca02c;"/>
   </g>
   <g id="patch_169">
    <path clip-path="url(#p095c2c888a)" d="M 899.181222 603.16 
L 902.187667 603.16 
L 902.187667 601.981657 
L 899.181222 601.981657 
z
" style="fill:#2ca02c;"/>
   </g>
   <g id="patch_170">
    <path clip-path="url(#p095c2c888a)" d="M 917.219889 603.16 
L 920.226333 603.16 
L 920.226333 602.12895 
L 917.219889 602.12895 
z
" style="fill:#2ca02c;"/>
   </g>
   <g id="patch_171">
    <path clip-path="url(#p095c2c888a)" d="M 935.258556 603.16 
L 938.265 603.16 
L 938.265 602.257831 
L 935.258556 602.257831 
z
" style="fill:#2ca02c;"/>
   </g>
   <g id="patch_172">
    <path clip-path="url(#p095c2c888a)" d="M 953.297222 603.16 
L 956.303667 603.16 
L 956.303667 602.370602 
L 953.297222 602.370602 
z
" style="fill:#2ca02c;"/>
   </g>
   <g id="patch_173">
    <path clip-path="url(#p095c2c888a)" d="M 971.335889 603.16 
L 974.342333 603.16 
L 974.342333 602.469277 
L 971.335889 602.469277 
z
" style="fill:#2ca02c;"/>
   </g>
   <g id="patch_174">
    <path clip-path="url(#p095c2c888a)" d="M 989.374556 603.16 
L 992.381 603.16 
L 992.381 602.555617 
L 989.374556 602.555617 
z
" style="fill:#2ca02c;"/>
   </g>
   <g id="patch_175">
    <path clip-path="url(#p095c2c888a)" d="M 1007.413222 603.16 
L 1010.419667 603.16 
L 1010.419667 602.631165 
L 1007.413222 602.631165 
z
" style="fill:#2ca02c;"/>
   </g>
   <g id="patch_176">
    <path clip-path="url(#p095c2c888a)" d="M 1025.451889 603.16 
L 1028.458333 603.16 
L 1028.458333 602.69727 
L 1025.451889 602.69727 
z
" style="fill:#2ca02c;"/>
   </g>
   <g id="patch_177">
    <path clip-path="url(#p095c2c888a)" d="M 1043.490556 603.16 
L 1046.497 603.16 
L 1046.497 602.755111 
L 1043.490556 602.755111 
z
" style="fill:#2ca02c;"/>
   </g>
   <g id="patch_178">
    <path clip-path="url(#p095c2c888a)" d="M 1061.529222 603.16 
L 1064.535667 603.16 
L 1064.535667 602.805722 
L 1061.529222 602.805722 
z
" style="fill:#2ca02c;"/>
   </g>
   <g id="patch_179">
    <path clip-path="url(#p095c2c888a)" d="M 1079.567889 603.16 
L 1082.574333 603.16 
L 1082.574333 602.850007 
L 1079.567889 602.850007 
z
" style="fill:#2ca02c;"/>
   </g>
   <g id="patch_180">
    <path clip-path="url(#p095c2c888a)" d="M 1097.606556 603.16 
L 1100.613 603.16 
L 1100.613 602.888756 
L 1097.606556 602.888756 
z
" style="fill:#2ca02c;"/>
   </g>
   <g id="patch_181">
    <path clip-path="url(#p095c2c888a)" d="M 1115.645222 603.16 
L 1118.651667 603.16 
L 1118.651667 602.922661 
L 1115.645222 602.922661 
z
" style="fill:#2ca02c;"/>
   </g>
   <g id="patch_182">
    <path clip-path="url(#p095c2c888a)" d="M 1133.683889 603.16 
L 1136.690333 603.16 
L 1136.690333 602.952329 
L 1133.683889 602.952329 
z
" style="fill:#2ca02c;"/>
   </g>
   <g id="matplotlib.axis_1">
    <g id="xtick_1">
     <g id="line2d_1">
      <defs>
       <path d="M 0 0 
L 0 3.5 
" id="m8df4c46d95" style="stroke:#000000;stroke-width:0.8;"/>
      </defs>
      <g>
       <use style="stroke:#000000;stroke-width:0.8;" x="67.899333" xlink:href="#m8df4c46d95" y="603.16"/>
      </g>
     </g>
     <g id="text_1">
      <!-- 0 -->
      <g transform="translate(64.889177 617.811563)scale(0.1 -0.1)">
       <defs>
        <path d="M 1509 2344 
Q 1509 2516 1629 2641 
Q 1750 2766 1919 2766 
Q 2094 2766 2219 2641 
Q 2344 2516 2344 2344 
Q 2344 2169 2220 2047 
Q 2097 1925 1919 1925 
Q 1744 1925 1626 2044 
Q 1509 2163 1509 2344 
z
M 1925 4250 
Q 1484 4250 1267 3775 
Q 1050 3300 1050 2328 
Q 1050 1359 1267 884 
Q 1484 409 1925 409 
Q 2369 409 2586 884 
Q 2803 1359 2803 2328 
Q 2803 3300 2586 3775 
Q 2369 4250 1925 4250 
z
M 1925 4750 
Q 2672 4750 3055 4137 
Q 3438 3525 3438 2328 
Q 3438 1134 3055 521 
Q 2672 -91 1925 -91 
Q 1178 -91 797 521 
Q 416 1134 416 2328 
Q 416 3525 797 4137 
Q 1178 4750 1925 4750 
z
" id="DejaVuSansMono-30" transform="scale(0.015625)"/>
       </defs>
       <use xlink:href="#DejaVuSansMono-30"/>
      </g>
     </g>
    </g>
    <g id="xtick_2">
     <g id="line2d_2">
      <g>
       <use style="stroke:#000000;stroke-width:0.8;" x="158.092667" xlink:href="#m8df4c46d95" y="603.16"/>
      </g>
     </g>
     <g id="text_2">
      <!-- 5 -->
      <g transform="translate(155.08251 617.811563)scale(0.1 -0.1)">
       <defs>
        <path d="M 647 4666 
L 3009 4666 
L 3009 4134 
L 1222 4134 
L 1222 2988 
Q 1356 3038 1492 3061 
Q 1628 3084 1766 3084 
Q 2491 3084 2916 2656 
Q 3341 2228 3341 1497 
Q 3341 759 2895 334 
Q 2450 -91 1678 -91 
Q 1306 -91 998 -41 
Q 691 9 447 109 
L 447 750 
Q 734 594 1025 517 
Q 1316 441 1619 441 
Q 2141 441 2423 716 
Q 2706 991 2706 1497 
Q 2706 1997 2414 2275 
Q 2122 2553 1600 2553 
Q 1347 2553 1106 2495 
Q 866 2438 647 2322 
L 647 4666 
z
" id="DejaVuSansMono-35" transform="scale(0.015625)"/>
       </defs>
       <use xlink:href="#DejaVuSansMono-35"/>
      </g>
     </g>
    </g>
    <g id="xtick_3">
     <g id="line2d_3">
      <g>
       <use style="stroke:#000000;stroke-width:0.8;" x="248.286" xlink:href="#m8df4c46d95" y="603.16"/>
      </g>
     </g>
     <g id="text_3">
      <!-- 10 -->
      <g transform="translate(242.265688 617.811563)scale(0.1 -0.1)">
       <defs>
        <path d="M 844 531 
L 1825 531 
L 1825 4097 
L 769 3859 
L 769 4434 
L 1819 4666 
L 2450 4666 
L 2450 531 
L 3419 531 
L 3419 0 
L 844 0 
L 844 531 
z
" id="DejaVuSansMono-31" transform="scale(0.015625)"/>
       </defs>
       <use xlink:href="#DejaVuSansMono-31"/>
       <use x="60.205078" xlink:href="#DejaVuSansMono-30"/>
      </g>
     </g>
    </g>
    <g id="xtick_4">
     <g id="line2d_4">
      <g>
       <use style="stroke:#000000;stroke-width:0.8;" x="338.479333" xlink:href="#m8df4c46d95" y="603.16"/>
      </g>
     </g>
     <g id="text_4">
      <!-- 15 -->
      <g transform="translate(332.459021 617.811563)scale(0.1 -0.1)">
       <use xlink:href="#DejaVuSansMono-31"/>
       <use x="60.205078" xlink:href="#DejaVuSansMono-35"/>
      </g>
     </g>
    </g>
    <g id="xtick_5">
     <g id="line2d_5">
      <g>
       <use style="stroke:#000000;stroke-width:0.8;" x="428.672667" xlink:href="#m8df4c46d95" y="603.16"/>
      </g>
     </g>
     <g id="text_5">
      <!-- 20 -->
      <g transform="translate(422.652354 617.811563)scale(0.1 -0.1)">
       <defs>
        <path d="M 1166 531 
L 3309 531 
L 3309 0 
L 475 0 
L 475 531 
Q 1059 1147 1496 1619 
Q 1934 2091 2100 2284 
Q 2413 2666 2522 2902 
Q 2631 3138 2631 3384 
Q 2631 3775 2401 3997 
Q 2172 4219 1772 4219 
Q 1488 4219 1175 4116 
Q 863 4013 513 3803 
L 513 4441 
Q 834 4594 1145 4672 
Q 1456 4750 1759 4750 
Q 2444 4750 2861 4386 
Q 3278 4022 3278 3431 
Q 3278 3131 3139 2831 
Q 3000 2531 2688 2169 
Q 2513 1966 2180 1606 
Q 1847 1247 1166 531 
z
" id="DejaVuSansMono-32" transform="scale(0.015625)"/>
       </defs>
       <use xlink:href="#DejaVuSansMono-32"/>
       <use x="60.205078" xlink:href="#DejaVuSansMono-30"/>
      </g>
     </g>
    </g>
    <g id="xtick_6">
     <g id="line2d_6">
      <g>
       <use style="stroke:#000000;stroke-width:0.8;" x="518.866" xlink:href="#m8df4c46d95" y="603.16"/>
      </g>
     </g>
     <g id="text_6">
      <!-- 25 -->
      <g transform="translate(512.845687 617.811563)scale(0.1 -0.1)">
       <use xlink:href="#DejaVuSansMono-32"/>
       <use x="60.205078" xlink:href="#DejaVuSansMono-35"/>
      </g>
     </g>
    </g>
    <g id="xtick_7">
     <g id="line2d_7">
      <g>
       <use style="stroke:#000000;stroke-width:0.8;" x="609.059333" xlink:href="#m8df4c46d95" y="603.16"/>
      </g>
     </g>
     <g id="text_7">
      <!-- 30 -->
      <g transform="translate(603.039021 617.811563)scale(0.1 -0.1)">
       <defs>
        <path d="M 2425 2497 
Q 2884 2375 3128 2064 
Q 3372 1753 3372 1288 
Q 3372 644 2939 276 
Q 2506 -91 1741 -91 
Q 1419 -91 1084 -31 
Q 750 28 428 141 
L 428 769 
Q 747 603 1056 522 
Q 1366 441 1672 441 
Q 2191 441 2469 675 
Q 2747 909 2747 1350 
Q 2747 1756 2469 1995 
Q 2191 2234 1716 2234 
L 1234 2234 
L 1234 2753 
L 1716 2753 
Q 2150 2753 2394 2943 
Q 2638 3134 2638 3475 
Q 2638 3834 2411 4026 
Q 2184 4219 1766 4219 
Q 1488 4219 1191 4156 
Q 894 4094 569 3969 
L 569 4550 
Q 947 4650 1242 4700 
Q 1538 4750 1766 4750 
Q 2447 4750 2855 4408 
Q 3263 4066 3263 3500 
Q 3263 3116 3048 2859 
Q 2834 2603 2425 2497 
z
" id="DejaVuSansMono-33" transform="scale(0.015625)"/>
       </defs>
       <use xlink:href="#DejaVuSansMono-33"/>
       <use x="60.205078" xlink:href="#DejaVuSansMono-30"/>
      </g>
     </g>
    </g>
    <g id="xtick_8">
     <g id="line2d_8">
      <g>
       <use style="stroke:#000000;stroke-width:0.8;" x="699.252667" xlink:href="#m8df4c46d95" y="603.16"/>
      </g>
     </g>
     <g id="text_8">
      <!-- 35 -->
      <g transform="translate(693.232354 617.811563)scale(0.1 -0.1)">
       <use xlink:href="#DejaVuSansMono-33"/>
       <use x="60.205078" xlink:href="#DejaVuSansMono-35"/>
      </g>
     </g>
    </g>
    <g id="xtick_9">
     <g id="line2d_9">
      <g>
       <use style="stroke:#000000;stroke-width:0.8;" x="789.446" xlink:href="#m8df4c46d95" y="603.16"/>
      </g>
     </g>
     <g id="text_9">
      <!-- 40 -->
      <g transform="translate(783.425687 617.811563)scale(0.1 -0.1)">
       <defs>
        <path d="M 2297 4091 
L 825 1625 
L 2297 1625 
L 2297 4091 
z
M 2194 4666 
L 2925 4666 
L 2925 1625 
L 3547 1625 
L 3547 1113 
L 2925 1113 
L 2925 0 
L 2297 0 
L 2297 1113 
L 319 1113 
L 319 1709 
L 2194 4666 
z
" id="DejaVuSansMono-34" transform="scale(0.015625)"/>
       </defs>
       <use xlink:href="#DejaVuSansMono-34"/>
       <use x="60.205078" xlink:href="#DejaVuSansMono-30"/>
      </g>
     </g>
    </g>
    <g id="xtick_10">
     <g id="line2d_10">
      <g>
       <use style="stroke:#000000;stroke-width:0.8;" x="879.639333" xlink:href="#m8df4c46d95" y="603.16"/>
      </g>
     </g>
     <g id="text_10">
      <!-- 45 -->
      <g transform="translate(873.619021 617.811563)scale(0.1 -0.1)">
       <use xlink:href="#DejaVuSansMono-34"/>
       <use x="60.205078" xlink:href="#DejaVuSansMono-35"/>
      </g>
     </g>
    </g>
    <g id="xtick_11">
     <g id="line2d_11">
      <g>
       <use style="stroke:#000000;stroke-width:0.8;" x="969.832667" xlink:href="#m8df4c46d95" y="603.16"/>
      </g>
     </g>
     <g id="text_11">
      <!-- 50 -->
      <g transform="translate(963.812354 617.811563)scale(0.1 -0.1)">
       <use xlink:href="#DejaVuSansMono-35"/>
       <use x="60.205078" xlink:href="#DejaVuSansMono-30"/>
      </g>
     </g>
    </g>
    <g id="xtick_12">
     <g id="line2d_12">
      <g>
       <use style="stroke:#000000;stroke-width:0.8;" x="1060.026" xlink:href="#m8df4c46d95" y="603.16"/>
      </g>
     </g>
     <g id="text_12">
      <!-- 55 -->
      <g transform="translate(1054.005688 617.811563)scale(0.1 -0.1)">
       <use xlink:href="#DejaVuSansMono-35"/>
       <use x="60.205078" xlink:href="#DejaVuSansMono-35"/>
      </g>
     </g>
    </g>
    <g id="text_13">
     <!-- n-th Most Recent Smple -->
     <g transform="translate(520.571875 633.073125)scale(0.12 -0.12)">
      <defs>
       <path d="M 3284 2169 
L 3284 0 
L 2706 0 
L 2706 2169 
Q 2706 2641 2540 2862 
Q 2375 3084 2022 3084 
Q 1619 3084 1401 2798 
Q 1184 2513 1184 1978 
L 1184 0 
L 609 0 
L 609 3500 
L 1184 3500 
L 1184 2975 
Q 1338 3275 1600 3429 
Q 1863 3584 2222 3584 
Q 2756 3584 3020 3232 
Q 3284 2881 3284 2169 
z
" id="DejaVuSansMono-6e" transform="scale(0.015625)"/>
       <path d="M 1113 2009 
L 2741 2009 
L 2741 1497 
L 1113 1497 
L 1113 2009 
z
" id="DejaVuSansMono-2d" transform="scale(0.015625)"/>
       <path d="M 1919 4494 
L 1919 3500 
L 3225 3500 
L 3225 3053 
L 1919 3053 
L 1919 1153 
Q 1919 766 2066 612 
Q 2213 459 2578 459 
L 3225 459 
L 3225 0 
L 2522 0 
Q 1875 0 1609 259 
Q 1344 519 1344 1153 
L 1344 3053 
L 409 3053 
L 409 3500 
L 1344 3500 
L 1344 4494 
L 1919 4494 
z
" id="DejaVuSansMono-74" transform="scale(0.015625)"/>
       <path d="M 3284 2169 
L 3284 0 
L 2706 0 
L 2706 2169 
Q 2706 2641 2540 2862 
Q 2375 3084 2022 3084 
Q 1619 3084 1401 2798 
Q 1184 2513 1184 1978 
L 1184 0 
L 609 0 
L 609 4863 
L 1184 4863 
L 1184 2975 
Q 1338 3275 1600 3429 
Q 1863 3584 2222 3584 
Q 2756 3584 3020 3232 
Q 3284 2881 3284 2169 
z
" id="DejaVuSansMono-68" transform="scale(0.015625)"/>
       <path id="DejaVuSansMono-20" transform="scale(0.015625)"/>
       <path d="M 269 4666 
L 1113 4666 
L 1919 2291 
L 2731 4666 
L 3578 4666 
L 3578 0 
L 2994 0 
L 2994 4122 
L 2163 1663 
L 1684 1663 
L 850 4122 
L 850 0 
L 269 0 
L 269 4666 
z
" id="DejaVuSansMono-4d" transform="scale(0.015625)"/>
       <path d="M 1925 3097 
Q 1488 3097 1263 2756 
Q 1038 2416 1038 1747 
Q 1038 1081 1263 739 
Q 1488 397 1925 397 
Q 2366 397 2591 739 
Q 2816 1081 2816 1747 
Q 2816 2416 2591 2756 
Q 2366 3097 1925 3097 
z
M 1925 3584 
Q 2653 3584 3039 3112 
Q 3425 2641 3425 1747 
Q 3425 850 3040 379 
Q 2656 -91 1925 -91 
Q 1197 -91 812 379 
Q 428 850 428 1747 
Q 428 2641 812 3112 
Q 1197 3584 1925 3584 
z
" id="DejaVuSansMono-6f" transform="scale(0.015625)"/>
       <path d="M 3041 3378 
L 3041 2816 
Q 2794 2959 2544 3031 
Q 2294 3103 2034 3103 
Q 1644 3103 1451 2976 
Q 1259 2850 1259 2591 
Q 1259 2356 1403 2240 
Q 1547 2125 2119 2016 
L 2350 1972 
Q 2778 1891 2998 1647 
Q 3219 1403 3219 1013 
Q 3219 494 2850 201 
Q 2481 -91 1825 -91 
Q 1566 -91 1281 -36 
Q 997 19 666 128 
L 666 722 
Q 988 556 1281 473 
Q 1575 391 1838 391 
Q 2219 391 2428 545 
Q 2638 700 2638 978 
Q 2638 1378 1872 1531 
L 1847 1538 
L 1631 1581 
Q 1134 1678 906 1908 
Q 678 2138 678 2534 
Q 678 3038 1018 3311 
Q 1359 3584 1991 3584 
Q 2272 3584 2531 3532 
Q 2791 3481 3041 3378 
z
" id="DejaVuSansMono-73" transform="scale(0.015625)"/>
       <path d="M 2375 2203 
Q 2619 2141 2791 1967 
Q 2963 1794 3219 1275 
L 3853 0 
L 3175 0 
L 2619 1178 
Q 2378 1681 2186 1826 
Q 1994 1972 1684 1972 
L 1081 1972 
L 1081 0 
L 447 0 
L 447 4666 
L 1747 4666 
Q 2516 4666 2925 4319 
Q 3334 3972 3334 3316 
Q 3334 2853 3082 2561 
Q 2831 2269 2375 2203 
z
M 1081 4147 
L 1081 2491 
L 1772 2491 
Q 2225 2491 2447 2694 
Q 2669 2897 2669 3316 
Q 2669 3719 2433 3933 
Q 2197 4147 1747 4147 
L 1081 4147 
z
" id="DejaVuSansMono-52" transform="scale(0.015625)"/>
       <path d="M 3475 1894 
L 3475 1613 
L 984 1613 
L 984 1594 
Q 984 1022 1282 709 
Q 1581 397 2125 397 
Q 2400 397 2700 484 
Q 3000 572 3341 750 
L 3341 178 
Q 3013 44 2708 -23 
Q 2403 -91 2119 -91 
Q 1303 -91 843 398 
Q 384 888 384 1747 
Q 384 2584 834 3084 
Q 1284 3584 2034 3584 
Q 2703 3584 3089 3131 
Q 3475 2678 3475 1894 
z
M 2900 2063 
Q 2888 2569 2661 2833 
Q 2434 3097 2009 3097 
Q 1594 3097 1325 2822 
Q 1056 2547 1006 2059 
L 2900 2063 
z
" id="DejaVuSansMono-65" transform="scale(0.015625)"/>
       <path d="M 3316 178 
Q 3084 44 2839 -23 
Q 2594 -91 2338 -91 
Q 1525 -91 1067 396 
Q 609 884 609 1747 
Q 609 2609 1067 3096 
Q 1525 3584 2338 3584 
Q 2591 3584 2831 3518 
Q 3072 3453 3316 3316 
L 3316 2713 
Q 3088 2916 2858 3006 
Q 2628 3097 2338 3097 
Q 1797 3097 1506 2747 
Q 1216 2397 1216 1747 
Q 1216 1100 1508 748 
Q 1800 397 2338 397 
Q 2638 397 2875 489 
Q 3113 581 3316 775 
L 3316 178 
z
" id="DejaVuSansMono-63" transform="scale(0.015625)"/>
       <path d="M 3163 4506 
L 3163 3866 
Q 2875 4050 2586 4144 
Q 2297 4238 2003 4238 
Q 1556 4238 1297 4030 
Q 1038 3822 1038 3469 
Q 1038 3159 1208 2996 
Q 1378 2834 1844 2725 
L 2175 2650 
Q 2831 2497 3131 2169 
Q 3431 1841 3431 1275 
Q 3431 609 3018 259 
Q 2606 -91 1819 -91 
Q 1491 -91 1159 -20 
Q 828 50 494 191 
L 494 863 
Q 853 634 1173 528 
Q 1494 422 1819 422 
Q 2297 422 2562 636 
Q 2828 850 2828 1234 
Q 2828 1584 2645 1768 
Q 2463 1953 2009 2053 
L 1672 2131 
Q 1022 2278 728 2575 
Q 434 2872 434 3372 
Q 434 3997 854 4373 
Q 1275 4750 1972 4750 
Q 2241 4750 2537 4689 
Q 2834 4628 3163 4506 
z
" id="DejaVuSansMono-53" transform="scale(0.015625)"/>
       <path d="M 2113 3144 
Q 2219 3369 2383 3476 
Q 2547 3584 2778 3584 
Q 3200 3584 3373 3257 
Q 3547 2931 3547 2028 
L 3547 0 
L 3022 0 
L 3022 2003 
Q 3022 2744 2939 2923 
Q 2856 3103 2638 3103 
Q 2388 3103 2295 2911 
Q 2203 2719 2203 2003 
L 2203 0 
L 1678 0 
L 1678 2003 
Q 1678 2753 1589 2928 
Q 1500 3103 1269 3103 
Q 1041 3103 952 2911 
Q 863 2719 863 2003 
L 863 0 
L 341 0 
L 341 3500 
L 863 3500 
L 863 3200 
Q 966 3388 1120 3486 
Q 1275 3584 1472 3584 
Q 1709 3584 1867 3475 
Q 2025 3366 2113 3144 
z
" id="DejaVuSansMono-6d" transform="scale(0.015625)"/>
       <path d="M 1172 441 
L 1172 -1331 
L 594 -1331 
L 594 3500 
L 1172 3500 
L 1172 3053 
Q 1316 3313 1555 3448 
Q 1794 3584 2106 3584 
Q 2741 3584 3102 3093 
Q 3463 2603 3463 1734 
Q 3463 881 3100 395 
Q 2738 -91 2106 -91 
Q 1788 -91 1548 45 
Q 1309 181 1172 441 
z
M 2859 1747 
Q 2859 2416 2648 2756 
Q 2438 3097 2022 3097 
Q 1603 3097 1387 2755 
Q 1172 2413 1172 1747 
Q 1172 1084 1387 740 
Q 1603 397 2022 397 
Q 2438 397 2648 737 
Q 2859 1078 2859 1747 
z
" id="DejaVuSansMono-70" transform="scale(0.015625)"/>
       <path d="M 1997 1269 
Q 1997 881 2139 684 
Q 2281 488 2559 488 
L 3231 488 
L 3231 0 
L 2503 0 
Q 1988 0 1705 331 
Q 1422 663 1422 1269 
L 1422 4447 
L 500 4447 
L 500 4897 
L 1997 4897 
L 1997 1269 
z
" id="DejaVuSansMono-6c" transform="scale(0.015625)"/>
      </defs>
      <use xlink:href="#DejaVuSansMono-6e"/>
      <use x="60.205078" xlink:href="#DejaVuSansMono-2d"/>
      <use x="120.410156" xlink:href="#DejaVuSansMono-74"/>
      <use x="180.615234" xlink:href="#DejaVuSansMono-68"/>
      <use x="240.820312" xlink:href="#DejaVuSansMono-20"/>
      <use x="301.025391" xlink:href="#DejaVuSansMono-4d"/>
      <use x="361.230469" xlink:href="#DejaVuSansMono-6f"/>
      <use x="421.435547" xlink:href="#DejaVuSansMono-73"/>
      <use x="481.640625" xlink:href="#DejaVuSansMono-74"/>
      <use x="541.845703" xlink:href="#DejaVuSansMono-20"/>
      <use x="602.050781" xlink:href="#DejaVuSansMono-52"/>
      <use x="662.255859" xlink:href="#DejaVuSansMono-65"/>
      <use x="722.460938" xlink:href="#DejaVuSansMono-63"/>
      <use x="782.666016" xlink:href="#DejaVuSansMono-65"/>
      <use x="842.871094" xlink:href="#DejaVuSansMono-6e"/>
      <use x="903.076172" xlink:href="#DejaVuSansMono-74"/>
      <use x="963.28125" xlink:href="#DejaVuSansMono-20"/>
      <use x="1023.486328" xlink:href="#DejaVuSansMono-53"/>
      <use x="1083.691406" xlink:href="#DejaVuSansMono-6d"/>
      <use x="1143.896484" xlink:href="#DejaVuSansMono-70"/>
      <use x="1204.101562" xlink:href="#DejaVuSansMono-6c"/>
      <use x="1264.306641" xlink:href="#DejaVuSansMono-65"/>
     </g>
    </g>
   </g>
   <g id="matplotlib.axis_2">
    <g id="ytick_1">
     <g id="line2d_13">
      <defs>
       <path d="M 0 0 
L -3.5 0 
" id="mec279aa6d6" style="stroke:#000000;stroke-width:0.8;"/>
      </defs>
      <g>
       <use style="stroke:#000000;stroke-width:0.8;" x="58.88" xlink:href="#mec279aa6d6" y="603.16"/>
      </g>
     </g>
     <g id="text_14">
      <!-- 0.00 -->
      <g transform="translate(27.79875 606.985781)scale(0.1 -0.1)">
       <defs>
        <path d="M 1528 953 
L 2316 953 
L 2316 0 
L 1528 0 
L 1528 953 
z
" id="DejaVuSansMono-2e" transform="scale(0.015625)"/>
       </defs>
       <use xlink:href="#DejaVuSansMono-30"/>
       <use x="60.205078" xlink:href="#DejaVuSansMono-2e"/>
       <use x="120.410156" xlink:href="#DejaVuSansMono-30"/>
       <use x="180.615234" xlink:href="#DejaVuSansMono-30"/>
      </g>
     </g>
    </g>
    <g id="ytick_2">
     <g id="line2d_14">
      <g>
       <use style="stroke:#000000;stroke-width:0.8;" x="58.88" xlink:href="#mec279aa6d6" y="515.455619"/>
      </g>
     </g>
     <g id="text_15">
      <!-- 0.02 -->
      <g transform="translate(27.79875 519.2814)scale(0.1 -0.1)">
       <use xlink:href="#DejaVuSansMono-30"/>
       <use x="60.205078" xlink:href="#DejaVuSansMono-2e"/>
       <use x="120.410156" xlink:href="#DejaVuSansMono-30"/>
       <use x="180.615234" xlink:href="#DejaVuSansMono-32"/>
      </g>
     </g>
    </g>
    <g id="ytick_3">
     <g id="line2d_15">
      <g>
       <use style="stroke:#000000;stroke-width:0.8;" x="58.88" xlink:href="#mec279aa6d6" y="427.751238"/>
      </g>
     </g>
     <g id="text_16">
      <!-- 0.04 -->
      <g transform="translate(27.79875 431.577019)scale(0.1 -0.1)">
       <use xlink:href="#DejaVuSansMono-30"/>
       <use x="60.205078" xlink:href="#DejaVuSansMono-2e"/>
       <use x="120.410156" xlink:href="#DejaVuSansMono-30"/>
       <use x="180.615234" xlink:href="#DejaVuSansMono-34"/>
      </g>
     </g>
    </g>
    <g id="ytick_4">
     <g id="line2d_16">
      <g>
       <use style="stroke:#000000;stroke-width:0.8;" x="58.88" xlink:href="#mec279aa6d6" y="340.046857"/>
      </g>
     </g>
     <g id="text_17">
      <!-- 0.06 -->
      <g transform="translate(27.79875 343.872638)scale(0.1 -0.1)">
       <defs>
        <path d="M 3097 4563 
L 3097 3981 
Q 2900 4097 2678 4158 
Q 2456 4219 2216 4219 
Q 1616 4219 1306 3767 
Q 997 3316 997 2438 
Q 1147 2750 1412 2917 
Q 1678 3084 2022 3084 
Q 2697 3084 3067 2670 
Q 3438 2256 3438 1497 
Q 3438 741 3056 325 
Q 2675 -91 1984 -91 
Q 1172 -91 794 492 
Q 416 1075 416 2328 
Q 416 3509 870 4129 
Q 1325 4750 2188 4750 
Q 2419 4750 2650 4701 
Q 2881 4653 3097 4563 
z
M 1972 2591 
Q 1569 2591 1337 2300 
Q 1106 2009 1106 1497 
Q 1106 984 1337 693 
Q 1569 403 1972 403 
Q 2391 403 2603 679 
Q 2816 956 2816 1497 
Q 2816 2041 2603 2316 
Q 2391 2591 1972 2591 
z
" id="DejaVuSansMono-36" transform="scale(0.015625)"/>
       </defs>
       <use xlink:href="#DejaVuSansMono-30"/>
       <use x="60.205078" xlink:href="#DejaVuSansMono-2e"/>
       <use x="120.410156" xlink:href="#DejaVuSansMono-30"/>
       <use x="180.615234" xlink:href="#DejaVuSansMono-36"/>
      </g>
     </g>
    </g>
    <g id="ytick_5">
     <g id="line2d_17">
      <g>
       <use style="stroke:#000000;stroke-width:0.8;" x="58.88" xlink:href="#mec279aa6d6" y="252.342476"/>
      </g>
     </g>
     <g id="text_18">
      <!-- 0.08 -->
      <g transform="translate(27.79875 256.168257)scale(0.1 -0.1)">
       <defs>
        <path d="M 1925 2216 
Q 1503 2216 1273 1980 
Q 1044 1744 1044 1313 
Q 1044 881 1276 642 
Q 1509 403 1925 403 
Q 2350 403 2579 639 
Q 2809 875 2809 1313 
Q 2809 1741 2576 1978 
Q 2344 2216 1925 2216 
z
M 1375 2478 
Q 972 2581 745 2862 
Q 519 3144 519 3541 
Q 519 4097 897 4423 
Q 1275 4750 1925 4750 
Q 2578 4750 2956 4423 
Q 3334 4097 3334 3541 
Q 3334 3144 3107 2862 
Q 2881 2581 2478 2478 
Q 2947 2375 3195 2062 
Q 3444 1750 3444 1253 
Q 3444 622 3041 265 
Q 2638 -91 1925 -91 
Q 1213 -91 811 264 
Q 409 619 409 1247 
Q 409 1747 657 2061 
Q 906 2375 1375 2478 
z
M 1147 3481 
Q 1147 3106 1347 2909 
Q 1547 2713 1925 2713 
Q 2306 2713 2506 2909 
Q 2706 3106 2706 3481 
Q 2706 3863 2507 4063 
Q 2309 4263 1925 4263 
Q 1547 4263 1347 4061 
Q 1147 3859 1147 3481 
z
" id="DejaVuSansMono-38" transform="scale(0.015625)"/>
       </defs>
       <use xlink:href="#DejaVuSansMono-30"/>
       <use x="60.205078" xlink:href="#DejaVuSansMono-2e"/>
       <use x="120.410156" xlink:href="#DejaVuSansMono-30"/>
       <use x="180.615234" xlink:href="#DejaVuSansMono-38"/>
      </g>
     </g>
    </g>
    <g id="ytick_6">
     <g id="line2d_18">
      <g>
       <use style="stroke:#000000;stroke-width:0.8;" x="58.88" xlink:href="#mec279aa6d6" y="164.638095"/>
      </g>
     </g>
     <g id="text_19">
      <!-- 0.10 -->
      <g transform="translate(27.79875 168.463876)scale(0.1 -0.1)">
       <use xlink:href="#DejaVuSansMono-30"/>
       <use x="60.205078" xlink:href="#DejaVuSansMono-2e"/>
       <use x="120.410156" xlink:href="#DejaVuSansMono-31"/>
       <use x="180.615234" xlink:href="#DejaVuSansMono-30"/>
      </g>
     </g>
    </g>
    <g id="ytick_7">
     <g id="line2d_19">
      <g>
       <use style="stroke:#000000;stroke-width:0.8;" x="58.88" xlink:href="#mec279aa6d6" y="76.933714"/>
      </g>
     </g>
     <g id="text_20">
      <!-- 0.12 -->
      <g transform="translate(27.79875 80.759496)scale(0.1 -0.1)">
       <use xlink:href="#DejaVuSansMono-30"/>
       <use x="60.205078" xlink:href="#DejaVuSansMono-2e"/>
       <use x="120.410156" xlink:href="#DejaVuSansMono-31"/>
       <use x="180.615234" xlink:href="#DejaVuSansMono-32"/>
      </g>
     </g>
    </g>
    <g id="text_21">
     <!-- Weights -->
     <g transform="translate(21.220625 340.665312)rotate(-90)scale(0.12 -0.12)">
      <defs>
       <path d="M 0 4666 
L 616 4666 
L 1063 878 
L 1594 3384 
L 2253 3384 
L 2791 872 
L 3238 4666 
L 3853 4666 
L 3156 0 
L 2559 0 
L 1925 2772 
L 1294 0 
L 697 0 
L 0 4666 
z
" id="DejaVuSansMono-57" transform="scale(0.015625)"/>
       <path d="M 800 3500 
L 2272 3500 
L 2272 447 
L 3413 447 
L 3413 0 
L 556 0 
L 556 447 
L 1697 447 
L 1697 3053 
L 800 3053 
L 800 3500 
z
M 1697 4863 
L 2272 4863 
L 2272 4134 
L 1697 4134 
L 1697 4863 
z
" id="DejaVuSansMono-69" transform="scale(0.015625)"/>
       <path d="M 2681 1778 
Q 2681 2425 2470 2761 
Q 2259 3097 1856 3097 
Q 1434 3097 1212 2761 
Q 991 2425 991 1778 
Q 991 1131 1214 792 
Q 1438 453 1863 453 
Q 2259 453 2470 793 
Q 2681 1134 2681 1778 
z
M 3256 225 
Q 3256 -563 2884 -969 
Q 2513 -1375 1791 -1375 
Q 1553 -1375 1293 -1331 
Q 1034 -1288 775 -1203 
L 775 -634 
Q 1081 -778 1331 -847 
Q 1581 -916 1791 -916 
Q 2256 -916 2468 -662 
Q 2681 -409 2681 141 
L 2681 166 
L 2681 556 
Q 2544 263 2306 119 
Q 2069 -25 1728 -25 
Q 1116 -25 750 465 
Q 384 956 384 1778 
Q 384 2603 750 3093 
Q 1116 3584 1728 3584 
Q 2066 3584 2300 3450 
Q 2534 3316 2681 3034 
L 2681 3488 
L 3256 3488 
L 3256 225 
z
" id="DejaVuSansMono-67" transform="scale(0.015625)"/>
      </defs>
      <use xlink:href="#DejaVuSansMono-57"/>
      <use x="60.205078" xlink:href="#DejaVuSansMono-65"/>
      <use x="120.410156" xlink:href="#DejaVuSansMono-69"/>
      <use x="180.615234" xlink:href="#DejaVuSansMono-67"/>
      <use x="240.820312" xlink:href="#DejaVuSansMono-68"/>
      <use x="301.025391" xlink:href="#DejaVuSansMono-74"/>
      <use x="361.230469" xlink:href="#DejaVuSansMono-73"/>
     </g>
    </g>
   </g>
   <g id="patch_183">
    <path d="M 58.88 603.16 
L 58.88 27.6 
" style="fill:none;stroke:#000000;stroke-linecap:square;stroke-linejoin:miter;stroke-width:0.8;"/>
   </g>
   <g id="patch_184">
    <path d="M 1141.2 603.16 
L 1141.2 27.6 
" style="fill:none;stroke:#000000;stroke-linecap:square;stroke-linejoin:miter;stroke-width:0.8;"/>
   </g>
   <g id="patch_185">
    <path d="M 58.88 603.16 
L 1141.2 603.16 
" style="fill:none;stroke:#000000;stroke-linecap:square;stroke-linejoin:miter;stroke-width:0.8;"/>
   </g>
   <g id="patch_186">
    <path d="M 58.88 27.6 
L 1141.2 27.6 
" style="fill:none;stroke:#000000;stroke-linecap:square;stroke-linejoin:miter;stroke-width:0.8;"/>
   </g>
   <g id="text_22">
    <!-- Weights of Moving Average(N=15) -->
    <g transform="translate(469.399219 21.6)scale(0.14 -0.14)">
     <defs>
      <path d="M 3322 4863 
L 3322 4384 
L 2669 4384 
Q 2359 4384 2239 4257 
Q 2119 4131 2119 3809 
L 2119 3500 
L 3322 3500 
L 3322 3053 
L 2119 3053 
L 2119 0 
L 1544 0 
L 1544 3053 
L 609 3053 
L 609 3500 
L 1544 3500 
L 1544 3744 
Q 1544 4319 1808 4591 
Q 2072 4863 2631 4863 
L 3322 4863 
z
" id="DejaVuSansMono-66" transform="scale(0.015625)"/>
      <path d="M 313 3500 
L 909 3500 
L 1925 563 
L 2944 3500 
L 3541 3500 
L 2297 0 
L 1556 0 
L 313 3500 
z
" id="DejaVuSansMono-76" transform="scale(0.015625)"/>
      <path d="M 1925 4109 
L 1259 1722 
L 2591 1722 
L 1925 4109 
z
M 1544 4666 
L 2309 4666 
L 3738 0 
L 3084 0 
L 2741 1216 
L 1106 1216 
L 769 0 
L 116 0 
L 1544 4666 
z
" id="DejaVuSansMono-41" transform="scale(0.015625)"/>
      <path d="M 3609 2778 
Q 3425 2922 3234 2987 
Q 3044 3053 2816 3053 
Q 2278 3053 1993 2715 
Q 1709 2378 1709 1741 
L 1709 0 
L 1131 0 
L 1131 3500 
L 1709 3500 
L 1709 2816 
Q 1853 3188 2151 3386 
Q 2450 3584 2859 3584 
Q 3072 3584 3256 3531 
Q 3441 3478 3609 3366 
L 3609 2778 
z
" id="DejaVuSansMono-72" transform="scale(0.015625)"/>
      <path d="M 2194 1759 
L 2003 1759 
Q 1500 1759 1245 1582 
Q 991 1406 991 1056 
Q 991 741 1181 566 
Q 1372 391 1709 391 
Q 2184 391 2456 720 
Q 2728 1050 2731 1631 
L 2731 1759 
L 2194 1759 
z
M 3309 1997 
L 3309 0 
L 2731 0 
L 2731 519 
Q 2547 206 2267 57 
Q 1988 -91 1588 -91 
Q 1053 -91 734 211 
Q 416 513 416 1019 
Q 416 1603 808 1906 
Q 1200 2209 1959 2209 
L 2731 2209 
L 2731 2300 
Q 2728 2719 2518 2908 
Q 2309 3097 1850 3097 
Q 1556 3097 1256 3012 
Q 956 2928 672 2766 
L 672 3341 
Q 991 3463 1283 3523 
Q 1575 3584 1850 3584 
Q 2284 3584 2592 3456 
Q 2900 3328 3091 3072 
Q 3209 2916 3259 2686 
Q 3309 2456 3309 1997 
z
" id="DejaVuSansMono-61" transform="scale(0.015625)"/>
      <path d="M 2766 4856 
Q 2350 4144 2145 3436 
Q 1941 2728 1941 2009 
Q 1941 1294 2145 584 
Q 2350 -125 2766 -844 
L 2266 -844 
Q 1794 -100 1562 604 
Q 1331 1309 1331 2009 
Q 1331 2706 1562 3412 
Q 1794 4119 2266 4856 
L 2766 4856 
z
" id="DejaVuSansMono-28" transform="scale(0.015625)"/>
      <path d="M 434 4666 
L 1234 4666 
L 2809 825 
L 2809 4666 
L 3419 4666 
L 3419 0 
L 2619 0 
L 1044 3841 
L 1044 0 
L 434 0 
L 434 4666 
z
" id="DejaVuSansMono-4e" transform="scale(0.015625)"/>
      <path d="M 275 1638 
L 3578 1638 
L 3578 1100 
L 275 1100 
L 275 1638 
z
M 275 2906 
L 3578 2906 
L 3578 2375 
L 275 2375 
L 275 2906 
z
" id="DejaVuSansMono-3d" transform="scale(0.015625)"/>
      <path d="M 1088 4856 
L 1588 4856 
Q 2059 4119 2290 3412 
Q 2522 2706 2522 2009 
Q 2522 1306 2290 600 
Q 2059 -106 1588 -844 
L 1088 -844 
Q 1503 -119 1708 590 
Q 1913 1300 1913 2009 
Q 1913 2722 1708 3431 
Q 1503 4141 1088 4856 
z
" id="DejaVuSansMono-29" transform="scale(0.015625)"/>
     </defs>
     <use xlink:href="#DejaVuSansMono-57"/>
     <use x="60.205078" xlink:href="#DejaVuSansMono-65"/>
     <use x="120.410156" xlink:href="#DejaVuSansMono-69"/>
     <use x="180.615234" xlink:href="#DejaVuSansMono-67"/>
     <use x="240.820312" xlink:href="#DejaVuSansMono-68"/>
     <use x="301.025391" xlink:href="#DejaVuSansMono-74"/>
     <use x="361.230469" xlink:href="#DejaVuSansMono-73"/>
     <use x="421.435547" xlink:href="#DejaVuSansMono-20"/>
     <use x="481.640625" xlink:href="#DejaVuSansMono-6f"/>
     <use x="541.845703" xlink:href="#DejaVuSansMono-66"/>
     <use x="602.050781" xlink:href="#DejaVuSansMono-20"/>
     <use x="662.255859" xlink:href="#DejaVuSansMono-4d"/>
     <use x="722.460938" xlink:href="#DejaVuSansMono-6f"/>
     <use x="782.666016" xlink:href="#DejaVuSansMono-76"/>
     <use x="842.871094" xlink:href="#DejaVuSansMono-69"/>
     <use x="903.076172" xlink:href="#DejaVuSansMono-6e"/>
     <use x="963.28125" xlink:href="#DejaVuSansMono-67"/>
     <use x="1023.486328" xlink:href="#DejaVuSansMono-20"/>
     <use x="1083.691406" xlink:href="#DejaVuSansMono-41"/>
     <use x="1143.896484" xlink:href="#DejaVuSansMono-76"/>
     <use x="1204.101562" xlink:href="#DejaVuSansMono-65"/>
     <use x="1264.306641" xlink:href="#DejaVuSansMono-72"/>
     <use x="1324.511719" xlink:href="#DejaVuSansMono-61"/>
     <use x="1384.716797" xlink:href="#DejaVuSansMono-67"/>
     <use x="1444.921875" xlink:href="#DejaVuSansMono-65"/>
     <use x="1505.126953" xlink:href="#DejaVuSansMono-28"/>
     <use x="1565.332031" xlink:href="#DejaVuSansMono-4e"/>
     <use x="1625.537109" xlink:href="#DejaVuSansMono-3d"/>
     <use x="1685.742188" xlink:href="#DejaVuSansMono-31"/>
     <use x="1745.947266" xlink:href="#DejaVuSansMono-35"/>
     <use x="1806.152344" xlink:href="#DejaVuSansMono-29"/>
    </g>
   </g>
   <g id="legend_1">
    <g id="patch_187">
     <path d="M 993.25875 90.2325 
L 1132.8 90.2325 
Q 1135.2 90.2325 1135.2 87.8325 
L 1135.2 36 
Q 1135.2 33.6 1132.8 33.6 
L 993.25875 33.6 
Q 990.85875 33.6 990.85875 36 
L 990.85875 87.8325 
Q 990.85875 90.2325 993.25875 90.2325 
z
" style="fill:#ffffff;opacity:0.8;stroke:#cccccc;stroke-linejoin:miter;"/>
    </g>
    <g id="patch_188">
     <path d="M 995.65875 47.581875 
L 1019.65875 47.581875 
L 1019.65875 39.181875 
L 995.65875 39.181875 
z
" style="fill:#1f77b4;"/>
    </g>
    <g id="text_23">
     <!-- SMA -->
     <g transform="translate(1029.25875 47.581875)scale(0.12 -0.12)">
      <use xlink:href="#DejaVuSansMono-53"/>
      <use x="60.205078" xlink:href="#DejaVuSansMono-4d"/>
      <use x="120.410156" xlink:href="#DejaVuSansMono-41"/>
     </g>
    </g>
    <g id="patch_189">
     <path d="M 995.65875 65.259375 
L 1019.65875 65.259375 
L 1019.65875 56.859375 
L 995.65875 56.859375 
z
" style="fill:#ff7f0e;"/>
    </g>
    <g id="text_24">
     <!-- WMA -->
     <g transform="translate(1029.25875 65.259375)scale(0.12 -0.12)">
      <use xlink:href="#DejaVuSansMono-57"/>
      <use x="60.205078" xlink:href="#DejaVuSansMono-4d"/>
      <use x="120.410156" xlink:href="#DejaVuSansMono-41"/>
     </g>
    </g>
    <g id="patch_190">
     <path d="M 995.65875 82.936875 
L 1019.65875 82.936875 
L 1019.65875 74.536875 
L 995.65875 74.536875 
z
" style="fill:#2ca02c;"/>
    </g>
    <g id="text_25">
     <!-- EMA, =2/(N+1) -->
     <g transform="translate(1029.25875 82.936875)scale(0.12 -0.12)">
      <defs>
       <path d="M 616 4666 
L 3384 4666 
L 3384 4134 
L 1247 4134 
L 1247 2753 
L 3291 2753 
L 3291 2222 
L 1247 2222 
L 1247 531 
L 3444 531 
L 3444 0 
L 616 0 
L 616 4666 
z
" id="DejaVuSansMono-45" transform="scale(0.015625)"/>
       <path d="M 1569 947 
L 2356 947 
L 2356 300 
L 1741 -897 
L 1259 -897 
L 1569 300 
L 1569 947 
z
" id="DejaVuSansMono-2c" transform="scale(0.015625)"/>
       <path d="M 2394 1628 
L 2256 2350 
Q 2116 3088 1563 3091 
Q 1256 3094 1066 2747 
Q 825 2319 825 1747 
Q 825 1059 1056 731 
Q 1297 397 1563 397 
Q 1978 397 2203 1063 
L 2394 1628 
z
M 1563 3578 
Q 2531 3594 2716 2584 
L 3025 3500 
L 3538 3500 
L 2897 1603 
L 3022 919 
Q 3050 766 3159 638 
Q 3288 488 3388 488 
L 3663 488 
L 3663 0 
L 3319 0 
Q 3025 0 2763 263 
Q 2634 394 2581 669 
Q 2438 328 2150 50 
Q 2009 -81 1563 -78 
Q 944 -72 588 397 
Q 219 884 219 1747 
Q 219 2675 613 3097 
Q 1059 3569 1563 3578 
z
" id="DejaVuSansMono-3b1" transform="scale(0.015625)"/>
       <path d="M 2778 4666 
L 3372 4666 
L 916 -594 
L 319 -594 
L 2778 4666 
z
" id="DejaVuSansMono-2f" transform="scale(0.015625)"/>
       <path d="M 2188 3659 
L 2188 2272 
L 3578 2272 
L 3578 1741 
L 2188 1741 
L 2188 353 
L 1663 353 
L 1663 1741 
L 275 1741 
L 275 2272 
L 1663 2272 
L 1663 3659 
L 2188 3659 
z
" id="DejaVuSansMono-2b" transform="scale(0.015625)"/>
      </defs>
      <use xlink:href="#DejaVuSansMono-45"/>
      <use x="60.205078" xlink:href="#DejaVuSansMono-4d"/>
      <use x="120.410156" xlink:href="#DejaVuSansMono-41"/>
      <use x="180.615234" xlink:href="#DejaVuSansMono-2c"/>
      <use x="240.820312" xlink:href="#DejaVuSansMono-20"/>
      <use x="301.025391" xlink:href="#DejaVuSansMono-3b1"/>
      <use x="361.230469" xlink:href="#DejaVuSansMono-3d"/>
      <use x="421.435547" xlink:href="#DejaVuSansMono-32"/>
      <use x="481.640625" xlink:href="#DejaVuSansMono-2f"/>
      <use x="541.845703" xlink:href="#DejaVuSansMono-28"/>
      <use x="602.050781" xlink:href="#DejaVuSansMono-4e"/>
      <use x="662.255859" xlink:href="#DejaVuSansMono-2b"/>
      <use x="722.460938" xlink:href="#DejaVuSansMono-31"/>
      <use x="782.666016" xlink:href="#DejaVuSansMono-29"/>
     </g>
    </g>
   </g>
  </g>
 </g>
 <defs>
  <clipPath id="p095c2c888a">
   <rect height="575.56" width="1082.32" x="58.88" y="27.6"/>
  </clipPath>
 </defs>
</svg>
