<?xml version="1.0" encoding="utf-8" standalone="no"?>
<!DOCTYPE svg PUBLIC "-//W3C//DTD SVG 1.1//EN"
  "http://www.w3.org/Graphics/SVG/1.1/DTD/svg11.dtd">
<svg height="648pt" version="1.1" viewBox="0 0 1152 648" width="1152pt" xmlns="http://www.w3.org/2000/svg" xmlns:xlink="http://www.w3.org/1999/xlink">
 <metadata>
  <rdf:RDF xmlns:cc="http://creativecommons.org/ns#" xmlns:dc="http://purl.org/dc/elements/1.1/" xmlns:rdf="http://www.w3.org/1999/02/22-rdf-syntax-ns#">
   <cc:Work>
    <dc:type rdf:resource="http://purl.org/dc/dcmitype/StillImage"/>
    <dc:date>2021-06-01T07:49:07.271724</dc:date>
    <dc:format>image/svg+xml</dc:format>
    <dc:creator>
     <cc:Agent>
      <dc:title>Matplotlib v3.4.1, https://matplotlib.org/</dc:title>
     </cc:Agent>
    </dc:creator>
   </cc:Work>
  </rdf:RDF>
 </metadata>
 <defs>
  <style type="text/css">*{stroke-linecap:butt;stroke-linejoin:round;}</style>
 </defs>
 <g id="figure_1">
  <g id="patch_1">
   <path d="M 0 648 
L 1152 648 
L 1152 0 
L 0 0 
z
" style="fill:#ffffff;"/>
  </g>
  <g id="axes_1">
   <g id="patch_2">
    <path d="M 47.95 579.145386 
L 1141.2 579.145386 
L 1141.2 27.6 
L 47.95 27.6 
z
" style="fill:#ffffff;"/>
   </g>
   <g id="matplotlib.axis_1">
    <g id="xtick_1">
     <g id="line2d_1">
      <defs>
       <path d="M 0 0 
L 0 3.5 
" id="meac252877f" style="stroke:#000000;stroke-width:0.8;"/>
      </defs>
      <g>
       <use style="stroke:#000000;stroke-width:0.8;" x="47.950035" xlink:href="#meac252877f" y="579.145386"/>
      </g>
     </g>
     <g id="text_1">
      <!-- 2020-03 -->
      <g transform="translate(16.680447 621.354885)rotate(-45)scale(0.1 -0.1)">
       <defs>
        <path d="M 1166 531 
L 3309 531 
L 3309 0 
L 475 0 
L 475 531 
Q 1059 1147 1496 1619 
Q 1934 2091 2100 2284 
Q 2413 2666 2522 2902 
Q 2631 3138 2631 3384 
Q 2631 3775 2401 3997 
Q 2172 4219 1772 4219 
Q 1488 4219 1175 4116 
Q 863 4013 513 3803 
L 513 4441 
Q 834 4594 1145 4672 
Q 1456 4750 1759 4750 
Q 2444 4750 2861 4386 
Q 3278 4022 3278 3431 
Q 3278 3131 3139 2831 
Q 3000 2531 2688 2169 
Q 2513 1966 2180 1606 
Q 1847 1247 1166 531 
z
" id="DejaVuSansMono-32" transform="scale(0.015625)"/>
        <path d="M 1509 2344 
Q 1509 2516 1629 2641 
Q 1750 2766 1919 2766 
Q 2094 2766 2219 2641 
Q 2344 2516 2344 2344 
Q 2344 2169 2220 2047 
Q 2097 1925 1919 1925 
Q 1744 1925 1626 2044 
Q 1509 2163 1509 2344 
z
M 1925 4250 
Q 1484 4250 1267 3775 
Q 1050 3300 1050 2328 
Q 1050 1359 1267 884 
Q 1484 409 1925 409 
Q 2369 409 2586 884 
Q 2803 1359 2803 2328 
Q 2803 3300 2586 3775 
Q 2369 4250 1925 4250 
z
M 1925 4750 
Q 2672 4750 3055 4137 
Q 3438 3525 3438 2328 
Q 3438 1134 3055 521 
Q 2672 -91 1925 -91 
Q 1178 -91 797 521 
Q 416 1134 416 2328 
Q 416 3525 797 4137 
Q 1178 4750 1925 4750 
z
" id="DejaVuSansMono-30" transform="scale(0.015625)"/>
        <path d="M 1113 2009 
L 2741 2009 
L 2741 1497 
L 1113 1497 
L 1113 2009 
z
" id="DejaVuSansMono-2d" transform="scale(0.015625)"/>
        <path d="M 2425 2497 
Q 2884 2375 3128 2064 
Q 3372 1753 3372 1288 
Q 3372 644 2939 276 
Q 2506 -91 1741 -91 
Q 1419 -91 1084 -31 
Q 750 28 428 141 
L 428 769 
Q 747 603 1056 522 
Q 1366 441 1672 441 
Q 2191 441 2469 675 
Q 2747 909 2747 1350 
Q 2747 1756 2469 1995 
Q 2191 2234 1716 2234 
L 1234 2234 
L 1234 2753 
L 1716 2753 
Q 2150 2753 2394 2943 
Q 2638 3134 2638 3475 
Q 2638 3834 2411 4026 
Q 2184 4219 1766 4219 
Q 1488 4219 1191 4156 
Q 894 4094 569 3969 
L 569 4550 
Q 947 4650 1242 4700 
Q 1538 4750 1766 4750 
Q 2447 4750 2855 4408 
Q 3263 4066 3263 3500 
Q 3263 3116 3048 2859 
Q 2834 2603 2425 2497 
z
" id="DejaVuSansMono-33" transform="scale(0.015625)"/>
       </defs>
       <use xlink:href="#DejaVuSansMono-32"/>
       <use x="60.205078" xlink:href="#DejaVuSansMono-30"/>
       <use x="120.410156" xlink:href="#DejaVuSansMono-32"/>
       <use x="180.615234" xlink:href="#DejaVuSansMono-30"/>
       <use x="240.820312" xlink:href="#DejaVuSansMono-2d"/>
       <use x="301.025391" xlink:href="#DejaVuSansMono-30"/>
       <use x="361.230469" xlink:href="#DejaVuSansMono-33"/>
      </g>
     </g>
    </g>
    <g id="xtick_2">
     <g id="line2d_2">
      <g>
       <use style="stroke:#000000;stroke-width:0.8;" x="141.056491" xlink:href="#meac252877f" y="579.145386"/>
      </g>
     </g>
     <g id="text_2">
      <!-- 2020-04 -->
      <g transform="translate(109.786903 621.354885)rotate(-45)scale(0.1 -0.1)">
       <defs>
        <path d="M 2297 4091 
L 825 1625 
L 2297 1625 
L 2297 4091 
z
M 2194 4666 
L 2925 4666 
L 2925 1625 
L 3547 1625 
L 3547 1113 
L 2925 1113 
L 2925 0 
L 2297 0 
L 2297 1113 
L 319 1113 
L 319 1709 
L 2194 4666 
z
" id="DejaVuSansMono-34" transform="scale(0.015625)"/>
       </defs>
       <use xlink:href="#DejaVuSansMono-32"/>
       <use x="60.205078" xlink:href="#DejaVuSansMono-30"/>
       <use x="120.410156" xlink:href="#DejaVuSansMono-32"/>
       <use x="180.615234" xlink:href="#DejaVuSansMono-30"/>
       <use x="240.820312" xlink:href="#DejaVuSansMono-2d"/>
       <use x="301.025391" xlink:href="#DejaVuSansMono-30"/>
       <use x="361.230469" xlink:href="#DejaVuSansMono-34"/>
      </g>
     </g>
    </g>
    <g id="xtick_3">
     <g id="line2d_3">
      <g>
       <use style="stroke:#000000;stroke-width:0.8;" x="231.159513" xlink:href="#meac252877f" y="579.145386"/>
      </g>
     </g>
     <g id="text_3">
      <!-- 2020-05 -->
      <g transform="translate(199.889925 621.354885)rotate(-45)scale(0.1 -0.1)">
       <defs>
        <path d="M 647 4666 
L 3009 4666 
L 3009 4134 
L 1222 4134 
L 1222 2988 
Q 1356 3038 1492 3061 
Q 1628 3084 1766 3084 
Q 2491 3084 2916 2656 
Q 3341 2228 3341 1497 
Q 3341 759 2895 334 
Q 2450 -91 1678 -91 
Q 1306 -91 998 -41 
Q 691 9 447 109 
L 447 750 
Q 734 594 1025 517 
Q 1316 441 1619 441 
Q 2141 441 2423 716 
Q 2706 991 2706 1497 
Q 2706 1997 2414 2275 
Q 2122 2553 1600 2553 
Q 1347 2553 1106 2495 
Q 866 2438 647 2322 
L 647 4666 
z
" id="DejaVuSansMono-35" transform="scale(0.015625)"/>
       </defs>
       <use xlink:href="#DejaVuSansMono-32"/>
       <use x="60.205078" xlink:href="#DejaVuSansMono-30"/>
       <use x="120.410156" xlink:href="#DejaVuSansMono-32"/>
       <use x="180.615234" xlink:href="#DejaVuSansMono-30"/>
       <use x="240.820312" xlink:href="#DejaVuSansMono-2d"/>
       <use x="301.025391" xlink:href="#DejaVuSansMono-30"/>
       <use x="361.230469" xlink:href="#DejaVuSansMono-35"/>
      </g>
     </g>
    </g>
    <g id="xtick_4">
     <g id="line2d_4">
      <g>
       <use style="stroke:#000000;stroke-width:0.8;" x="324.265969" xlink:href="#meac252877f" y="579.145386"/>
      </g>
     </g>
     <g id="text_4">
      <!-- 2020-06 -->
      <g transform="translate(292.996381 621.354885)rotate(-45)scale(0.1 -0.1)">
       <defs>
        <path d="M 3097 4563 
L 3097 3981 
Q 2900 4097 2678 4158 
Q 2456 4219 2216 4219 
Q 1616 4219 1306 3767 
Q 997 3316 997 2438 
Q 1147 2750 1412 2917 
Q 1678 3084 2022 3084 
Q 2697 3084 3067 2670 
Q 3438 2256 3438 1497 
Q 3438 741 3056 325 
Q 2675 -91 1984 -91 
Q 1172 -91 794 492 
Q 416 1075 416 2328 
Q 416 3509 870 4129 
Q 1325 4750 2188 4750 
Q 2419 4750 2650 4701 
Q 2881 4653 3097 4563 
z
M 1972 2591 
Q 1569 2591 1337 2300 
Q 1106 2009 1106 1497 
Q 1106 984 1337 693 
Q 1569 403 1972 403 
Q 2391 403 2603 679 
Q 2816 956 2816 1497 
Q 2816 2041 2603 2316 
Q 2391 2591 1972 2591 
z
" id="DejaVuSansMono-36" transform="scale(0.015625)"/>
       </defs>
       <use xlink:href="#DejaVuSansMono-32"/>
       <use x="60.205078" xlink:href="#DejaVuSansMono-30"/>
       <use x="120.410156" xlink:href="#DejaVuSansMono-32"/>
       <use x="180.615234" xlink:href="#DejaVuSansMono-30"/>
       <use x="240.820312" xlink:href="#DejaVuSansMono-2d"/>
       <use x="301.025391" xlink:href="#DejaVuSansMono-30"/>
       <use x="361.230469" xlink:href="#DejaVuSansMono-36"/>
      </g>
     </g>
    </g>
    <g id="xtick_5">
     <g id="line2d_5">
      <g>
       <use style="stroke:#000000;stroke-width:0.8;" x="414.368991" xlink:href="#meac252877f" y="579.145386"/>
      </g>
     </g>
     <g id="text_5">
      <!-- 2020-07 -->
      <g transform="translate(383.099403 621.354885)rotate(-45)scale(0.1 -0.1)">
       <defs>
        <path d="M 434 4666 
L 3372 4666 
L 3372 4397 
L 1703 0 
L 1044 0 
L 2669 4134 
L 434 4134 
L 434 4666 
z
" id="DejaVuSansMono-37" transform="scale(0.015625)"/>
       </defs>
       <use xlink:href="#DejaVuSansMono-32"/>
       <use x="60.205078" xlink:href="#DejaVuSansMono-30"/>
       <use x="120.410156" xlink:href="#DejaVuSansMono-32"/>
       <use x="180.615234" xlink:href="#DejaVuSansMono-30"/>
       <use x="240.820312" xlink:href="#DejaVuSansMono-2d"/>
       <use x="301.025391" xlink:href="#DejaVuSansMono-30"/>
       <use x="361.230469" xlink:href="#DejaVuSansMono-37"/>
      </g>
     </g>
    </g>
    <g id="xtick_6">
     <g id="line2d_6">
      <g>
       <use style="stroke:#000000;stroke-width:0.8;" x="507.475447" xlink:href="#meac252877f" y="579.145386"/>
      </g>
     </g>
     <g id="text_6">
      <!-- 2020-08 -->
      <g transform="translate(476.205859 621.354885)rotate(-45)scale(0.1 -0.1)">
       <defs>
        <path d="M 1925 2216 
Q 1503 2216 1273 1980 
Q 1044 1744 1044 1313 
Q 1044 881 1276 642 
Q 1509 403 1925 403 
Q 2350 403 2579 639 
Q 2809 875 2809 1313 
Q 2809 1741 2576 1978 
Q 2344 2216 1925 2216 
z
M 1375 2478 
Q 972 2581 745 2862 
Q 519 3144 519 3541 
Q 519 4097 897 4423 
Q 1275 4750 1925 4750 
Q 2578 4750 2956 4423 
Q 3334 4097 3334 3541 
Q 3334 3144 3107 2862 
Q 2881 2581 2478 2478 
Q 2947 2375 3195 2062 
Q 3444 1750 3444 1253 
Q 3444 622 3041 265 
Q 2638 -91 1925 -91 
Q 1213 -91 811 264 
Q 409 619 409 1247 
Q 409 1747 657 2061 
Q 906 2375 1375 2478 
z
M 1147 3481 
Q 1147 3106 1347 2909 
Q 1547 2713 1925 2713 
Q 2306 2713 2506 2909 
Q 2706 3106 2706 3481 
Q 2706 3863 2507 4063 
Q 2309 4263 1925 4263 
Q 1547 4263 1347 4061 
Q 1147 3859 1147 3481 
z
" id="DejaVuSansMono-38" transform="scale(0.015625)"/>
       </defs>
       <use xlink:href="#DejaVuSansMono-32"/>
       <use x="60.205078" xlink:href="#DejaVuSansMono-30"/>
       <use x="120.410156" xlink:href="#DejaVuSansMono-32"/>
       <use x="180.615234" xlink:href="#DejaVuSansMono-30"/>
       <use x="240.820312" xlink:href="#DejaVuSansMono-2d"/>
       <use x="301.025391" xlink:href="#DejaVuSansMono-30"/>
       <use x="361.230469" xlink:href="#DejaVuSansMono-38"/>
      </g>
     </g>
    </g>
    <g id="xtick_7">
     <g id="line2d_7">
      <g>
       <use style="stroke:#000000;stroke-width:0.8;" x="600.581903" xlink:href="#meac252877f" y="579.145386"/>
      </g>
     </g>
     <g id="text_7">
      <!-- 2020-09 -->
      <g transform="translate(569.312315 621.354885)rotate(-45)scale(0.1 -0.1)">
       <defs>
        <path d="M 1863 2069 
Q 2266 2069 2495 2359 
Q 2725 2650 2725 3163 
Q 2725 3675 2495 3965 
Q 2266 4256 1863 4256 
Q 1444 4256 1231 3979 
Q 1019 3703 1019 3163 
Q 1019 2619 1230 2344 
Q 1441 2069 1863 2069 
z
M 738 97 
L 738 678 
Q 934 563 1156 502 
Q 1378 441 1619 441 
Q 2219 441 2526 892 
Q 2834 1344 2834 2222 
Q 2688 1909 2422 1742 
Q 2156 1575 1813 1575 
Q 1138 1575 767 1990 
Q 397 2406 397 3169 
Q 397 3922 776 4336 
Q 1156 4750 1850 4750 
Q 2663 4750 3041 4165 
Q 3419 3581 3419 2328 
Q 3419 1150 2964 529 
Q 2509 -91 1644 -91 
Q 1416 -91 1184 -42 
Q 953 6 738 97 
z
" id="DejaVuSansMono-39" transform="scale(0.015625)"/>
       </defs>
       <use xlink:href="#DejaVuSansMono-32"/>
       <use x="60.205078" xlink:href="#DejaVuSansMono-30"/>
       <use x="120.410156" xlink:href="#DejaVuSansMono-32"/>
       <use x="180.615234" xlink:href="#DejaVuSansMono-30"/>
       <use x="240.820312" xlink:href="#DejaVuSansMono-2d"/>
       <use x="301.025391" xlink:href="#DejaVuSansMono-30"/>
       <use x="361.230469" xlink:href="#DejaVuSansMono-39"/>
      </g>
     </g>
    </g>
    <g id="xtick_8">
     <g id="line2d_8">
      <g>
       <use style="stroke:#000000;stroke-width:0.8;" x="690.684925" xlink:href="#meac252877f" y="579.145386"/>
      </g>
     </g>
     <g id="text_8">
      <!-- 2020-10 -->
      <g transform="translate(659.415337 621.354885)rotate(-45)scale(0.1 -0.1)">
       <defs>
        <path d="M 844 531 
L 1825 531 
L 1825 4097 
L 769 3859 
L 769 4434 
L 1819 4666 
L 2450 4666 
L 2450 531 
L 3419 531 
L 3419 0 
L 844 0 
L 844 531 
z
" id="DejaVuSansMono-31" transform="scale(0.015625)"/>
       </defs>
       <use xlink:href="#DejaVuSansMono-32"/>
       <use x="60.205078" xlink:href="#DejaVuSansMono-30"/>
       <use x="120.410156" xlink:href="#DejaVuSansMono-32"/>
       <use x="180.615234" xlink:href="#DejaVuSansMono-30"/>
       <use x="240.820312" xlink:href="#DejaVuSansMono-2d"/>
       <use x="301.025391" xlink:href="#DejaVuSansMono-31"/>
       <use x="361.230469" xlink:href="#DejaVuSansMono-30"/>
      </g>
     </g>
    </g>
    <g id="xtick_9">
     <g id="line2d_9">
      <g>
       <use style="stroke:#000000;stroke-width:0.8;" x="783.791381" xlink:href="#meac252877f" y="579.145386"/>
      </g>
     </g>
     <g id="text_9">
      <!-- 2020-11 -->
      <g transform="translate(752.521793 621.354885)rotate(-45)scale(0.1 -0.1)">
       <use xlink:href="#DejaVuSansMono-32"/>
       <use x="60.205078" xlink:href="#DejaVuSansMono-30"/>
       <use x="120.410156" xlink:href="#DejaVuSansMono-32"/>
       <use x="180.615234" xlink:href="#DejaVuSansMono-30"/>
       <use x="240.820312" xlink:href="#DejaVuSansMono-2d"/>
       <use x="301.025391" xlink:href="#DejaVuSansMono-31"/>
       <use x="361.230469" xlink:href="#DejaVuSansMono-31"/>
      </g>
     </g>
    </g>
    <g id="xtick_10">
     <g id="line2d_10">
      <g>
       <use style="stroke:#000000;stroke-width:0.8;" x="873.894403" xlink:href="#meac252877f" y="579.145386"/>
      </g>
     </g>
     <g id="text_10">
      <!-- 2020-12 -->
      <g transform="translate(842.624815 621.354885)rotate(-45)scale(0.1 -0.1)">
       <use xlink:href="#DejaVuSansMono-32"/>
       <use x="60.205078" xlink:href="#DejaVuSansMono-30"/>
       <use x="120.410156" xlink:href="#DejaVuSansMono-32"/>
       <use x="180.615234" xlink:href="#DejaVuSansMono-30"/>
       <use x="240.820312" xlink:href="#DejaVuSansMono-2d"/>
       <use x="301.025391" xlink:href="#DejaVuSansMono-31"/>
       <use x="361.230469" xlink:href="#DejaVuSansMono-32"/>
      </g>
     </g>
    </g>
    <g id="xtick_11">
     <g id="line2d_11">
      <g>
       <use style="stroke:#000000;stroke-width:0.8;" x="967.000859" xlink:href="#meac252877f" y="579.145386"/>
      </g>
     </g>
     <g id="text_11">
      <!-- 2021-01 -->
      <g transform="translate(935.731271 621.354885)rotate(-45)scale(0.1 -0.1)">
       <use xlink:href="#DejaVuSansMono-32"/>
       <use x="60.205078" xlink:href="#DejaVuSansMono-30"/>
       <use x="120.410156" xlink:href="#DejaVuSansMono-32"/>
       <use x="180.615234" xlink:href="#DejaVuSansMono-31"/>
       <use x="240.820312" xlink:href="#DejaVuSansMono-2d"/>
       <use x="301.025391" xlink:href="#DejaVuSansMono-30"/>
       <use x="361.230469" xlink:href="#DejaVuSansMono-31"/>
      </g>
     </g>
    </g>
    <g id="xtick_12">
     <g id="line2d_12">
      <g>
       <use style="stroke:#000000;stroke-width:0.8;" x="1060.107315" xlink:href="#meac252877f" y="579.145386"/>
      </g>
     </g>
     <g id="text_12">
      <!-- 2021-02 -->
      <g transform="translate(1028.837727 621.354885)rotate(-45)scale(0.1 -0.1)">
       <use xlink:href="#DejaVuSansMono-32"/>
       <use x="60.205078" xlink:href="#DejaVuSansMono-30"/>
       <use x="120.410156" xlink:href="#DejaVuSansMono-32"/>
       <use x="180.615234" xlink:href="#DejaVuSansMono-31"/>
       <use x="240.820312" xlink:href="#DejaVuSansMono-2d"/>
       <use x="301.025391" xlink:href="#DejaVuSansMono-30"/>
       <use x="361.230469" xlink:href="#DejaVuSansMono-32"/>
      </g>
     </g>
    </g>
    <g id="text_13">
     <!-- Date -->
     <g transform="translate(582.534375 634.477008)scale(0.1 -0.1)">
      <defs>
       <path d="M 1363 519 
Q 2159 519 2475 911 
Q 2791 1303 2791 2328 
Q 2791 3363 2477 3755 
Q 2163 4147 1363 4147 
L 1063 4147 
L 1063 519 
L 1363 519 
z
M 1375 4666 
Q 2444 4666 2950 4097 
Q 3456 3528 3456 2328 
Q 3456 1134 2950 567 
Q 2444 0 1375 0 
L 428 0 
L 428 4666 
L 1375 4666 
z
" id="DejaVuSansMono-44" transform="scale(0.015625)"/>
       <path d="M 2194 1759 
L 2003 1759 
Q 1500 1759 1245 1582 
Q 991 1406 991 1056 
Q 991 741 1181 566 
Q 1372 391 1709 391 
Q 2184 391 2456 720 
Q 2728 1050 2731 1631 
L 2731 1759 
L 2194 1759 
z
M 3309 1997 
L 3309 0 
L 2731 0 
L 2731 519 
Q 2547 206 2267 57 
Q 1988 -91 1588 -91 
Q 1053 -91 734 211 
Q 416 513 416 1019 
Q 416 1603 808 1906 
Q 1200 2209 1959 2209 
L 2731 2209 
L 2731 2300 
Q 2728 2719 2518 2908 
Q 2309 3097 1850 3097 
Q 1556 3097 1256 3012 
Q 956 2928 672 2766 
L 672 3341 
Q 991 3463 1283 3523 
Q 1575 3584 1850 3584 
Q 2284 3584 2592 3456 
Q 2900 3328 3091 3072 
Q 3209 2916 3259 2686 
Q 3309 2456 3309 1997 
z
" id="DejaVuSansMono-61" transform="scale(0.015625)"/>
       <path d="M 1919 4494 
L 1919 3500 
L 3225 3500 
L 3225 3053 
L 1919 3053 
L 1919 1153 
Q 1919 766 2066 612 
Q 2213 459 2578 459 
L 3225 459 
L 3225 0 
L 2522 0 
Q 1875 0 1609 259 
Q 1344 519 1344 1153 
L 1344 3053 
L 409 3053 
L 409 3500 
L 1344 3500 
L 1344 4494 
L 1919 4494 
z
" id="DejaVuSansMono-74" transform="scale(0.015625)"/>
       <path d="M 3475 1894 
L 3475 1613 
L 984 1613 
L 984 1594 
Q 984 1022 1282 709 
Q 1581 397 2125 397 
Q 2400 397 2700 484 
Q 3000 572 3341 750 
L 3341 178 
Q 3013 44 2708 -23 
Q 2403 -91 2119 -91 
Q 1303 -91 843 398 
Q 384 888 384 1747 
Q 384 2584 834 3084 
Q 1284 3584 2034 3584 
Q 2703 3584 3089 3131 
Q 3475 2678 3475 1894 
z
M 2900 2063 
Q 2888 2569 2661 2833 
Q 2434 3097 2009 3097 
Q 1594 3097 1325 2822 
Q 1056 2547 1006 2059 
L 2900 2063 
z
" id="DejaVuSansMono-65" transform="scale(0.015625)"/>
      </defs>
      <use xlink:href="#DejaVuSansMono-44"/>
      <use x="60.205078" xlink:href="#DejaVuSansMono-61"/>
      <use x="120.410156" xlink:href="#DejaVuSansMono-74"/>
      <use x="180.615234" xlink:href="#DejaVuSansMono-65"/>
     </g>
    </g>
   </g>
   <g id="matplotlib.axis_2">
    <g id="ytick_1">
     <g id="line2d_13">
      <defs>
       <path d="M 0 0 
L -3.5 0 
" id="m48f1bcc3d3" style="stroke:#000000;stroke-width:0.8;"/>
      </defs>
      <g>
       <use style="stroke:#000000;stroke-width:0.8;" x="47.95" xlink:href="#m48f1bcc3d3" y="506.106489"/>
      </g>
     </g>
     <g id="text_14">
      <!-- 10000 -->
      <g transform="translate(10.848438 509.93227)scale(0.1 -0.1)">
       <use xlink:href="#DejaVuSansMono-31"/>
       <use x="60.205078" xlink:href="#DejaVuSansMono-30"/>
       <use x="120.410156" xlink:href="#DejaVuSansMono-30"/>
       <use x="180.615234" xlink:href="#DejaVuSansMono-30"/>
       <use x="240.820312" xlink:href="#DejaVuSansMono-30"/>
      </g>
     </g>
    </g>
    <g id="ytick_2">
     <g id="line2d_14">
      <g>
       <use style="stroke:#000000;stroke-width:0.8;" x="47.95" xlink:href="#m48f1bcc3d3" y="410.726434"/>
      </g>
     </g>
     <g id="text_15">
      <!-- 20000 -->
      <g transform="translate(10.848438 414.552215)scale(0.1 -0.1)">
       <use xlink:href="#DejaVuSansMono-32"/>
       <use x="60.205078" xlink:href="#DejaVuSansMono-30"/>
       <use x="120.410156" xlink:href="#DejaVuSansMono-30"/>
       <use x="180.615234" xlink:href="#DejaVuSansMono-30"/>
       <use x="240.820312" xlink:href="#DejaVuSansMono-30"/>
      </g>
     </g>
    </g>
    <g id="ytick_3">
     <g id="line2d_15">
      <g>
       <use style="stroke:#000000;stroke-width:0.8;" x="47.95" xlink:href="#m48f1bcc3d3" y="315.346379"/>
      </g>
     </g>
     <g id="text_16">
      <!-- 30000 -->
      <g transform="translate(10.848438 319.17216)scale(0.1 -0.1)">
       <use xlink:href="#DejaVuSansMono-33"/>
       <use x="60.205078" xlink:href="#DejaVuSansMono-30"/>
       <use x="120.410156" xlink:href="#DejaVuSansMono-30"/>
       <use x="180.615234" xlink:href="#DejaVuSansMono-30"/>
       <use x="240.820312" xlink:href="#DejaVuSansMono-30"/>
      </g>
     </g>
    </g>
    <g id="ytick_4">
     <g id="line2d_16">
      <g>
       <use style="stroke:#000000;stroke-width:0.8;" x="47.95" xlink:href="#m48f1bcc3d3" y="219.966324"/>
      </g>
     </g>
     <g id="text_17">
      <!-- 40000 -->
      <g transform="translate(10.848438 223.792105)scale(0.1 -0.1)">
       <use xlink:href="#DejaVuSansMono-34"/>
       <use x="60.205078" xlink:href="#DejaVuSansMono-30"/>
       <use x="120.410156" xlink:href="#DejaVuSansMono-30"/>
       <use x="180.615234" xlink:href="#DejaVuSansMono-30"/>
       <use x="240.820312" xlink:href="#DejaVuSansMono-30"/>
      </g>
     </g>
    </g>
    <g id="ytick_5">
     <g id="line2d_17">
      <g>
       <use style="stroke:#000000;stroke-width:0.8;" x="47.95" xlink:href="#m48f1bcc3d3" y="124.586269"/>
      </g>
     </g>
     <g id="text_18">
      <!-- 50000 -->
      <g transform="translate(10.848438 128.41205)scale(0.1 -0.1)">
       <use xlink:href="#DejaVuSansMono-35"/>
       <use x="60.205078" xlink:href="#DejaVuSansMono-30"/>
       <use x="120.410156" xlink:href="#DejaVuSansMono-30"/>
       <use x="180.615234" xlink:href="#DejaVuSansMono-30"/>
       <use x="240.820312" xlink:href="#DejaVuSansMono-30"/>
      </g>
     </g>
    </g>
    <g id="ytick_6">
     <g id="line2d_18">
      <g>
       <use style="stroke:#000000;stroke-width:0.8;" x="47.95" xlink:href="#m48f1bcc3d3" y="29.206214"/>
      </g>
     </g>
     <g id="text_19">
      <!-- 60000 -->
      <g transform="translate(10.848438 33.031995)scale(0.1 -0.1)">
       <use xlink:href="#DejaVuSansMono-36"/>
       <use x="60.205078" xlink:href="#DejaVuSansMono-30"/>
       <use x="120.410156" xlink:href="#DejaVuSansMono-30"/>
       <use x="180.615234" xlink:href="#DejaVuSansMono-30"/>
       <use x="240.820312" xlink:href="#DejaVuSansMono-30"/>
      </g>
     </g>
    </g>
   </g>
   <g id="line2d_19">
    <path clip-path="url(#pe865334686)" d="M 47.95 519.464383 
L 50.953434 519.81781 
L 53.956868 516.88758 
L 56.960302 517.668588 
L 59.963736 517.97896 
L 62.96717 514.893254 
L 65.970604 514.475654 
L 68.974038 516.503357 
L 71.977473 524.151286 
L 74.980907 525.910777 
L 77.984341 526.043501 
L 80.987775 526.02728 
L 83.991209 554.075142 
L 86.994643 548.419877 
L 89.998077 551.885422 
L 93.001511 550.054615 
L 96.004945 553.658406 
L 99.008379 551.644464 
L 102.011813 551.522288 
L 105.015247 542.434911 
L 108.018681 542.362563 
L 111.022115 542.493345 
L 114.025549 545.877542 
L 117.028984 540.287698 
L 120.032418 537.249948 
L 123.035852 537.762527 
L 126.039286 537.425097 
L 129.04272 539.777574 
L 132.046154 541.948464 
L 135.049588 545.002064 
L 138.053022 540.158676 
L 141.056456 540.074715 
L 144.05989 538.471076 
L 147.063324 536.688915 
L 150.066758 537.263458 
L 153.070192 535.984031 
L 156.073626 536.712714 
L 159.07706 532.128255 
L 162.080495 533.037863 
L 165.083929 531.533873 
L 168.087363 531.839174 
L 171.090797 536.00343 
L 174.094231 536.064573 
L 177.097665 534.996234 
L 180.101099 536.198537 
L 183.104533 536.223429 
L 186.107967 538.134063 
L 189.111401 533.606426 
L 192.114835 533.803096 
L 195.118269 532.262897 
L 198.121703 532.91377 
L 201.125137 535.846384 
L 204.128571 535.861981 
L 207.132005 533.60258 
L 210.13544 530.621789 
L 213.138874 529.466008 
L 216.142308 529.284452 
L 222.149176 527.13206 
L 225.15261 527.022777 
L 228.156044 517.542197 
L 231.159478 518.901207 
L 234.162912 516.934349 
L 237.166346 515.753264 
L 240.16978 516.62244 
L 243.173214 516.477595 
L 246.176648 515.615211 
L 249.180082 513.08104 
L 252.183516 506.568903 
L 255.186951 507.607138 
L 258.190385 509.979904 
L 261.193819 517.967656 
L 264.197253 519.442564 
L 267.200687 517.509386 
L 273.207555 508.646255 
L 276.210989 512.514147 
L 279.214423 512.048533 
L 282.217857 509.246979 
L 285.221291 508.71442 
L 288.224725 508.690927 
L 291.228159 510.656297 
L 294.231593 514.864648 
L 297.235027 513.903069 
L 300.238462 513.64831 
L 303.241896 517.643966 
L 306.24533 516.532151 
L 309.248764 517.217759 
L 315.255632 510.629878 
L 318.259066 511.456124 
L 321.2625 508.963941 
L 324.265934 511.246912 
L 327.269368 504.511085 
L 330.272802 510.59122 
L 333.276236 509.380717 
L 336.27967 508.008018 
L 339.283104 509.296639 
L 342.286538 509.409698 
L 345.289973 508.406556 
L 351.296841 508.055102 
L 354.300275 507.345529 
L 357.303709 512.575343 
L 360.307143 511.058204 
L 363.310577 511.111297 
L 366.314011 511.955309 
L 369.317445 511.345696 
L 372.320879 510.512815 
L 378.327747 511.716358 
L 381.331181 512.89737 
L 384.334615 512.474626 
L 387.338049 512.748473 
L 390.341484 509.457022 
L 393.344918 509.638809 
L 396.348352 512.653277 
L 399.351786 513.118706 
L 402.35522 514.090585 
L 405.358654 515.211555 
L 408.362088 514.275007 
L 411.365522 513.824123 
L 414.368956 514.328313 
L 417.37239 513.466724 
L 420.375824 514.467408 
L 423.379258 514.811789 
L 426.382692 514.380824 
L 429.386126 514.939227 
L 432.38956 512.063214 
L 435.392995 513.23827 
L 438.396429 511.559051 
L 441.399863 512.993235 
L 444.403297 512.985223 
L 447.406731 513.35207 
L 450.410165 513.007237 
L 453.413599 513.320904 
L 456.417033 513.324724 
L 462.423901 514.383304 
L 471.434203 513.872172 
L 474.437637 514.078055 
L 477.441071 512.068815 
L 480.444505 510.633575 
L 483.44794 510.102226 
L 486.451374 510.523609 
L 489.454808 509.186182 
L 492.458242 507.011004 
L 495.461676 496.655533 
L 498.46511 497.399978 
L 501.468544 495.610218 
L 504.471978 495.507721 
L 507.475412 493.483259 
L 510.478846 489.323483 
L 513.48228 496.057114 
L 516.485714 494.218807 
L 519.489148 494.604676 
L 522.492582 489.443376 
L 525.496016 489.131002 
L 528.499451 490.831633 
L 531.502885 489.37639 
L 534.506319 490.123278 
L 537.509753 488.193053 
L 540.513187 492.652887 
L 543.516621 490.989374 
L 546.520055 489.089377 
L 549.523489 489.234991 
L 552.526923 488.311446 
L 555.530357 488.052913 
L 558.533791 484.603991 
L 561.537225 487.114095 
L 564.540659 489.33597 
L 567.544093 488.19057 
L 570.547527 490.91732 
L 573.550962 490.065227 
L 576.554396 490.22716 
L 579.55783 489.180384 
L 582.561264 493.076285 
L 585.564698 491.91047 
L 588.568132 493.483921 
L 591.571566 491.394118 
L 594.575 491.733999 
L 597.578434 489.782134 
L 600.581868 490.074814 
L 603.585302 487.312052 
L 606.588736 492.619427 
L 609.59217 503.766848 
L 612.595604 501.224805 
L 615.599038 504.489156 
L 618.602473 503.432493 
L 621.605907 502.581588 
L 624.609341 504.852082 
L 630.616209 502.642867 
L 636.623077 501.889063 
L 639.626511 503.018504 
L 642.629945 499.612658 
L 645.633379 498.505166 
L 648.636813 496.807841 
L 651.640247 497.055018 
L 654.643681 497.097024 
L 657.647115 495.668608 
L 660.650549 497.157252 
L 663.653984 501.697454 
L 666.657418 500.970651 
L 669.660852 503.758361 
L 672.664286 498.856973 
L 675.66772 499.499348 
L 678.671154 498.946083 
L 681.674588 498.711965 
L 684.678022 499.337823 
L 687.681456 498.050299 
L 690.68489 498.624004 
L 693.688324 500.198153 
L 696.691758 500.612836 
L 699.695192 500.866987 
L 705.70206 498.539613 
L 708.705495 500.341662 
L 711.708929 499.725859 
L 714.712363 497.372673 
L 717.715797 495.953687 
L 720.719231 493.741786 
L 723.722665 492.904154 
L 726.726099 491.271429 
L 729.729533 492.506253 
L 732.732967 492.471844 
L 735.736401 491.843836 
L 738.739835 493.496075 
L 741.743269 493.152909 
L 744.746703 491.958196 
L 747.750137 489.490929 
L 750.753571 487.828474 
L 753.757005 479.174126 
L 756.76044 477.817801 
L 759.763874 478.145454 
L 762.767308 476.461771 
L 765.770742 477.195132 
L 768.774176 476.774759 
L 771.77761 471.252533 
L 774.781044 474.904951 
L 777.784478 473.31594 
L 780.787912 472.27974 
L 783.791346 470.043341 
L 786.79478 470.461915 
L 789.798214 472.241902 
L 792.801648 468.428498 
L 795.805082 466.679167 
L 798.808516 452.885864 
L 801.811951 453.019089 
L 804.815385 460.002116 
L 807.818819 453.842348 
L 810.822253 455.246833 
L 813.825687 455.64183 
L 816.829121 451.727079 
L 819.832555 446.242686 
L 822.835989 445.8472 
L 825.839423 448.228549 
L 828.842857 449.302063 
L 831.846291 442.048182 
L 834.849725 433.184567 
L 837.853159 431.67184 
L 840.856593 431.547039 
L 843.860027 423.876345 
L 846.863462 423.676825 
L 849.866896 426.273359 
L 852.87033 426.329451 
L 855.873764 419.239443 
L 858.877198 422.819473 
L 861.880632 437.903802 
L 864.884066 438.306514 
L 867.8875 432.497742 
L 870.890934 428.109607 
L 873.894368 414.295221 
L 876.897802 422.143443 
L 879.901236 418.346431 
L 882.90467 416.016226 
L 885.908104 423.128077 
L 888.911538 418.793382 
L 891.914973 416.972674 
L 894.918407 418.436659 
L 897.921841 426.739363 
L 900.925275 424.519197 
L 903.928709 427.274949 
L 906.932143 429.240624 
L 909.935577 422.137161 
L 912.939011 418.906394 
L 915.942445 417.911944 
L 918.945879 416.286366 
L 921.949313 398.225942 
L 924.952747 383.970788 
L 927.956181 380.796549 
L 930.959615 373.815955 
L 933.963049 377.559973 
L 936.966484 383.990628 
L 939.969918 374.643887 
L 942.973352 379.810469 
L 945.976786 375.092925 
L 948.98022 366.233639 
L 951.983654 349.329935 
L 954.987088 350.901254 
L 957.990522 343.151497 
L 960.993956 340.503474 
L 963.99739 326.401372 
L 967.000824 324.867981 
L 970.004258 321.315722 
L 973.007692 295.056486 
L 976.011126 288.811414 
L 979.01456 296.538257 
L 982.017995 277.266566 
L 985.021429 250.255554 
L 988.024863 225.965325 
L 991.028297 212.358709 
L 994.031731 217.538458 
L 997.035165 235.642613 
L 1000.038599 262.251584 
L 1003.042033 277.929159 
L 1006.045467 245.562903 
L 1009.048901 227.717593 
L 1012.052335 250.246002 
L 1015.055769 256.419256 
L 1018.059203 260.109138 
L 1021.062637 252.108681 
L 1024.066071 257.452532 
L 1027.069505 262.431901 
L 1030.07294 307.470862 
L 1033.076374 286.67739 
L 1036.079808 295.62519 
L 1039.083242 293.510278 
L 1042.086676 292.775709 
L 1045.09011 290.83514 
L 1048.093544 311.220743 
L 1051.096978 282.286733 
L 1054.100412 274.17665 
L 1057.103846 274.623659 
L 1060.10728 285.641618 
L 1063.110714 281.608767 
L 1069.117582 244.077542 
L 1072.121016 249.285538 
L 1075.124451 237.665935 
L 1078.127885 226.967118 
L 1081.131319 230.425305 
L 1084.134753 160.864419 
L 1087.138187 158.149516 
L 1090.141621 173.056653 
L 1093.145055 144.52708 
L 1099.151923 152.193859 
L 1102.155357 136.820762 
L 1105.158791 144.186328 
L 1108.162225 132.217901 
L 1111.165659 104.089023 
L 1114.169093 108.564359 
L 1117.172527 68.425218 
L 1120.175962 66.409009 
L 1123.179396 52.670245 
L 1126.18283 84.456837 
L 1129.186264 135.798892 
L 1132.189698 127.396801 
L 1135.193132 152.305115 
L 1138.196566 159.497657 
L 1141.2 160.940842 
L 1141.2 160.940842 
" style="fill:none;stroke:#1f77b4;stroke-linecap:square;stroke-width:1.5;"/>
   </g>
   <g id="line2d_20">
    <path clip-path="url(#pe865334686)" d="M 50.953434 519.700001 
L 53.956868 518.29379 
L 56.960302 518.04371 
L 59.963736 518.022127 
L 62.96717 517.128163 
L 65.970604 516.465036 
L 68.974038 516.473552 
L 74.980907 519.445767 
L 77.984341 520.54539 
L 80.987775 521.388757 
L 83.991209 526.058241 
L 96.004945 538.034657 
L 99.008379 540.668268 
L 102.011813 542.996966 
L 105.015247 543.907627 
L 108.018681 544.605446 
L 111.022115 545.090701 
L 114.025549 545.7655 
L 117.028984 545.496784 
L 123.035852 543.900553 
L 126.039286 542.94739 
L 129.04272 542.193304 
L 132.046154 541.829727 
L 135.049588 541.901778 
L 156.073626 538.610131 
L 159.07706 537.703792 
L 162.080495 537.025732 
L 168.087363 535.50024 
L 180.101099 534.961915 
L 183.104533 535.013548 
L 186.107967 535.336804 
L 198.121703 534.412141 
L 204.128571 534.791934 
L 207.132005 534.672875 
L 210.13544 534.176512 
L 219.145742 532.195896 
L 225.15261 530.679826 
L 228.156044 528.83912 
L 234.162912 525.723231 
L 237.166346 524.113794 
L 243.173214 521.525274 
L 246.176648 520.316301 
L 249.180082 518.959149 
L 252.183516 516.977821 
L 255.186951 515.351553 
L 258.190385 514.213669 
L 261.193819 514.236639 
L 264.197253 514.538279 
L 267.200687 514.67155 
L 270.204121 514.330005 
L 273.207555 513.551852 
L 279.214423 513.105808 
L 288.224725 511.539102 
L 291.228159 511.365286 
L 294.231593 511.758838 
L 300.238462 512.182857 
L 303.241896 512.797499 
L 309.248764 513.718758 
L 312.252198 513.834283 
L 315.255632 513.568728 
L 318.259066 513.426783 
L 321.2625 512.949899 
L 324.265934 512.787972 
L 327.269368 511.790747 
L 330.272802 511.593004 
L 333.276236 511.228308 
L 336.27967 510.686277 
L 351.296841 508.976487 
L 354.300275 508.649864 
L 357.303709 509.059237 
L 363.310577 509.524143 
L 369.317445 510.107735 
L 375.324313 510.399193 
L 378.327747 510.631981 
L 384.334615 511.260296 
L 387.338049 511.535407 
L 393.344918 511.22109 
L 399.351786 511.671674 
L 402.35522 511.980271 
L 405.358654 512.416363 
L 411.365522 512.902461 
L 414.368956 513.151598 
L 420.375824 513.485234 
L 429.386126 514.078553 
L 432.38956 513.908022 
L 435.392995 513.890085 
L 438.396429 513.630734 
L 453.413599 513.259581 
L 459.420467 513.276024 
L 468.430769 513.559018 
L 474.437637 513.695692 
L 477.441071 513.535038 
L 486.451374 512.490107 
L 489.454808 512.023503 
L 492.458242 511.31666 
L 495.461676 509.368226 
L 507.475412 502.38767 
L 510.478846 500.265936 
L 519.489148 497.101378 
L 522.492582 495.678581 
L 525.496016 494.405283 
L 531.502885 492.620905 
L 537.509753 491.271964 
L 540.513187 491.270579 
L 543.516621 491.09461 
L 555.530357 489.75649 
L 558.533791 488.99607 
L 561.537225 488.644855 
L 567.544093 488.517037 
L 570.547527 488.754777 
L 579.55783 489.019125 
L 582.561264 489.519005 
L 585.564698 489.832463 
L 588.568132 490.34879 
L 594.575 490.840697 
L 600.581868 490.850595 
L 603.585302 490.505514 
L 606.588736 490.801288 
L 609.59217 492.444612 
L 612.595604 493.649924 
L 615.599038 495.15466 
L 618.602473 496.414215 
L 621.605907 497.456013 
L 624.609341 498.678669 
L 627.612775 499.638589 
L 630.616209 500.365174 
L 633.619643 500.957283 
L 639.626511 501.950206 
L 642.629945 501.95376 
L 645.633379 501.736957 
L 651.640247 500.690278 
L 654.643681 500.11111 
L 657.647115 499.408971 
L 660.650549 498.939214 
L 666.657418 499.180557 
L 669.660852 499.624921 
L 672.664286 499.465726 
L 690.68489 499.156904 
L 702.698626 499.748224 
L 705.70206 499.590607 
L 711.708929 499.63717 
L 714.712363 499.343838 
L 717.715797 498.926346 
L 723.722665 497.530052 
L 726.726099 496.649801 
L 735.736401 494.731365 
L 744.746703 493.52936 
L 747.750137 492.840726 
L 750.753571 492.029528 
L 756.76044 488.428919 
L 762.767308 485.231979 
L 768.774176 482.578354 
L 771.77761 480.738346 
L 780.787912 477.01466 
L 783.791346 475.659671 
L 786.79478 474.552443 
L 789.798214 473.856805 
L 795.805082 471.797638 
L 798.808516 469.198562 
L 801.811951 466.835208 
L 804.815385 465.551389 
L 807.818819 463.648793 
L 810.822253 462.110253 
L 813.825687 460.803991 
L 816.829121 459.184492 
L 819.832555 457.042155 
L 822.835989 455.089236 
L 825.839423 453.662891 
L 828.842857 452.571162 
L 831.846291 450.745542 
L 837.853159 445.488347 
L 840.856593 443.218649 
L 843.860027 440.282881 
L 846.863462 437.56392 
L 849.866896 435.414044 
L 852.87033 433.552252 
L 855.873764 431.033484 
L 858.877198 429.262281 
L 861.880632 429.650138 
L 864.884066 430.203529 
L 867.8875 430.096958 
L 870.890934 429.553116 
L 873.894368 427.450133 
L 876.897802 426.619902 
L 879.901236 425.480917 
L 882.90467 424.174307 
L 885.908104 423.887142 
L 888.911538 423.128299 
L 891.914973 422.184225 
L 894.918407 421.479017 
L 897.921841 421.876952 
L 900.925275 421.993952 
L 903.928709 422.411422 
L 906.932143 423.037472 
L 909.935577 422.847783 
L 915.942445 421.919158 
L 918.945879 421.331105 
L 921.949313 418.468907 
L 927.956181 409.469032 
L 930.959615 404.334859 
L 933.963049 400.079623 
L 936.966484 396.97183 
L 939.969918 392.970545 
L 942.973352 389.980023 
L 945.976786 386.790882 
L 948.98022 382.906215 
L 951.983654 377.417263 
L 954.987088 372.790649 
L 957.990522 367.788947 
L 960.993956 363.087533 
L 963.99739 357.268427 
L 970.004258 346.912235 
L 976.011126 331.136636 
L 979.01456 324.889996 
L 982.017995 316.909575 
L 985.021429 306.442145 
L 991.028297 281.089083 
L 994.031731 270.206747 
L 997.035165 262.826557 
L 1000.038599 259.719883 
L 1003.042033 259.311653 
L 1006.045467 255.40116 
L 1009.048901 250.051175 
L 1012.052335 248.339606 
L 1015.055769 248.021543 
L 1018.059203 248.70552 
L 1021.062637 248.680667 
L 1024.066071 249.629652 
L 1027.069505 251.526773 
L 1030.07294 259.177385 
L 1033.076374 263.75202 
L 1036.079808 268.939195 
L 1039.083242 273.168119 
L 1042.086676 276.672124 
L 1045.09011 279.457448 
L 1048.093544 284.552777 
L 1051.096978 285.753924 
L 1054.100412 285.635279 
L 1057.103846 285.185351 
L 1060.10728 285.909521 
L 1063.110714 285.886066 
L 1066.114148 283.331002 
L 1069.117582 278.347975 
L 1072.121016 274.127405 
L 1075.124451 268.563939 
L 1078.127885 262.244827 
L 1081.131319 256.855575 
L 1084.134753 243.314545 
L 1087.138187 230.539534 
L 1090.141621 220.749799 
L 1093.145055 208.375356 
L 1096.148489 197.872268 
L 1099.151923 188.961133 
L 1102.155357 179.144885 
L 1105.158791 171.39769 
L 1108.162225 163.333236 
L 1111.165659 152.997595 
L 1114.169093 144.543874 
L 1117.172527 132.202036 
L 1123.179396 109.738442 
L 1126.18283 103.787341 
L 1129.186264 105.4704 
L 1132.189698 106.312078 
L 1135.193132 110.523568 
L 1141.2 121.146185 
L 1141.2 121.146185 
" style="fill:none;stroke:#ff7f0e;stroke-linecap:square;stroke-width:1.5;"/>
   </g>
   <g id="line2d_21">
    <path clip-path="url(#pe865334686)" d="M 50.953434 519.700001 
L 53.956868 518.29379 
L 56.960302 518.04371 
L 59.963736 518.022127 
L 62.96717 517.128163 
L 65.970604 516.465036 
L 68.974038 516.473552 
L 74.980907 519.445767 
L 77.984341 520.54539 
L 80.987775 521.388757 
L 83.991209 526.058241 
L 89.998077 531.895496 
L 96.004945 536.21259 
L 99.008379 537.836998 
L 102.011813 539.205527 
L 108.018681 539.772131 
L 111.022115 540.008758 
L 114.025549 540.497823 
L 117.028984 540.481013 
L 123.035852 540.049511 
L 126.039286 539.862053 
L 129.04272 539.856227 
L 132.046154 539.995709 
L 141.056456 540.918482 
L 144.05989 541.046389 
L 150.066758 540.975578 
L 156.073626 540.654553 
L 165.083929 539.078743 
L 168.087363 538.492009 
L 183.104533 536.926929 
L 186.107967 536.843479 
L 198.121703 535.570585 
L 207.132005 535.241268 
L 213.138874 534.450107 
L 219.145742 533.560752 
L 225.15261 532.553276 
L 228.156044 531.48896 
L 234.162912 529.551598 
L 240.16978 527.574209 
L 246.176648 525.754318 
L 249.180082 524.719405 
L 252.183516 523.305316 
L 255.186951 522.015132 
L 258.190385 520.929485 
L 261.193819 520.406186 
L 267.200687 519.538497 
L 270.204121 518.811318 
L 273.207555 517.848517 
L 282.217857 515.802387 
L 288.224725 514.361852 
L 291.228159 513.845038 
L 300.238462 513.263798 
L 309.248764 513.579435 
L 312.252198 513.527788 
L 321.2625 512.851119 
L 324.265934 512.725276 
L 327.269368 512.177095 
L 333.276236 511.848494 
L 339.283104 511.407664 
L 345.289973 511.026367 
L 354.300275 510.272722 
L 360.307143 510.369748 
L 378.327747 510.484797 
L 387.338049 510.77639 
L 393.344918 510.580804 
L 399.351786 510.867724 
L 423.379258 512.6534 
L 429.386126 513.036214 
L 444.403297 513.144705 
L 477.441071 513.543898 
L 486.451374 512.967203 
L 489.454808 512.698455 
L 492.458242 512.29783 
L 501.468544 509.234036 
L 507.475412 507.119536 
L 510.478846 505.791821 
L 519.489148 503.185895 
L 525.496016 500.937416 
L 537.509753 497.118339 
L 543.516621 495.790195 
L 549.523489 494.310902 
L 561.537225 491.459408 
L 567.544093 490.60632 
L 579.55783 489.81332 
L 594.575 490.254836 
L 600.581868 490.191843 
L 603.585302 489.993909 
L 606.588736 490.157194 
L 609.59217 491.043106 
L 612.595604 491.745311 
L 618.602473 493.419056 
L 621.605907 494.123333 
L 627.612775 495.668182 
L 633.619643 496.852662 
L 639.626511 497.938406 
L 645.633379 498.474989 
L 654.643681 498.701019 
L 660.650549 498.682216 
L 669.660852 499.625378 
L 684.678022 499.793063 
L 690.68489 499.657729 
L 702.698626 499.685992 
L 705.70206 499.568681 
L 711.708929 499.55909 
L 717.715797 499.149599 
L 723.722665 498.378067 
L 729.729533 497.503798 
L 738.739835 496.477907 
L 744.746703 495.839713 
L 750.753571 494.742608 
L 765.770742 489.118414 
L 768.774176 488.079233 
L 771.77761 486.73146 
L 780.787912 483.458613 
L 786.79478 481.141781 
L 789.798214 480.208971 
L 795.805082 477.92885 
L 801.811951 474.071067 
L 804.815385 472.748463 
L 807.818819 471.108822 
L 816.829121 466.777526 
L 822.835989 463.268663 
L 825.839423 461.805123 
L 828.842857 460.504639 
L 831.846291 458.831203 
L 837.853159 454.589243 
L 840.856593 452.598954 
L 846.863462 447.976727 
L 858.877198 440.082073 
L 867.8875 437.690153 
L 870.890934 436.53272 
L 873.894368 434.579025 
L 876.897802 433.251556 
L 882.90467 430.28007 
L 885.908104 429.348654 
L 894.918407 426.080085 
L 903.928709 425.060416 
L 906.932143 425.042613 
L 909.935577 424.614879 
L 918.945879 422.809768 
L 921.949313 421.08535 
L 927.956181 415.88667 
L 930.959615 412.896902 
L 933.963049 410.272836 
L 936.966484 408.163256 
L 939.969918 405.536007 
L 942.973352 403.353117 
L 945.976786 400.96591 
L 948.98022 398.102075 
L 951.983654 394.269369 
L 954.987088 390.728519 
L 960.993956 383.044091 
L 970.004258 369.54536 
L 976.011126 357.465891 
L 979.01456 352.142125 
L 982.017995 345.837939 
L 985.021429 338.091551 
L 988.024863 329.13973 
L 991.028297 319.741836 
L 994.031731 311.134378 
L 997.035165 304.145976 
L 1000.038599 299.290621 
L 1003.042033 295.790564 
L 1006.045467 290.505537 
L 1009.048901 284.439843 
L 1012.052335 280.23312 
L 1015.055769 276.742907 
L 1018.059203 273.765055 
L 1021.062637 270.530588 
L 1024.066071 267.902621 
L 1027.069505 265.8542 
L 1030.07294 266.972934 
L 1033.076374 266.894613 
L 1039.083242 268.327549 
L 1045.09011 270.009367 
L 1048.093544 272.292863 
L 1051.096978 272.778317 
L 1054.100412 272.865737 
L 1057.103846 273.094307 
L 1060.10728 274.141766 
L 1063.110714 275.005759 
L 1066.114148 274.684508 
L 1069.117582 273.212013 
L 1072.121016 272.188337 
L 1075.124451 270.475184 
L 1078.127885 268.098858 
L 1081.131319 265.943487 
L 1087.138187 252.526166 
L 1090.141621 246.919271 
L 1093.145055 239.663574 
L 1096.148489 232.943663 
L 1099.151923 226.678469 
L 1102.155357 219.583878 
L 1105.158791 213.208411 
L 1108.162225 206.302148 
L 1111.165659 197.856154 
L 1114.169093 190.017213 
L 1123.179396 159.898414 
L 1126.18283 152.263211 
L 1129.186264 148.394524 
L 1132.189698 144.322931 
L 1135.193132 142.21398 
L 1138.196566 140.866977 
L 1141.2 139.93937 
L 1141.2 139.93937 
" style="fill:none;stroke:#2ca02c;stroke-linecap:square;stroke-width:1.5;"/>
   </g>
   <g id="line2d_22">
    <path clip-path="url(#pe865334686)" d="M 50.953434 519.700001 
L 53.956868 518.29379 
L 56.960302 518.04371 
L 59.963736 518.022127 
L 62.96717 517.128163 
L 65.970604 516.465036 
L 68.974038 516.473552 
L 74.980907 519.445767 
L 77.984341 520.54539 
L 80.987775 521.388757 
L 83.991209 526.058241 
L 89.998077 531.895496 
L 96.004945 536.21259 
L 99.008379 537.836998 
L 102.011813 539.205527 
L 108.018681 539.772131 
L 111.022115 540.008758 
L 114.025549 540.497823 
L 117.028984 540.481013 
L 123.035852 540.049511 
L 126.039286 539.862053 
L 129.04272 539.856227 
L 132.046154 539.995709 
L 135.049588 540.3187 
L 144.05989 540.187256 
L 159.07706 539.097657 
L 168.087363 538.126135 
L 183.104533 537.673052 
L 186.107967 537.69226 
L 201.125137 536.968134 
L 207.132005 536.806272 
L 219.145742 535.826128 
L 225.15261 535.257193 
L 243.173214 531.816167 
L 249.180082 530.493675 
L 255.186951 528.707836 
L 258.190385 527.924538 
L 270.204121 525.814718 
L 273.207555 525.057903 
L 285.221291 522.515275 
L 291.228159 521.303964 
L 300.238462 520.054286 
L 312.252198 518.855943 
L 333.276236 515.785578 
L 339.283104 514.990892 
L 354.300275 513.178682 
L 378.327747 511.810385 
L 390.341484 511.487901 
L 396.348352 511.347697 
L 402.35522 511.405985 
L 414.368956 511.698883 
L 423.379258 511.924419 
L 435.392995 512.152767 
L 444.403297 512.195603 
L 480.444505 512.701195 
L 492.458242 512.33175 
L 507.475412 509.786495 
L 510.478846 509.089235 
L 519.489148 507.608847 
L 531.502885 505.069808 
L 543.516621 502.801262 
L 567.544093 498.185576 
L 582.561264 496.152504 
L 603.585302 493.841421 
L 606.588736 493.623562 
L 642.629945 495.513689 
L 654.643681 495.640263 
L 660.650549 495.696094 
L 675.66772 496.684173 
L 714.712363 498.419635 
L 720.719231 498.329721 
L 732.732967 497.796072 
L 747.750137 497.026569 
L 750.753571 496.730084 
L 759.763874 494.934929 
L 774.781044 491.593534 
L 783.791346 489.363773 
L 795.805082 486.236861 
L 801.811951 483.710519 
L 804.815385 482.719377 
L 810.822253 480.455537 
L 816.829121 478.239876 
L 822.835989 475.634597 
L 831.846291 471.989606 
L 840.856593 467.203418 
L 846.863462 463.648709 
L 858.877198 457.028859 
L 867.8875 453.714914 
L 870.890934 452.412956 
L 873.894368 450.6966 
L 879.901236 447.790797 
L 882.90467 446.265781 
L 888.911538 443.672669 
L 894.918407 441.041596 
L 903.928709 438.239119 
L 906.932143 437.479067 
L 912.939011 435.493482 
L 918.945879 433.442715 
L 921.949313 431.860928 
L 927.956181 427.821273 
L 930.959615 425.609437 
L 933.963049 423.582658 
L 936.966484 421.822247 
L 939.969918 419.806657 
L 945.976786 416.125527 
L 948.98022 413.999358 
L 960.993956 403.485501 
L 970.004258 394.222377 
L 982.017995 378.5214 
L 985.021429 373.544535 
L 988.024863 367.885883 
L 991.028297 361.905637 
L 994.031731 356.227943 
L 997.035165 351.27394 
L 1000.038599 347.310441 
L 1003.042033 343.961503 
L 1006.045467 339.643134 
L 1009.048901 334.850419 
L 1012.052335 330.917425 
L 1015.055769 327.291643 
L 1018.059203 323.883434 
L 1021.062637 320.306665 
L 1024.066071 317.003157 
L 1027.069505 313.95385 
L 1030.07294 312.469342 
L 1033.076374 310.368 
L 1045.09011 303.544819 
L 1048.093544 302.62259 
L 1051.096978 300.817976 
L 1057.103846 296.927533 
L 1063.110714 293.952318 
L 1066.114148 291.891268 
L 1069.117582 289.304338 
L 1072.121016 286.983635 
L 1075.124451 284.373593 
L 1078.127885 281.511553 
L 1081.131319 278.872061 
L 1087.138187 269.300398 
L 1090.141621 265.179745 
L 1093.145055 260.259807 
L 1096.148489 255.616291 
L 1099.151923 251.244939 
L 1102.155357 246.513863 
L 1105.158791 242.167126 
L 1108.162225 237.559011 
L 1111.165659 232.164473 
L 1114.169093 227.064059 
L 1123.179396 208.186335 
L 1126.18283 202.962142 
L 1132.189698 196.048527 
L 1135.193132 193.454881 
L 1138.196566 191.205579 
L 1141.2 189.103951 
L 1141.2 189.103951 
" style="fill:none;stroke:#d62728;stroke-linecap:square;stroke-width:1.5;"/>
   </g>
   <g id="line2d_23">
    <path clip-path="url(#pe865334686)" d="M 50.953434 519.700001 
L 53.956868 518.29379 
L 56.960302 518.04371 
L 59.963736 518.022127 
L 62.96717 517.128163 
L 65.970604 516.465036 
L 68.974038 516.473552 
L 74.980907 519.445767 
L 77.984341 520.54539 
L 80.987775 521.388757 
L 83.991209 526.058241 
L 89.998077 531.895496 
L 96.004945 536.21259 
L 99.008379 537.836998 
L 102.011813 539.205527 
L 108.018681 539.772131 
L 111.022115 540.008758 
L 114.025549 540.497823 
L 117.028984 540.481013 
L 123.035852 540.049511 
L 126.039286 539.862053 
L 129.04272 539.856227 
L 132.046154 539.995709 
L 135.049588 540.3187 
L 144.05989 540.187256 
L 159.07706 539.097657 
L 168.087363 538.126135 
L 183.104533 537.673052 
L 186.107967 537.69226 
L 201.125137 536.968134 
L 207.132005 536.806272 
L 219.145742 535.826128 
L 225.15261 535.257193 
L 234.162912 533.645574 
L 240.16978 532.595871 
L 249.180082 531.091814 
L 255.186951 529.749356 
L 258.190385 529.200204 
L 270.204121 527.938455 
L 273.207555 527.437359 
L 285.221291 525.806405 
L 291.228159 525.03395 
L 303.241896 524.129817 
L 312.252198 523.585968 
L 318.259066 522.945718 
L 354.300275 518.110808 
L 378.327747 515.876157 
L 402.35522 514.287927 
L 444.403297 512.963853 
L 462.423901 512.68743 
L 480.444505 512.545032 
L 492.458242 512.201199 
L 507.475412 510.411108 
L 510.478846 509.928745 
L 519.489148 508.888505 
L 537.509753 506.222225 
L 546.520055 505.062243 
L 555.530357 503.792533 
L 561.537225 502.855022 
L 576.554396 501.043579 
L 582.561264 500.424356 
L 606.588736 498.124884 
L 639.626511 498.177787 
L 648.636813 497.918463 
L 660.650549 497.484774 
L 678.671154 497.438594 
L 693.688324 497.316549 
L 714.712363 497.386713 
L 723.722665 497.114179 
L 735.736401 496.629519 
L 747.750137 496.229277 
L 750.753571 496.05035 
L 768.774176 493.772834 
L 774.781044 492.864464 
L 783.791346 491.460876 
L 795.805082 489.452613 
L 801.811951 487.759482 
L 804.815385 487.081365 
L 819.832555 482.994906 
L 825.839423 481.185451 
L 828.842857 480.345396 
L 831.846291 479.354536 
L 840.856593 475.802546 
L 849.866896 471.887749 
L 852.87033 470.652216 
L 858.877198 467.99853 
L 867.8875 465.13819 
L 870.890934 464.033182 
L 873.894368 462.639693 
L 879.901236 460.167113 
L 882.90467 458.867349 
L 888.911538 456.546646 
L 894.918407 454.164931 
L 903.928709 451.302408 
L 906.932143 450.452856 
L 915.942445 447.384403 
L 918.945879 446.327023 
L 921.949313 444.892374 
L 927.956181 441.402606 
L 933.963049 437.732369 
L 936.966484 436.125102 
L 939.969918 434.340978 
L 945.976786 430.988281 
L 948.98022 429.110298 
L 960.993956 420.166475 
L 970.004258 412.433272 
L 979.01456 403.085148 
L 982.017995 399.713587 
L 985.021429 395.802703 
L 988.024863 391.418313 
L 994.031731 382.365858 
L 997.035165 378.396045 
L 1000.038599 375.07347 
L 1003.042033 372.151685 
L 1006.045467 368.570945 
L 1009.048901 364.658142 
L 1012.052335 361.305372 
L 1021.062637 351.989456 
L 1024.066071 349.025486 
L 1027.069505 346.225097 
L 1030.07294 344.467173 
L 1033.076374 342.293928 
L 1045.09011 334.624675 
L 1048.093544 333.214817 
L 1054.100412 329.070596 
L 1057.103846 326.990216 
L 1063.110714 323.366345 
L 1066.114148 321.164881 
L 1069.117582 318.601962 
L 1072.121016 316.204495 
L 1075.124451 313.601404 
L 1081.131319 308.16494 
L 1087.138187 299.924382 
L 1090.141621 296.209582 
L 1096.148489 287.817731 
L 1099.151923 283.857925 
L 1102.155357 279.632802 
L 1105.158791 275.644096 
L 1108.162225 271.462922 
L 1114.169093 262.188716 
L 1123.179396 246.000164 
L 1126.18283 241.265267 
L 1132.189698 234.101202 
L 1135.193132 231.085146 
L 1141.2 225.607257 
L 1141.2 225.607257 
" style="fill:none;stroke:#9467bd;stroke-linecap:square;stroke-width:1.5;"/>
   </g>
   <g id="line2d_24">
    <path clip-path="url(#pe865334686)" d="M 50.953434 519.700001 
L 53.956868 518.29379 
L 56.960302 518.04371 
L 59.963736 518.022127 
L 62.96717 517.128163 
L 65.970604 516.465036 
L 68.974038 516.473552 
L 74.980907 519.445767 
L 77.984341 520.54539 
L 80.987775 521.388757 
L 83.991209 526.058241 
L 89.998077 531.895496 
L 96.004945 536.21259 
L 99.008379 537.836998 
L 102.011813 539.205527 
L 108.018681 539.772131 
L 111.022115 540.008758 
L 114.025549 540.497823 
L 117.028984 540.481013 
L 123.035852 540.049511 
L 126.039286 539.862053 
L 129.04272 539.856227 
L 132.046154 539.995709 
L 135.049588 540.3187 
L 144.05989 540.187256 
L 159.07706 539.097657 
L 168.087363 538.126135 
L 183.104533 537.673052 
L 186.107967 537.69226 
L 201.125137 536.968134 
L 207.132005 536.806272 
L 219.145742 535.826128 
L 225.15261 535.257193 
L 234.162912 533.645574 
L 240.16978 532.595871 
L 249.180082 531.091814 
L 255.186951 529.749356 
L 258.190385 529.200204 
L 270.204121 527.938455 
L 273.207555 527.437359 
L 285.221291 525.806405 
L 291.228159 525.03395 
L 303.241896 524.129817 
L 312.252198 523.585968 
L 339.283104 521.098794 
L 357.303709 519.751904 
L 375.324313 518.8455 
L 399.351786 517.931044 
L 408.362088 517.672674 
L 459.420467 515.08351 
L 486.451374 514.019991 
L 492.458242 513.675793 
L 519.489148 510.426567 
L 537.509753 508.004136 
L 549.523489 506.577963 
L 570.547527 504.046992 
L 582.561264 502.901459 
L 606.588736 500.874304 
L 642.629945 500.442594 
L 657.647115 499.847045 
L 663.653984 499.703516 
L 687.681456 499.25316 
L 699.695192 499.083858 
L 717.715797 498.721337 
L 744.746703 497.423904 
L 750.753571 497.03526 
L 768.774176 494.869701 
L 777.784478 493.637137 
L 792.801648 491.49425 
L 795.805082 491.017334 
L 801.811951 489.630635 
L 807.818819 488.407068 
L 816.829121 486.496386 
L 825.839423 484.294506 
L 831.846291 482.836192 
L 840.856593 480.053717 
L 849.866896 476.999757 
L 855.873764 474.961294 
L 858.877198 473.958862 
L 867.8875 471.671442 
L 870.890934 470.790951 
L 873.894368 469.690554 
L 879.901236 467.718897 
L 882.90467 466.67864 
L 888.911538 464.7909 
L 894.918407 462.834431 
L 912.939011 457.89007 
L 918.945879 456.060309 
L 921.949313 454.847716 
L 927.956181 451.937818 
L 933.963049 448.866802 
L 936.966484 447.492089 
L 942.973352 444.564122 
L 945.976786 443.088351 
L 948.98022 441.482236 
L 960.993956 433.905941 
L 970.004258 427.362351 
L 979.01456 419.525415 
L 982.017995 416.703068 
L 985.021429 413.465293 
L 988.024863 409.861095 
L 994.031731 402.40503 
L 997.035165 399.078261 
L 1000.038599 396.227982 
L 1003.042033 393.670001 
L 1006.045467 390.607574 
L 1009.048901 387.285025 
L 1015.055769 381.594829 
L 1027.069505 370.923799 
L 1030.07294 369.156396 
L 1033.076374 367.072335 
L 1045.09011 359.452563 
L 1048.093544 357.916868 
L 1054.100412 353.836197 
L 1057.103846 351.782257 
L 1063.110714 348.063849 
L 1066.114148 345.905114 
L 1078.127885 336.070876 
L 1081.131319 333.552289 
L 1087.138187 326.288983 
L 1090.141621 322.950044 
L 1096.148489 315.528737 
L 1099.151923 311.984194 
L 1105.158791 304.651757 
L 1108.162225 300.921028 
L 1114.169093 292.754943 
L 1123.179396 278.734587 
L 1126.18283 274.539013 
L 1132.189698 267.861402 
L 1135.193132 264.935713 
L 1141.2 259.478053 
L 1141.2 259.478053 
" style="fill:none;stroke:#8c564b;stroke-linecap:square;stroke-width:1.5;"/>
   </g>
   <g id="patch_3">
    <path d="M 47.95 579.145386 
L 47.95 27.6 
" style="fill:none;stroke:#000000;stroke-linecap:square;stroke-linejoin:miter;stroke-width:0.8;"/>
   </g>
   <g id="patch_4">
    <path d="M 1141.2 579.145386 
L 1141.2 27.6 
" style="fill:none;stroke:#000000;stroke-linecap:square;stroke-linejoin:miter;stroke-width:0.8;"/>
   </g>
   <g id="patch_5">
    <path d="M 47.95 579.145386 
L 1141.2 579.145386 
" style="fill:none;stroke:#000000;stroke-linecap:square;stroke-linejoin:miter;stroke-width:0.8;"/>
   </g>
   <g id="patch_6">
    <path d="M 47.95 27.6 
L 1141.2 27.6 
" style="fill:none;stroke:#000000;stroke-linecap:square;stroke-linejoin:miter;stroke-width:0.8;"/>
   </g>
   <g id="text_20">
    <!-- Moving Average(N=15) -->
    <g transform="translate(510.290625 21.6)scale(0.14 -0.14)">
     <defs>
      <path d="M 269 4666 
L 1113 4666 
L 1919 2291 
L 2731 4666 
L 3578 4666 
L 3578 0 
L 2994 0 
L 2994 4122 
L 2163 1663 
L 1684 1663 
L 850 4122 
L 850 0 
L 269 0 
L 269 4666 
z
" id="DejaVuSansMono-4d" transform="scale(0.015625)"/>
      <path d="M 1925 3097 
Q 1488 3097 1263 2756 
Q 1038 2416 1038 1747 
Q 1038 1081 1263 739 
Q 1488 397 1925 397 
Q 2366 397 2591 739 
Q 2816 1081 2816 1747 
Q 2816 2416 2591 2756 
Q 2366 3097 1925 3097 
z
M 1925 3584 
Q 2653 3584 3039 3112 
Q 3425 2641 3425 1747 
Q 3425 850 3040 379 
Q 2656 -91 1925 -91 
Q 1197 -91 812 379 
Q 428 850 428 1747 
Q 428 2641 812 3112 
Q 1197 3584 1925 3584 
z
" id="DejaVuSansMono-6f" transform="scale(0.015625)"/>
      <path d="M 313 3500 
L 909 3500 
L 1925 563 
L 2944 3500 
L 3541 3500 
L 2297 0 
L 1556 0 
L 313 3500 
z
" id="DejaVuSansMono-76" transform="scale(0.015625)"/>
      <path d="M 800 3500 
L 2272 3500 
L 2272 447 
L 3413 447 
L 3413 0 
L 556 0 
L 556 447 
L 1697 447 
L 1697 3053 
L 800 3053 
L 800 3500 
z
M 1697 4863 
L 2272 4863 
L 2272 4134 
L 1697 4134 
L 1697 4863 
z
" id="DejaVuSansMono-69" transform="scale(0.015625)"/>
      <path d="M 3284 2169 
L 3284 0 
L 2706 0 
L 2706 2169 
Q 2706 2641 2540 2862 
Q 2375 3084 2022 3084 
Q 1619 3084 1401 2798 
Q 1184 2513 1184 1978 
L 1184 0 
L 609 0 
L 609 3500 
L 1184 3500 
L 1184 2975 
Q 1338 3275 1600 3429 
Q 1863 3584 2222 3584 
Q 2756 3584 3020 3232 
Q 3284 2881 3284 2169 
z
" id="DejaVuSansMono-6e" transform="scale(0.015625)"/>
      <path d="M 2681 1778 
Q 2681 2425 2470 2761 
Q 2259 3097 1856 3097 
Q 1434 3097 1212 2761 
Q 991 2425 991 1778 
Q 991 1131 1214 792 
Q 1438 453 1863 453 
Q 2259 453 2470 793 
Q 2681 1134 2681 1778 
z
M 3256 225 
Q 3256 -563 2884 -969 
Q 2513 -1375 1791 -1375 
Q 1553 -1375 1293 -1331 
Q 1034 -1288 775 -1203 
L 775 -634 
Q 1081 -778 1331 -847 
Q 1581 -916 1791 -916 
Q 2256 -916 2468 -662 
Q 2681 -409 2681 141 
L 2681 166 
L 2681 556 
Q 2544 263 2306 119 
Q 2069 -25 1728 -25 
Q 1116 -25 750 465 
Q 384 956 384 1778 
Q 384 2603 750 3093 
Q 1116 3584 1728 3584 
Q 2066 3584 2300 3450 
Q 2534 3316 2681 3034 
L 2681 3488 
L 3256 3488 
L 3256 225 
z
" id="DejaVuSansMono-67" transform="scale(0.015625)"/>
      <path id="DejaVuSansMono-20" transform="scale(0.015625)"/>
      <path d="M 1925 4109 
L 1259 1722 
L 2591 1722 
L 1925 4109 
z
M 1544 4666 
L 2309 4666 
L 3738 0 
L 3084 0 
L 2741 1216 
L 1106 1216 
L 769 0 
L 116 0 
L 1544 4666 
z
" id="DejaVuSansMono-41" transform="scale(0.015625)"/>
      <path d="M 3609 2778 
Q 3425 2922 3234 2987 
Q 3044 3053 2816 3053 
Q 2278 3053 1993 2715 
Q 1709 2378 1709 1741 
L 1709 0 
L 1131 0 
L 1131 3500 
L 1709 3500 
L 1709 2816 
Q 1853 3188 2151 3386 
Q 2450 3584 2859 3584 
Q 3072 3584 3256 3531 
Q 3441 3478 3609 3366 
L 3609 2778 
z
" id="DejaVuSansMono-72" transform="scale(0.015625)"/>
      <path d="M 2766 4856 
Q 2350 4144 2145 3436 
Q 1941 2728 1941 2009 
Q 1941 1294 2145 584 
Q 2350 -125 2766 -844 
L 2266 -844 
Q 1794 -100 1562 604 
Q 1331 1309 1331 2009 
Q 1331 2706 1562 3412 
Q 1794 4119 2266 4856 
L 2766 4856 
z
" id="DejaVuSansMono-28" transform="scale(0.015625)"/>
      <path d="M 434 4666 
L 1234 4666 
L 2809 825 
L 2809 4666 
L 3419 4666 
L 3419 0 
L 2619 0 
L 1044 3841 
L 1044 0 
L 434 0 
L 434 4666 
z
" id="DejaVuSansMono-4e" transform="scale(0.015625)"/>
      <path d="M 275 1638 
L 3578 1638 
L 3578 1100 
L 275 1100 
L 275 1638 
z
M 275 2906 
L 3578 2906 
L 3578 2375 
L 275 2375 
L 275 2906 
z
" id="DejaVuSansMono-3d" transform="scale(0.015625)"/>
      <path d="M 1088 4856 
L 1588 4856 
Q 2059 4119 2290 3412 
Q 2522 2706 2522 2009 
Q 2522 1306 2290 600 
Q 2059 -106 1588 -844 
L 1088 -844 
Q 1503 -119 1708 590 
Q 1913 1300 1913 2009 
Q 1913 2722 1708 3431 
Q 1503 4141 1088 4856 
z
" id="DejaVuSansMono-29" transform="scale(0.015625)"/>
     </defs>
     <use xlink:href="#DejaVuSansMono-4d"/>
     <use x="60.205078" xlink:href="#DejaVuSansMono-6f"/>
     <use x="120.410156" xlink:href="#DejaVuSansMono-76"/>
     <use x="180.615234" xlink:href="#DejaVuSansMono-69"/>
     <use x="240.820312" xlink:href="#DejaVuSansMono-6e"/>
     <use x="301.025391" xlink:href="#DejaVuSansMono-67"/>
     <use x="361.230469" xlink:href="#DejaVuSansMono-20"/>
     <use x="421.435547" xlink:href="#DejaVuSansMono-41"/>
     <use x="481.640625" xlink:href="#DejaVuSansMono-76"/>
     <use x="541.845703" xlink:href="#DejaVuSansMono-65"/>
     <use x="602.050781" xlink:href="#DejaVuSansMono-72"/>
     <use x="662.255859" xlink:href="#DejaVuSansMono-61"/>
     <use x="722.460938" xlink:href="#DejaVuSansMono-67"/>
     <use x="782.666016" xlink:href="#DejaVuSansMono-65"/>
     <use x="842.871094" xlink:href="#DejaVuSansMono-28"/>
     <use x="903.076172" xlink:href="#DejaVuSansMono-4e"/>
     <use x="963.28125" xlink:href="#DejaVuSansMono-3d"/>
     <use x="1023.486328" xlink:href="#DejaVuSansMono-31"/>
     <use x="1083.691406" xlink:href="#DejaVuSansMono-35"/>
     <use x="1143.896484" xlink:href="#DejaVuSansMono-29"/>
    </g>
   </g>
   <g id="legend_1">
    <g id="patch_7">
     <path d="M 56.35 143.76 
L 311.48125 143.76 
Q 313.88125 143.76 313.88125 141.36 
L 313.88125 36 
Q 313.88125 33.6 311.48125 33.6 
L 56.35 33.6 
Q 53.95 33.6 53.95 36 
L 53.95 141.36 
Q 53.95 143.76 56.35 143.76 
z
" style="fill:#ffffff;opacity:0.8;stroke:#cccccc;stroke-linejoin:miter;"/>
    </g>
    <g id="line2d_25">
     <path d="M 58.75 43.381875 
L 82.75 43.381875 
" style="fill:none;stroke:#1f77b4;stroke-linecap:square;stroke-width:1.5;"/>
    </g>
    <g id="line2d_26"/>
    <g id="text_21">
     <!-- Closing Price -->
     <g transform="translate(92.35 47.581875)scale(0.12 -0.12)">
      <defs>
       <path d="M 3353 166 
Q 3113 38 2859 -26 
Q 2606 -91 2322 -91 
Q 1425 -91 929 543 
Q 434 1178 434 2328 
Q 434 3472 932 4111 
Q 1431 4750 2322 4750 
Q 2606 4750 2859 4686 
Q 3113 4622 3353 4494 
L 3353 3847 
Q 3122 4038 2856 4138 
Q 2591 4238 2322 4238 
Q 1706 4238 1400 3763 
Q 1094 3288 1094 2328 
Q 1094 1372 1400 897 
Q 1706 422 2322 422 
Q 2597 422 2861 522 
Q 3125 622 3353 813 
L 3353 166 
z
" id="DejaVuSansMono-43" transform="scale(0.015625)"/>
       <path d="M 1997 1269 
Q 1997 881 2139 684 
Q 2281 488 2559 488 
L 3231 488 
L 3231 0 
L 2503 0 
Q 1988 0 1705 331 
Q 1422 663 1422 1269 
L 1422 4447 
L 500 4447 
L 500 4897 
L 1997 4897 
L 1997 1269 
z
" id="DejaVuSansMono-6c" transform="scale(0.015625)"/>
       <path d="M 3041 3378 
L 3041 2816 
Q 2794 2959 2544 3031 
Q 2294 3103 2034 3103 
Q 1644 3103 1451 2976 
Q 1259 2850 1259 2591 
Q 1259 2356 1403 2240 
Q 1547 2125 2119 2016 
L 2350 1972 
Q 2778 1891 2998 1647 
Q 3219 1403 3219 1013 
Q 3219 494 2850 201 
Q 2481 -91 1825 -91 
Q 1566 -91 1281 -36 
Q 997 19 666 128 
L 666 722 
Q 988 556 1281 473 
Q 1575 391 1838 391 
Q 2219 391 2428 545 
Q 2638 700 2638 978 
Q 2638 1378 1872 1531 
L 1847 1538 
L 1631 1581 
Q 1134 1678 906 1908 
Q 678 2138 678 2534 
Q 678 3038 1018 3311 
Q 1359 3584 1991 3584 
Q 2272 3584 2531 3532 
Q 2791 3481 3041 3378 
z
" id="DejaVuSansMono-73" transform="scale(0.015625)"/>
       <path d="M 1247 4147 
L 1247 2394 
L 1978 2394 
Q 2416 2394 2661 2625 
Q 2906 2856 2906 3272 
Q 2906 3688 2662 3917 
Q 2419 4147 1978 4147 
L 1247 4147 
z
M 616 4666 
L 1978 4666 
Q 2759 4666 3162 4311 
Q 3566 3956 3566 3272 
Q 3566 2581 3164 2228 
Q 2763 1875 1978 1875 
L 1247 1875 
L 1247 0 
L 616 0 
L 616 4666 
z
" id="DejaVuSansMono-50" transform="scale(0.015625)"/>
       <path d="M 3316 178 
Q 3084 44 2839 -23 
Q 2594 -91 2338 -91 
Q 1525 -91 1067 396 
Q 609 884 609 1747 
Q 609 2609 1067 3096 
Q 1525 3584 2338 3584 
Q 2591 3584 2831 3518 
Q 3072 3453 3316 3316 
L 3316 2713 
Q 3088 2916 2858 3006 
Q 2628 3097 2338 3097 
Q 1797 3097 1506 2747 
Q 1216 2397 1216 1747 
Q 1216 1100 1508 748 
Q 1800 397 2338 397 
Q 2638 397 2875 489 
Q 3113 581 3316 775 
L 3316 178 
z
" id="DejaVuSansMono-63" transform="scale(0.015625)"/>
      </defs>
      <use xlink:href="#DejaVuSansMono-43"/>
      <use x="60.205078" xlink:href="#DejaVuSansMono-6c"/>
      <use x="120.410156" xlink:href="#DejaVuSansMono-6f"/>
      <use x="180.615234" xlink:href="#DejaVuSansMono-73"/>
      <use x="240.820312" xlink:href="#DejaVuSansMono-69"/>
      <use x="301.025391" xlink:href="#DejaVuSansMono-6e"/>
      <use x="361.230469" xlink:href="#DejaVuSansMono-67"/>
      <use x="421.435547" xlink:href="#DejaVuSansMono-20"/>
      <use x="481.640625" xlink:href="#DejaVuSansMono-50"/>
      <use x="541.845703" xlink:href="#DejaVuSansMono-72"/>
      <use x="602.050781" xlink:href="#DejaVuSansMono-69"/>
      <use x="662.255859" xlink:href="#DejaVuSansMono-63"/>
      <use x="722.460938" xlink:href="#DejaVuSansMono-65"/>
     </g>
    </g>
    <g id="line2d_27">
     <path d="M 58.75 61.141875 
L 82.75 61.141875 
" style="fill:none;stroke:#ff7f0e;stroke-linecap:square;stroke-width:1.5;"/>
    </g>
    <g id="line2d_28"/>
    <g id="text_22">
     <!-- Weighted Moving Average(N=15) -->
     <g transform="translate(92.35 65.341875)scale(0.12 -0.12)">
      <defs>
       <path d="M 0 4666 
L 616 4666 
L 1063 878 
L 1594 3384 
L 2253 3384 
L 2791 872 
L 3238 4666 
L 3853 4666 
L 3156 0 
L 2559 0 
L 1925 2772 
L 1294 0 
L 697 0 
L 0 4666 
z
" id="DejaVuSansMono-57" transform="scale(0.015625)"/>
       <path d="M 3284 2169 
L 3284 0 
L 2706 0 
L 2706 2169 
Q 2706 2641 2540 2862 
Q 2375 3084 2022 3084 
Q 1619 3084 1401 2798 
Q 1184 2513 1184 1978 
L 1184 0 
L 609 0 
L 609 4863 
L 1184 4863 
L 1184 2975 
Q 1338 3275 1600 3429 
Q 1863 3584 2222 3584 
Q 2756 3584 3020 3232 
Q 3284 2881 3284 2169 
z
" id="DejaVuSansMono-68" transform="scale(0.015625)"/>
       <path d="M 2681 3053 
L 2681 4863 
L 3256 4863 
L 3256 0 
L 2681 0 
L 2681 441 
Q 2538 181 2298 45 
Q 2059 -91 1747 -91 
Q 1113 -91 748 401 
Q 384 894 384 1759 
Q 384 2613 750 3098 
Q 1116 3584 1747 3584 
Q 2063 3584 2303 3448 
Q 2544 3313 2681 3053 
z
M 991 1747 
Q 991 1078 1203 737 
Q 1416 397 1831 397 
Q 2247 397 2464 740 
Q 2681 1084 2681 1747 
Q 2681 2413 2464 2755 
Q 2247 3097 1831 3097 
Q 1416 3097 1203 2756 
Q 991 2416 991 1747 
z
" id="DejaVuSansMono-64" transform="scale(0.015625)"/>
      </defs>
      <use xlink:href="#DejaVuSansMono-57"/>
      <use x="60.205078" xlink:href="#DejaVuSansMono-65"/>
      <use x="120.410156" xlink:href="#DejaVuSansMono-69"/>
      <use x="180.615234" xlink:href="#DejaVuSansMono-67"/>
      <use x="240.820312" xlink:href="#DejaVuSansMono-68"/>
      <use x="301.025391" xlink:href="#DejaVuSansMono-74"/>
      <use x="361.230469" xlink:href="#DejaVuSansMono-65"/>
      <use x="421.435547" xlink:href="#DejaVuSansMono-64"/>
      <use x="481.640625" xlink:href="#DejaVuSansMono-20"/>
      <use x="541.845703" xlink:href="#DejaVuSansMono-4d"/>
      <use x="602.050781" xlink:href="#DejaVuSansMono-6f"/>
      <use x="662.255859" xlink:href="#DejaVuSansMono-76"/>
      <use x="722.460938" xlink:href="#DejaVuSansMono-69"/>
      <use x="782.666016" xlink:href="#DejaVuSansMono-6e"/>
      <use x="842.871094" xlink:href="#DejaVuSansMono-67"/>
      <use x="903.076172" xlink:href="#DejaVuSansMono-20"/>
      <use x="963.28125" xlink:href="#DejaVuSansMono-41"/>
      <use x="1023.486328" xlink:href="#DejaVuSansMono-76"/>
      <use x="1083.691406" xlink:href="#DejaVuSansMono-65"/>
      <use x="1143.896484" xlink:href="#DejaVuSansMono-72"/>
      <use x="1204.101562" xlink:href="#DejaVuSansMono-61"/>
      <use x="1264.306641" xlink:href="#DejaVuSansMono-67"/>
      <use x="1324.511719" xlink:href="#DejaVuSansMono-65"/>
      <use x="1384.716797" xlink:href="#DejaVuSansMono-28"/>
      <use x="1444.921875" xlink:href="#DejaVuSansMono-4e"/>
      <use x="1505.126953" xlink:href="#DejaVuSansMono-3d"/>
      <use x="1565.332031" xlink:href="#DejaVuSansMono-31"/>
      <use x="1625.537109" xlink:href="#DejaVuSansMono-35"/>
      <use x="1685.742188" xlink:href="#DejaVuSansMono-29"/>
     </g>
    </g>
    <g id="line2d_29">
     <path d="M 58.75 78.901875 
L 82.75 78.901875 
" style="fill:none;stroke:#2ca02c;stroke-linecap:square;stroke-width:1.5;"/>
    </g>
    <g id="line2d_30"/>
    <g id="text_23">
     <!-- Weighted Moving Average(N=30) -->
     <g transform="translate(92.35 83.101875)scale(0.12 -0.12)">
      <use xlink:href="#DejaVuSansMono-57"/>
      <use x="60.205078" xlink:href="#DejaVuSansMono-65"/>
      <use x="120.410156" xlink:href="#DejaVuSansMono-69"/>
      <use x="180.615234" xlink:href="#DejaVuSansMono-67"/>
      <use x="240.820312" xlink:href="#DejaVuSansMono-68"/>
      <use x="301.025391" xlink:href="#DejaVuSansMono-74"/>
      <use x="361.230469" xlink:href="#DejaVuSansMono-65"/>
      <use x="421.435547" xlink:href="#DejaVuSansMono-64"/>
      <use x="481.640625" xlink:href="#DejaVuSansMono-20"/>
      <use x="541.845703" xlink:href="#DejaVuSansMono-4d"/>
      <use x="602.050781" xlink:href="#DejaVuSansMono-6f"/>
      <use x="662.255859" xlink:href="#DejaVuSansMono-76"/>
      <use x="722.460938" xlink:href="#DejaVuSansMono-69"/>
      <use x="782.666016" xlink:href="#DejaVuSansMono-6e"/>
      <use x="842.871094" xlink:href="#DejaVuSansMono-67"/>
      <use x="903.076172" xlink:href="#DejaVuSansMono-20"/>
      <use x="963.28125" xlink:href="#DejaVuSansMono-41"/>
      <use x="1023.486328" xlink:href="#DejaVuSansMono-76"/>
      <use x="1083.691406" xlink:href="#DejaVuSansMono-65"/>
      <use x="1143.896484" xlink:href="#DejaVuSansMono-72"/>
      <use x="1204.101562" xlink:href="#DejaVuSansMono-61"/>
      <use x="1264.306641" xlink:href="#DejaVuSansMono-67"/>
      <use x="1324.511719" xlink:href="#DejaVuSansMono-65"/>
      <use x="1384.716797" xlink:href="#DejaVuSansMono-28"/>
      <use x="1444.921875" xlink:href="#DejaVuSansMono-4e"/>
      <use x="1505.126953" xlink:href="#DejaVuSansMono-3d"/>
      <use x="1565.332031" xlink:href="#DejaVuSansMono-33"/>
      <use x="1625.537109" xlink:href="#DejaVuSansMono-30"/>
      <use x="1685.742188" xlink:href="#DejaVuSansMono-29"/>
     </g>
    </g>
    <g id="line2d_31">
     <path d="M 58.75 96.661875 
L 82.75 96.661875 
" style="fill:none;stroke:#d62728;stroke-linecap:square;stroke-width:1.5;"/>
    </g>
    <g id="line2d_32"/>
    <g id="text_24">
     <!-- Weighted Moving Average(N=60) -->
     <g transform="translate(92.35 100.861875)scale(0.12 -0.12)">
      <use xlink:href="#DejaVuSansMono-57"/>
      <use x="60.205078" xlink:href="#DejaVuSansMono-65"/>
      <use x="120.410156" xlink:href="#DejaVuSansMono-69"/>
      <use x="180.615234" xlink:href="#DejaVuSansMono-67"/>
      <use x="240.820312" xlink:href="#DejaVuSansMono-68"/>
      <use x="301.025391" xlink:href="#DejaVuSansMono-74"/>
      <use x="361.230469" xlink:href="#DejaVuSansMono-65"/>
      <use x="421.435547" xlink:href="#DejaVuSansMono-64"/>
      <use x="481.640625" xlink:href="#DejaVuSansMono-20"/>
      <use x="541.845703" xlink:href="#DejaVuSansMono-4d"/>
      <use x="602.050781" xlink:href="#DejaVuSansMono-6f"/>
      <use x="662.255859" xlink:href="#DejaVuSansMono-76"/>
      <use x="722.460938" xlink:href="#DejaVuSansMono-69"/>
      <use x="782.666016" xlink:href="#DejaVuSansMono-6e"/>
      <use x="842.871094" xlink:href="#DejaVuSansMono-67"/>
      <use x="903.076172" xlink:href="#DejaVuSansMono-20"/>
      <use x="963.28125" xlink:href="#DejaVuSansMono-41"/>
      <use x="1023.486328" xlink:href="#DejaVuSansMono-76"/>
      <use x="1083.691406" xlink:href="#DejaVuSansMono-65"/>
      <use x="1143.896484" xlink:href="#DejaVuSansMono-72"/>
      <use x="1204.101562" xlink:href="#DejaVuSansMono-61"/>
      <use x="1264.306641" xlink:href="#DejaVuSansMono-67"/>
      <use x="1324.511719" xlink:href="#DejaVuSansMono-65"/>
      <use x="1384.716797" xlink:href="#DejaVuSansMono-28"/>
      <use x="1444.921875" xlink:href="#DejaVuSansMono-4e"/>
      <use x="1505.126953" xlink:href="#DejaVuSansMono-3d"/>
      <use x="1565.332031" xlink:href="#DejaVuSansMono-36"/>
      <use x="1625.537109" xlink:href="#DejaVuSansMono-30"/>
      <use x="1685.742188" xlink:href="#DejaVuSansMono-29"/>
     </g>
    </g>
    <g id="line2d_33">
     <path d="M 58.75 114.421875 
L 82.75 114.421875 
" style="fill:none;stroke:#9467bd;stroke-linecap:square;stroke-width:1.5;"/>
    </g>
    <g id="line2d_34"/>
    <g id="text_25">
     <!-- Weighted Moving Average(N=90) -->
     <g transform="translate(92.35 118.621875)scale(0.12 -0.12)">
      <use xlink:href="#DejaVuSansMono-57"/>
      <use x="60.205078" xlink:href="#DejaVuSansMono-65"/>
      <use x="120.410156" xlink:href="#DejaVuSansMono-69"/>
      <use x="180.615234" xlink:href="#DejaVuSansMono-67"/>
      <use x="240.820312" xlink:href="#DejaVuSansMono-68"/>
      <use x="301.025391" xlink:href="#DejaVuSansMono-74"/>
      <use x="361.230469" xlink:href="#DejaVuSansMono-65"/>
      <use x="421.435547" xlink:href="#DejaVuSansMono-64"/>
      <use x="481.640625" xlink:href="#DejaVuSansMono-20"/>
      <use x="541.845703" xlink:href="#DejaVuSansMono-4d"/>
      <use x="602.050781" xlink:href="#DejaVuSansMono-6f"/>
      <use x="662.255859" xlink:href="#DejaVuSansMono-76"/>
      <use x="722.460938" xlink:href="#DejaVuSansMono-69"/>
      <use x="782.666016" xlink:href="#DejaVuSansMono-6e"/>
      <use x="842.871094" xlink:href="#DejaVuSansMono-67"/>
      <use x="903.076172" xlink:href="#DejaVuSansMono-20"/>
      <use x="963.28125" xlink:href="#DejaVuSansMono-41"/>
      <use x="1023.486328" xlink:href="#DejaVuSansMono-76"/>
      <use x="1083.691406" xlink:href="#DejaVuSansMono-65"/>
      <use x="1143.896484" xlink:href="#DejaVuSansMono-72"/>
      <use x="1204.101562" xlink:href="#DejaVuSansMono-61"/>
      <use x="1264.306641" xlink:href="#DejaVuSansMono-67"/>
      <use x="1324.511719" xlink:href="#DejaVuSansMono-65"/>
      <use x="1384.716797" xlink:href="#DejaVuSansMono-28"/>
      <use x="1444.921875" xlink:href="#DejaVuSansMono-4e"/>
      <use x="1505.126953" xlink:href="#DejaVuSansMono-3d"/>
      <use x="1565.332031" xlink:href="#DejaVuSansMono-39"/>
      <use x="1625.537109" xlink:href="#DejaVuSansMono-30"/>
      <use x="1685.742188" xlink:href="#DejaVuSansMono-29"/>
     </g>
    </g>
    <g id="line2d_35">
     <path d="M 58.75 132.181875 
L 82.75 132.181875 
" style="fill:none;stroke:#8c564b;stroke-linecap:square;stroke-width:1.5;"/>
    </g>
    <g id="line2d_36"/>
    <g id="text_26">
     <!-- Weighted Moving Average(N=120) -->
     <g transform="translate(92.35 136.381875)scale(0.12 -0.12)">
      <use xlink:href="#DejaVuSansMono-57"/>
      <use x="60.205078" xlink:href="#DejaVuSansMono-65"/>
      <use x="120.410156" xlink:href="#DejaVuSansMono-69"/>
      <use x="180.615234" xlink:href="#DejaVuSansMono-67"/>
      <use x="240.820312" xlink:href="#DejaVuSansMono-68"/>
      <use x="301.025391" xlink:href="#DejaVuSansMono-74"/>
      <use x="361.230469" xlink:href="#DejaVuSansMono-65"/>
      <use x="421.435547" xlink:href="#DejaVuSansMono-64"/>
      <use x="481.640625" xlink:href="#DejaVuSansMono-20"/>
      <use x="541.845703" xlink:href="#DejaVuSansMono-4d"/>
      <use x="602.050781" xlink:href="#DejaVuSansMono-6f"/>
      <use x="662.255859" xlink:href="#DejaVuSansMono-76"/>
      <use x="722.460938" xlink:href="#DejaVuSansMono-69"/>
      <use x="782.666016" xlink:href="#DejaVuSansMono-6e"/>
      <use x="842.871094" xlink:href="#DejaVuSansMono-67"/>
      <use x="903.076172" xlink:href="#DejaVuSansMono-20"/>
      <use x="963.28125" xlink:href="#DejaVuSansMono-41"/>
      <use x="1023.486328" xlink:href="#DejaVuSansMono-76"/>
      <use x="1083.691406" xlink:href="#DejaVuSansMono-65"/>
      <use x="1143.896484" xlink:href="#DejaVuSansMono-72"/>
      <use x="1204.101562" xlink:href="#DejaVuSansMono-61"/>
      <use x="1264.306641" xlink:href="#DejaVuSansMono-67"/>
      <use x="1324.511719" xlink:href="#DejaVuSansMono-65"/>
      <use x="1384.716797" xlink:href="#DejaVuSansMono-28"/>
      <use x="1444.921875" xlink:href="#DejaVuSansMono-4e"/>
      <use x="1505.126953" xlink:href="#DejaVuSansMono-3d"/>
      <use x="1565.332031" xlink:href="#DejaVuSansMono-31"/>
      <use x="1625.537109" xlink:href="#DejaVuSansMono-32"/>
      <use x="1685.742188" xlink:href="#DejaVuSansMono-30"/>
      <use x="1745.947266" xlink:href="#DejaVuSansMono-29"/>
     </g>
    </g>
   </g>
  </g>
 </g>
 <defs>
  <clipPath id="pe865334686">
   <rect height="551.545386" width="1093.25" x="47.95" y="27.6"/>
  </clipPath>
 </defs>
</svg>
